<?xml version="1.0" encoding="utf-8"?>
	<svg version="1.1" xmlns="http://www.w3.org/2000/svg" xmlns:xlink="http://www.w3.org/1999/xlink" x="0px" y="0px"
		 viewBox="0 0 185 151" style="enable-background:new 0 0 185 151;" xml:space="preserve">
	<style type="text/css">
		.st0{fill:#F4F4F4;}
	</style>
	<path class="st0" d="M34.81,102.81L5.18,73.18c-2.13-2.13-2.13-5.59,0-7.72l29.63-29.63c2.13-2.13,5.59-2.13,7.72,0l29.63,29.63
		c2.13,2.13,2.13,5.59,0,7.72l-29.63,29.63C40.4,104.94,36.94,104.94,34.81,102.81z"/>
	<path class="st0" d="M92.49,35.35L80.4,23.26c-1.75-1.75-1.75-4.59,0-6.34L92.49,4.83c1.75-1.75,4.59-1.75,6.34,0l12.09,12.09
		c1.75,1.75,1.75,4.59,0,6.34L98.83,35.35C97.08,37.1,94.24,37.1,92.49,35.35z"/>
	<path class="st0" d="M129.88,148.41l-43.21-43.21c-2.13-2.13-2.13-5.59,0-7.72l43.21-43.21c2.13-2.13,5.59-2.13,7.72,0l43.21,43.21
		c2.13,2.13,2.13,5.59,0,7.72l-43.21,43.21C135.46,150.54,132.01,150.54,129.88,148.41z"/>
</svg>