<svg xmlns="http://www.w3.org/2000/svg" xmlns:xlink="http://www.w3.org/1999/xlink" x="0px" y="0px" viewBox="0 0 1920 799" xml:space="preserve">
    <path id="svg_1" d="m803,799c-0.65,-17.51 -0.69,-41.58 2,-70c7.66,-80.82 31.97,-139.52 47,-175c30.86,-72.87 67.88,-124.83 89,-152c17.86,-22.98 84.33,-105.42 201,-174c34.75,-20.42 121.02,-67.28 243,-90c48.07,-8.95 141.2,-21.52 256,-4c123.54,18.85 208.91,62.88 228,73c21.42,11.35 38.74,22.03 51,30c0,-79 0,-158 0,-237c-640,0 -1280,0 -1920,0c0,266.33 0,532.67 0,799c267.67,0 535.33,0 803,0z" fill="#48C97F"/>
    <circle id="svg_2" r="7.5" cy="539.5" cx="209.5" fill="#71D598"/>
    <circle id="svg_3" r="12" cy="211" cx="268" fill="#71D598"/>
    <circle id="svg_4" r="17" cy="144" cx="1864" fill="#71D598"/>
    <path id="svg_5" d="m982,356c24.33,-22.33 48.67,-44.67 73,-67c-1.91,-2.73 -5.1,-6.6 -10,-10c-7.11,-4.93 -13.93,-6.15 -19,-7c-5.42,-0.91 -14.32,-2.3 -25,1c-4.46,1.38 -16.54,5.83 -25,18c-5.85,8.41 -7.29,16.65 -8,21c-0.51,3.13 -1.54,9.79 0,18c2.48,13.19 10.04,22.01 14,26z" fill="#71D598"/>
    <circle id="svg_6" r="28.5" cy="326.74992" cx="327.75073" stroke-miterlimit="10" stroke-width="3" stroke="6CD499" fill="none"/>
    <circle id="svg_7" r="18.5" cy="653" cx="132" stroke-miterlimit="10" stroke-width="3" stroke="6CD499" fill="none"/>
    <circle opacity="0.5" stroke="#ffffff" id="svg_8" r="21.5" cy="340.25" cx="90.74976" fill="none"/>
    <circle stroke="#ffffff" opacity="0.5" id="svg_9" r="14.625" cy="689.625" cx="128.87476" fill="none"/>
</svg>