<svg id="Capa_1" enable-background="new 0 0 512.182 512.182" height="512" viewBox="0 0 512.182 512.182" width="512" xmlns="http://www.w3.org/2000/svg"><g><path d="m133.973 93.544-39.431-5.73-17.634-35.73c-2.491-5.491-10.96-5.49-13.451 0l-17.634 35.73-39.431 5.73c-5.992.672-8.608 8.727-4.156 12.793l28.532 27.812-6.736 39.272c-1.212 5.906 5.64 10.884 10.882 7.906l35.268-18.542 35.268 18.542c5.233 2.978 12.097-2 10.882-7.906l-6.735-39.272 28.532-27.812c4.453-4.066 1.836-12.12-4.156-12.793zm-37.669 32.616c-1.768 1.724-2.574 4.206-2.157 6.639l4.833 28.181-25.307-13.306c-2.186-1.148-4.795-1.148-6.98 0l-25.307 13.306 4.833-28.181c.417-2.433-.389-4.915-2.157-6.639l-20.474-19.957 28.294-4.111c2.443-.354 4.555-1.889 5.647-4.103l12.653-25.64 12.654 25.64c1.093 2.214 3.204 3.748 5.647 4.103l28.294 4.111z"/><path d="m133.973 234.544-39.431-5.73-17.634-35.73c-2.491-5.491-10.96-5.49-13.451 0l-17.634 35.73-39.431 5.73c-5.992.672-8.608 8.727-4.156 12.793l28.532 27.812-6.736 39.272c-1.212 5.906 5.64 10.884 10.882 7.906l35.268-18.542 35.268 18.542c5.233 2.978 12.097-2 10.882-7.906l-6.735-39.272 28.532-27.812c4.453-4.066 1.836-12.12-4.156-12.793zm-37.669 32.616c-1.768 1.724-2.574 4.206-2.157 6.639l4.833 28.181-25.307-13.306c-2.186-1.148-4.795-1.148-6.98 0l-25.307 13.306 4.833-28.181c.417-2.433-.389-4.915-2.157-6.639l-20.474-19.957 28.294-4.111c2.443-.354 4.555-1.889 5.647-4.103l12.653-25.64 12.654 25.64c1.093 2.214 3.204 3.748 5.647 4.103l28.294 4.111z"/><path d="m133.973 375.544-39.431-5.73-17.634-35.73c-2.491-5.491-10.96-5.49-13.451 0l-17.634 35.73-39.431 5.73c-5.992.672-8.608 8.727-4.156 12.793l28.532 27.812-6.736 39.272c-1.212 5.906 5.64 10.884 10.882 7.906l35.268-18.542 35.268 18.542c5.233 2.978 12.098-2 10.882-7.906l-6.735-39.272 28.532-27.812c4.453-4.066 1.836-12.12-4.156-12.793zm-37.669 32.616c-1.768 1.724-2.574 4.206-2.157 6.639l4.833 28.181-25.307-13.306c-2.186-1.148-4.795-1.148-6.98 0l-25.307 13.306 4.833-28.181c.417-2.433-.389-4.915-2.157-6.639l-20.474-19.957 28.294-4.111c2.443-.354 4.555-1.889 5.647-4.103l12.653-25.64 12.654 25.64c1.093 2.214 3.204 3.748 5.647 4.103l28.294 4.111z"/><path d="m494.682 74.342h-21.606c-4.142 0-7.5 3.357-7.5 7.5s3.358 7.5 7.5 7.5h21.606c1.378 0 2.5 1.121 2.5 2.5v46c0 1.379-1.122 2.5-2.5 2.5h-300c-1.378 0-2.5-1.121-2.5-2.5v-46c0-1.379 1.122-2.5 2.5-2.5h243.394c4.142 0 7.5-3.357 7.5-7.5s-3.358-7.5-7.5-7.5h-243.394c-9.649 0-17.5 7.851-17.5 17.5v46c0 9.649 7.851 17.5 17.5 17.5h300c9.649 0 17.5-7.851 17.5-17.5v-46c0-9.649-7.85-17.5-17.5-17.5z"/><path d="m234.576 107.342c-4.142 0-7.5 3.357-7.5 7.5s3.358 7.5 7.5 7.5h210c4.142 0 7.5-3.357 7.5-7.5s-3.358-7.5-7.5-7.5z"/><path d="m414.682 215.342h-220c-9.649 0-17.5 7.851-17.5 17.5v46c0 9.649 7.851 17.5 17.5 17.5h169.394c4.142 0 7.5-3.357 7.5-7.5s-3.358-7.5-7.5-7.5h-169.394c-1.378 0-2.5-1.121-2.5-2.5v-46c0-1.379 1.122-2.5 2.5-2.5h220c1.378 0 2.5 1.121 2.5 2.5v46c0 1.379-1.122 2.5-2.5 2.5h-15.606c-4.142 0-7.5 3.357-7.5 7.5s3.358 7.5 7.5 7.5h15.606c9.649 0 17.5-7.851 17.5-17.5v-46c0-9.649-7.85-17.5-17.5-17.5z"/><path d="m374.576 248.342h-140c-4.142 0-7.5 3.357-7.5 7.5s3.358 7.5 7.5 7.5h140c4.142 0 7.5-3.357 7.5-7.5s-3.358-7.5-7.5-7.5z"/><path d="m314.682 356.342h-69.606c-4.142 0-7.5 3.357-7.5 7.5s3.358 7.5 7.5 7.5h69.606c1.378 0 2.5 1.121 2.5 2.5v46c0 1.379-1.122 2.5-2.5 2.5h-120c-1.378 0-2.5-1.121-2.5-2.5v-46c0-1.379 1.122-2.5 2.5-2.5h15.394c4.142 0 7.5-3.357 7.5-7.5s-3.358-7.5-7.5-7.5h-15.394c-9.649 0-17.5 7.851-17.5 17.5v46c0 9.649 7.851 17.5 17.5 17.5h120c9.649 0 17.5-7.851 17.5-17.5v-46c0-9.649-7.85-17.5-17.5-17.5z"/><path d="m279.682 404.342c4.142 0 7.5-3.357 7.5-7.5s-3.358-7.5-7.5-7.5h-50c-4.142 0-7.5 3.357-7.5 7.5s3.358 7.5 7.5 7.5z"/></g></svg>