<svg height="681pt" viewBox="-87 -21 681 681.33577" width="681pt" xmlns="http://www.w3.org/2000/svg"><path d="m320.882812 517.957031-83.820312-80.355469c-19.820312-19.003906-50.027344-21.050781-71.816406-4.855468-.007813.003906-.109375.074218-.113282.082031l-.371093.277344c-.445313.335937-.863281.339843-1.144531.292969-.492188-.09375-.695313-.40625-.765626-.527344-19.363281-30.742188-32.457031-64.53125-38.929687-100.433594-6.464844-35.910156-5.980469-72.164062 1.457031-107.75.023438-.121094.09375-.441406.476563-.671875.3125-.183594.65625-.222656 1.035156-.109375l.578125.167969c26.136719 7.648437 53.828125-4.84375 65.824219-29.691407l54.859375-113.59375c7.730468-16.007812 4.417968-35.121093-8.230469-47.601562-4.484375-4.539062-9.589844-8.808594-15.179687-12.699219-50.066407-34.773437-118.398438-24.28125-155.566407 23.890625-2.308593 3.015625-4.453125 6.171875-6.519531 9.359375l-.023438.035157c-7.4375 11.011718-11.128906 17.886718-16.703124 28.273437l-1.1875 2.207031c-1.339844 2.472656-32.949219 60.992188-40.738282 102.191406-12.074218 63.90625-11.003906 129.992188 3.109375 191.105469 14.910157 64.554688 43.257813 121.992188 84.246094 170.710938 10.402344 12.363281 29.671875-3.820313 19.257813-16.203125-38.40625-45.640625-64.980469-99.535156-78.980469-160.171875-13.332031-57.75-14.339844-120.253907-2.902344-180.769531 7.050781-37.316407 37.808594-94.285157 38.144531-94.898438l1.21875-2.269531c4.863282-9.054688 9.976563-17.773438 15.585938-26.382813l.085937-.136718c1.6875-2.667969 3.488281-5.253907 5.398438-7.765626 28.980469-37.472656 82.199219-45.601562 121.210937-18.507812 4.34375 3.015625 8.273438 6.304688 11.6875 9.765625.046875.050781.097656.101563.148438.152344 5.007812 4.910156 6.324218 12.457031 3.273437 18.769531l-54.855469 113.59375c-6.632812 13.726562-21.816406 20.660156-36.082031 16.492188l-.476562-.144532c-7.085938-2.113281-14.777344-1.164062-21.101563 2.609375-6.277344 3.742188-10.734375 9.988281-12.226562 17.144531-8.105469 38.765626-8.636719 78.25-1.589844 117.363282 7.042969 39.09375 21.304688 75.890625 42.398438 109.378906 3.90625 6.210938 10.285156 10.53125 17.5 11.863281 7.28125 1.339844 14.867187-.449219 20.855468-4.945312l.34375-.253907c11.898438-8.839843 28.464844-7.65625 39.390625 2.820313l83.820313 80.355469c10.226562 9.808594 10.421875 26.351562 3.71875 38.113281-11.761719 20.488281-36.136719 34.222656-58.835938 38.074219-23.113281 3.914062-46.457031-1.289063-65.722656-14.671875-13.269531-9.214844-27.644531 11.4375-14.355469 20.667969 19.34375 13.433593 41.886719 20.449218 64.988281 20.449218 6.40625 0 12.863282-.542968 19.292969-1.632812 30.136719-5.113282 60.953125-23.355469 76.457031-50.355469l.289063-.503906c12.304687-21.4375 9.808594-50.832031-8.414063-68.304688zm0 0"/><path d="m366.4375 114.402344c-74.65625 0-135.386719 60.734375-135.386719 135.394531 0 6.523437.472657 13.09375 1.414063 19.582031l-22.445313 72.914063c-2.363281 7.667969 3.46875 15.851562 11.363281 16.265625l69.578126 3.644531c22.351562 15.050781 48.367187 22.984375 75.476562 22.984375 74.65625 0 135.394531-60.738281 135.394531-135.390625 0-74.660156-60.738281-135.394531-135.394531-135.394531zm0 245.617187c-23.09375 0-45.207031-7.066406-63.945312-20.4375-1.949219-1.390625-4.257813-2.199219-6.644532-2.320312l-57.03125-2.992188 18.554688-60.261719c2.179687-7.078124-1.152344-16.851562-1.152344-24.210937 0-60.78125 49.441406-110.222656 110.21875-110.222656s110.222656 49.441406 110.222656 110.222656c0 60.773437-49.445312 110.222656-110.222656 110.222656zm0 0"/><path d="m320.746094 240.761719c-6.84375 0-12.585938 5.742187-12.585938 12.582031 0 6.84375 5.746094 12.589844 12.585938 12.589844 6.640625 0 12.265625-5.417969 12.558594-12.039063.308593-7.046875-5.492188-13.132812-12.558594-13.132812zm0 0"/><path d="m134.425781 565.199219c-6.84375 0-12.585937 5.746093-12.585937 12.582031 0 6.839844 5.746094 12.585938 12.585937 12.585938 6.640625 0 12.265625-5.410157 12.558594-12.035157.308594-7.035156-5.503906-13.132812-12.558594-13.132812zm0 0"/><path d="m370.246094 240.761719c-6.855469 0-12.582032 5.726562-12.582032 12.582031 0 6.851562 5.738282 12.589844 12.582032 12.589844 6.648437-.007813 12.257812-5.410156 12.546875-12.039063.308593-7.046875-5.46875-13.132812-12.546875-13.132812zm0 0"/><path d="m419.734375 240.761719c-6.839844 0-12.582031 5.742187-12.582031 12.582031.003906 6.84375 5.75 12.589844 12.582031 12.589844 6.648437 0 12.265625-5.417969 12.558594-12.039063.316406-7.046875-5.484375-13.132812-12.558594-13.132812zm0 0"/></svg>