<svg id="Capa_1" enable-background="new 0 0 512 512" height="512" viewBox="0 0 512 512" width="512" xmlns="http://www.w3.org/2000/svg"><g><path d="m70.418 140.947h109.221c4.143 0 7.5-3.358 7.5-7.5s-3.357-7.5-7.5-7.5h-109.221c-4.143 0-7.5 3.358-7.5 7.5s3.357 7.5 7.5 7.5zm0 38.839h54.61c4.143 0 7.5-3.358 7.5-7.5s-3.357-7.5-7.5-7.5h-54.61c-4.143 0-7.5 3.358-7.5 7.5s3.357 7.5 7.5 7.5zm225.017-6.917 41.107-41.108c2.929-2.929 2.929-7.678 0-10.606-2.93-2.929-7.678-2.929-10.607 0l-35.804 35.804-15.25-15.251c-2.929-2.929-7.677-2.93-10.607 0-2.929 2.929-2.929 7.677 0 10.606l20.554 20.554c2.928 2.928 7.677 2.93 10.607.001zm86.931 203.816c-4.142 0-7.5 3.358-7.5 7.5v7.027c0 14.112-11.48 25.592-25.593 25.592-6.365.028-7.059-.065-9.729.096v-32.451c0-11.299-9.192-20.492-20.491-20.492h-46.691c-11.299 0-20.491 9.192-20.491 20.492v46.69c0 11.299 9.192 20.492 20.491 20.492h24.103c-2.511 8.906-1.601 14.956-1.797 19.778 0 14.111-11.48 25.592-25.592 25.592h-216.716c-18.069 0-32.771-14.701-32.771-32.77v-350.508c0-4.142-3.357-7.5-7.5-7.5s-7.5 3.358-7.5 7.5v350.507c0 26.34 21.43 47.77 47.771 47.77h251.168c47.606 0 86.338-38.731 86.338-86.337v-41.478c0-4.142-3.357-7.5-7.5-7.5zm-110.004 59.945c-3.028 0-5.491-2.463-5.491-5.492v-46.69c0-3.028 2.463-5.492 5.491-5.492h46.691c3.028 0 5.491 2.463 5.491 5.492v35.846c-8.38 3.399-15.581 9.107-20.813 16.335h-31.369zm102.504-10.967c0 39.335-32.002 71.337-71.338 71.337h-2.972c11.606-14.249 8.669-29.125 9.113-32.426 0-18.069 14.701-32.77 32.771-32.77 3.322-.447 18.16 2.507 32.427-9.113v2.972zm-304.448-117.597h54.61c4.143 0 7.5-3.358 7.5-7.5s-3.357-7.5-7.5-7.5h-54.61c-4.143 0-7.5 3.358-7.5 7.5s3.357 7.5 7.5 7.5zm0 128.28h54.61c4.143 0 7.5-3.358 7.5-7.5s-3.357-7.5-7.5-7.5h-54.61c-4.143 0-7.5 3.358-7.5 7.5s3.357 7.5 7.5 7.5zm428.767-323.145-14.401-14.401c-10.968-10.967-28.718-10.968-39.688 0l-55.23 55.231v-59.235c0-12.533-4.819-24.374-13.569-33.343-6.984-7.159-15.861-11.854-25.523-13.621v-16.717c-.001-17.157-13.96-31.115-31.117-31.115h-7.927c-17.157 0-31.115 13.958-31.115 31.115v15.911h-48.309v-15.911c0-17.157-13.958-31.115-31.115-31.115h-7.927c-17.157 0-31.115 13.958-31.115 31.115v15.911h-48.31v-15.911c.001-17.157-13.957-31.115-31.115-31.115h-7.927c-17.157 0-31.115 13.958-31.115 31.115v16.73c-15.348 2.859-28.655 13.181-35.058 27.716-1.67 3.791.049 8.217 3.84 9.887s8.217-.05 9.887-3.84c4.251-9.65 12.942-16.579 23.039-18.796 4.217 12.19 15.803 20.971 29.408 20.971h7.927c13.897 0 25.693-9.159 29.675-21.757h51.191c3.982 12.598 15.777 21.757 29.675 21.757h7.927c13.897 0 25.693-9.159 29.675-21.757h51.19c3.982 12.598 15.778 21.757 29.675 21.757h7.927c13.618 0 25.213-8.797 29.42-21.004 14.865 3.167 25.789 16.224 25.789 32.018v74.235c-.137.137-51.864 51.864-54.406 54.407-3.449 3.449-5.862 7.654-7.101 12.239h-40.997c-11.299 0-20.491 9.192-20.491 20.492v46.69c0 11.299 9.192 20.492 20.491 20.492h46.691c11.299 0 20.491-9.192 20.491-20.492v-17.274h15.548c7.35 0 14.259-2.862 19.455-8.059l.319-.319v70.928c0 4.142 3.358 7.5 7.5 7.5 4.143 0 7.5-3.358 7.5-7.5v-85.928c13.953-13.953 96.089-96.088 109.319-109.318 10.964-10.97 10.965-28.721-.003-39.689zm-400.345-60.534c0 8.886-7.229 16.116-16.115 16.116h-7.927c-8.886 0-16.115-7.229-16.115-16.116v-21.552c-.001-8.886 7.229-16.115 16.115-16.115h7.927c8.886 0 16.115 7.229 16.115 16.115zm118.466 0c0 8.886-7.23 16.116-16.115 16.116h-7.927c-8.886 0-16.115-7.229-16.115-16.116v-21.552c0-8.886 7.229-16.115 16.115-16.115h7.927c8.886 0 16.115 7.229 16.115 16.115zm118.467 0c0 8.886-7.229 16.116-16.116 16.116h-7.927c-8.886 0-16.115-7.229-16.115-16.116v-21.552c0-8.886 7.229-16.115 16.115-16.115h7.927c8.887 0 16.116 7.229 16.116 16.115zm-11.229 250.191c0 3.028-2.463 5.492-5.491 5.492h-46.691c-3.028 0-5.491-2.463-5.491-5.492v-46.69c0-3.028 2.463-5.492 5.491-5.492l40.038-.001v15.879c0 8.063 5.048 14.953 12.144 17.72zm39.395-35.94c-2.363 2.364-5.505 3.666-8.848 3.666h-23.662c-2.222 0-4.029-1.808-4.029-4.029v-23.662c0-3.343 1.302-6.485 3.666-8.849l3.605-3.605 32.873 32.874zm14.213-14.212-32.873-32.874c9.321-9.321 74.714-74.714 83.358-83.358l32.874 32.874zm110.426-110.425-16.461 16.461-32.874-32.874 16.461-16.461c5.092-5.093 13.381-5.093 18.473 0l14.401 14.401c5.104 5.103 5.107 13.367 0 18.473zm-418.16 126.947h109.221c4.143 0 7.5-3.358 7.5-7.5s-3.357-7.5-7.5-7.5h-109.221c-4.143 0-7.5 3.358-7.5 7.5s3.357 7.5 7.5 7.5zm0 128.28h109.221c4.143 0 7.5-3.358 7.5-7.5s-3.357-7.5-7.5-7.5h-109.221c-4.143 0-7.5 3.358-7.5 7.5s3.357 7.5 7.5 7.5z"/></g></svg>