<?xml version="1.0" encoding="iso-8859-1"?>
<!-- Generator: Adobe Illustrator 19.0.0, SVG Export Plug-In . SVG Version: 6.00 Build 0)  -->
<svg version="1.1" id="Capa_1" xmlns="http://www.w3.org/2000/svg" xmlns:xlink="http://www.w3.org/1999/xlink" x="0px" y="0px"
	 viewBox="0 0 512 512" style="enable-background:new 0 0 512 512;" xml:space="preserve">
<g>
	<g>
		<path d="M256,0C161.124,0,83.938,77.186,83.938,172.062c0,36.97,11.543,72.192,33.382,101.872l130.362,193.522
			c1.864,2.767,4.982,4.426,8.318,4.426c3.337,0,6.454-1.659,8.318-4.426L394.68,273.935
			c21.839-29.681,33.382-64.902,33.382-101.872C428.062,77.186,350.876,0,256,0z M378.37,262.257
			c-0.126,0.171-0.249,0.349-0.366,0.532L256,443.901L134.017,262.818c-0.122-0.192-0.251-0.378-0.386-0.562
			c-19.387-26.256-29.634-57.444-29.634-90.195c0-83.814,68.189-152.002,152.003-152.002s152.003,68.189,152.003,152.003
			C408.003,204.812,397.756,236.001,378.37,262.257z"/>
	</g>
</g>
<g>
	<g>
		<path d="M326.206,160.972c-5.539,0-10.029,4.49-10.029,10.029c0,33.181-26.995,60.176-60.176,60.176s-60.176-26.995-60.176-60.176
			s26.995-60.176,60.176-60.176c12.06,0,23.692,3.552,33.639,10.271c4.59,3.101,10.824,1.894,13.925-2.696
			c3.101-4.589,1.894-10.824-2.696-13.925C287.593,95.507,272.078,90.766,256,90.766c-44.242,0-80.235,35.993-80.235,80.235
			s35.993,80.235,80.235,80.235c44.242,0,80.235-35.993,80.235-80.235C336.235,165.462,331.745,160.972,326.206,160.972z"/>
	</g>
</g>
<g>
	<g>
		<path d="M376.185,491.941H135.48c-5.539,0-10.029,4.49-10.029,10.029c0,5.539,4.49,10.029,10.029,10.029h240.705
			c5.539,0,10.029-4.49,10.029-10.029C386.215,496.431,381.724,491.941,376.185,491.941z"/>
	</g>
</g>
<g>
	<g>
		<path d="M318.182,127.98h-0.201c-5.539,0-10.029,4.49-10.029,10.029c0,5.539,4.49,10.029,10.029,10.029h0.201
			c5.539,0,10.029-4.49,10.029-10.029C328.212,132.47,323.721,127.98,318.182,127.98z"/>
	</g>
</g>
<g>
</g>
<g>
</g>
<g>
</g>
<g>
</g>
<g>
</g>
<g>
</g>
<g>
</g>
<g>
</g>
<g>
</g>
<g>
</g>
<g>
</g>
<g>
</g>
<g>
</g>
<g>
</g>
<g>
</g>
</svg>
