<?xml version="1.0" encoding="iso-8859-1"?>
<!-- Generator: Adobe Illustrator 19.0.0, SVG Export Plug-In . SVG Version: 6.00 Build 0)  -->
<svg version="1.1" id="Capa_1" xmlns="http://www.w3.org/2000/svg" xmlns:xlink="http://www.w3.org/1999/xlink" x="0px" y="0px"
	 viewBox="0 0 512 512" style="enable-background:new 0 0 512 512;" xml:space="preserve">
<g>
	<g>
		<path d="M374.637,492h-0.125c-5.522,0-10,4.478-10,10c0,5.522,4.478,10,10,10h0.125c5.522,0,10-4.478,10-10
			C384.637,496.478,380.159,492,374.637,492z"/>
	</g>
</g>
<g>
	<g>
		<path d="M509.046,168.862L438,98.317V40c0-22.056-17.944-40-40-40H114C91.944,0,74,17.944,74,40v57.816l-71.071,71.07
			C1.054,170.763,0,173.306,0,175.958V432.5C0,476.337,35.664,512,79.5,512h250.432c5.522,0,10-4.478,10-10c0-5.522-4.478-10-10-10
			H79.5c-11.707,0-22.625-3.412-31.839-9.274l18.747-18.747h153.59c5.522,0,10-4.478,10-10c0-5.522-4.478-10-10-10H86.407
			l119.286-119.286c27.74-27.739,72.875-27.739,100.613,0l158.032,158.033C455.125,488.588,444.207,492,432.5,492H419
			c-5.522,0-10,4.478-10,10c0,5.522,4.478,10,10,10h13.5c20.369,0,38.966-7.707,53.048-20.349c0.345-0.265,0.681-0.545,0.997-0.861
			c0.132-0.132,0.249-0.274,0.373-0.412C502.341,475.868,512,455.297,512,432.5V175.958
			C512,173.294,510.937,170.739,509.046,168.862z M438,126.502l49.833,49.481L438,225.816V126.502z M74,126.101v99.715
			l-49.857-49.858L74,126.101z M32.799,469.302C24.795,459.167,20,446.387,20,432.5V200.101l141,141.001L32.799,469.302z
			 M320.449,310.551c-35.537-35.535-93.361-35.535-128.898,0l-16.408,16.408L94,245.816V40c0-11.028,8.972-20,20-20h284
			c11.028,0,20,8.972,20,20v205.816l-81.143,81.143L320.449,310.551z M492,432.5c0,13.887-4.795,26.668-12.8,36.803L351,341.102
			l141-141.001V432.5z"/>
	</g>
</g>
<g>
	<g>
		<path d="M262,92H161.529c-5.522,0-10,4.478-10,10c0,5.522,4.478,10,10,10H262c5.522,0,10-4.478,10-10
			C272,96.478,267.522,92,262,92z"/>
	</g>
</g>
<g>
	<g>
		<path d="M315.41,94.93c-1.87-1.86-4.45-2.93-7.08-2.93c-2.63,0-5.21,1.069-7.07,2.93c-1.86,1.861-2.93,4.44-2.93,7.07
			s1.069,5.21,2.93,7.069c1.87,1.861,4.44,2.931,7.07,2.931s5.21-1.07,7.08-2.931c1.859-1.859,2.92-4.439,2.92-7.069
			S317.269,96.79,315.41,94.93z"/>
	</g>
</g>
<g>
	<g>
		<path d="M350.47,164H161.529c-5.522,0-10,4.478-10,10c0,5.522,4.478,10,10,10H350.47c5.522,0,10-4.478,10-10
			C360.47,168.478,355.992,164,350.47,164z"/>
	</g>
</g>
<g>
	<g>
		<path d="M350.471,236H161.529c-5.522,0-10,4.478-10,10c0,5.522,4.478,10,10,10H350.47c5.523,0,10.001-4.478,10.001-10
			C360.471,240.478,355.993,236,350.471,236z"/>
	</g>
</g>
<g>
</g>
<g>
</g>
<g>
</g>
<g>
</g>
<g>
</g>
<g>
</g>
<g>
</g>
<g>
</g>
<g>
</g>
<g>
</g>
<g>
</g>
<g>
</g>
<g>
</g>
<g>
</g>
<g>
</g>
</svg>
