<svg id="Capa_1" enable-background="new 0 0 512 512" height="512" viewBox="0 0 512 512" width="512" xmlns="http://www.w3.org/2000/svg"><g><path d="m297.758 150.852c-36.994 0-70.1 23.433-82.38 58.309-3.275 9.301-4.937 19.06-4.937 29.007 0 36.509 23.024 69.469 57.295 82.016 3.889 1.425 8.198-.575 9.621-4.465 1.424-3.89-.575-8.197-4.465-9.621-28.382-10.392-47.451-37.69-47.451-67.93 0-8.245 1.374-16.328 4.085-24.024 10.17-28.885 37.59-48.291 68.231-48.291 39.875 0 72.316 32.44 72.316 72.315 0 37.647-28.23 68.607-65.667 72.016-4.125.375-7.165 4.023-6.789 8.148.36 4.137 4.088 7.182 8.148 6.789 21.603-1.966 41.607-11.883 56.331-27.923 14.816-16.142 22.977-37.105 22.977-59.03.001-48.146-39.169-87.316-87.315-87.316z"/><path d="m504.5 200.612c-4.143 0-7.5 3.357-7.5 7.5v95c0 10.477-8.523 19-19 19h-65.039l-16.267-16.528c1.876-2.745 3.64-5.571 5.287-8.472h52.519c9.649 0 17.5-7.851 17.5-17.5v-83c0-9.649-7.851-17.5-17.5-17.5h-52.581c-5.209-9.152-11.59-17.552-18.937-25h95.018c10.477 0 19 8.523 19 19 0 4.143 3.357 7.5 7.5 7.5s7.5-3.357 7.5-7.5c0-18.748-15.252-34-34-34h-112.999c-19.182-13.063-42.336-20.709-67.243-20.709-24.54 0-47.82 7.535-67.238 20.709h-196.52c-18.748 0-34 15.252-34 34v130c0 18.748 15.252 34 34 34h195.5c.268 0 .532-.015.792-.042 19.226 13.156 42.461 20.864 67.465 20.864 24.159 0 46.665-7.197 65.501-19.55l46.744 48.209c9.213 9.297 24.314 9.351 33.568.095 4.496-4.497 6.956-10.479 6.925-16.842-.03-6.354-2.538-12.307-7.062-16.77l-15.711-15.964h50.278c18.748 0 34-15.252 34-34v-95c0-4.143-3.357-7.5-7.5-7.5zm-50-6.5c1.379 0 2.5 1.121 2.5 2.5v83c0 1.379-1.121 2.5-2.5 2.5h-45.327c5.388-13.612 8.351-28.438 8.351-43.944 0-15.548-2.98-30.413-8.396-44.056zm-439.5 109v-130c0-10.477 8.523-19 19-19h178.482c-7.313 7.403-13.693 15.789-18.921 25h-136.061c-9.649 0-17.5 7.851-17.5 17.5v83c0 9.649 7.851 17.5 17.5 17.5h59.5c4.143 0 7.5-3.357 7.5-7.5s-3.357-7.5-7.5-7.5h-59.5c-1.379 0-2.5-1.121-2.5-2.5v-83c0-1.379 1.121-2.5 2.5-2.5h128.861c-11.171 27.571-11.043 60.785-.017 88h-34.344c-4.143 0-7.5 3.357-7.5 7.5s3.357 7.5 7.5 7.5h41.535c5.195 9.15 11.56 17.55 18.89 25h-178.425c-10.477 0-19-8.524-19-19zm177.993-64.945c0-11.942 1.991-23.652 5.917-34.805 14.733-41.846 54.458-69.96 98.848-69.96 57.189-.113 104.801 46.654 104.766 104.765 0 57.768-46.998 104.766-104.766 104.766s-104.765-46.998-104.765-104.766zm194.394 79.345 9.551 9.704-11.989 11.989-9.591-9.891c4.28-3.65 8.299-7.594 12.029-11.802zm45.492 46.221c3.426 3.22 3.48 9.091.085 12.347-3.364 3.366-8.845 3.368-12.242.02l-25.329-26.123 12.068-12.068 25.324 25.731c.031.03.063.062.094.093z"/><path d="m103.5 209.112c-4.143 0-7.5 3.357-7.5 7.5v43c0 4.143 3.357 7.5 7.5 7.5s7.5-3.357 7.5-7.5v-43c0-4.143-3.357-7.5-7.5-7.5z"/></g></svg>