<?xml version="1.0" ?><!DOCTYPE svg  PUBLIC '-//W3C//DTD SVG 1.1//EN'  'http://www.w3.org/Graphics/SVG/1.1/DTD/svg11.dtd'><svg enable-background="new 0 0 24 24" height="24px" id="Layer_1" version="1.1" viewBox="0 0 24 24" width="24px" xml:space="preserve" xmlns="http://www.w3.org/2000/svg" xmlns:xlink="http://www.w3.org/1999/xlink"><path d="M23,11H3V3c0-1.1,0.9-2,2-2s2,0.9,2,2v1.1C6.6,4.2,6.2,4.6,6.1,5h2.8C8.8,4.6,8.4,4.2,8,4.1V3c0-1.7-1.3-3-3-3S2,1.3,2,3v8  H1c-0.6,0-1,0.4-1,1v4c0,2.2,1.2,4.2,3,5.2V22c0,1.1,0.9,2,2,2s2-0.9,2-2h10c0,1.1,0.9,2,2,2s2-0.9,2-2v-0.8c1.8-1,3-3,3-5.2v-4  C24,11.4,23.6,11,23,11z M5,23c-0.6,0-1-0.4-1-1v-0.3C4.6,21.9,5.3,22,6,22C6,22.6,5.6,23,5,23z M20,22c0,0.6-0.4,1-1,1s-1-0.4-1-1  c0.7,0,1.4-0.1,2-0.3V22z M22,16c0,2.2-1.8,4-4,4H6c-2.2,0-4-1.8-4-4v-1h20V16z M22,14H2v-1h20V14z"/></svg>