<?xml version="1.0" ?><!DOCTYPE svg  PUBLIC '-//W3C//DTD SVG 1.1//EN'  'http://www.w3.org/Graphics/SVG/1.1/DTD/svg11.dtd'><svg enable-background="new 0 0 24 24" height="24px" id="Layer_1" version="1.1" viewBox="0 0 24 24" width="24px" xml:space="preserve" xmlns="http://www.w3.org/2000/svg" xmlns:xlink="http://www.w3.org/1999/xlink"><g><path d="M23,10h-5V1c0-0.6-0.4-1-1-1H7C6.4,0,6,0.4,6,1v9H1c-0.6,0-1,0.4-1,1v13h24V11C24,10.4,23.6,10,23,10z M2,22V12h4v10H2z    M8,22V11V2h8v9v11H8z M18,22V12h4v10H18z"/><rect height="2" width="1" x="4" y="13"/><rect height="2" width="1" x="4" y="16"/><rect height="2" width="1" x="19" y="13"/><rect height="2" width="1" x="19" y="16"/><rect height="2" width="1" x="10" y="4"/><rect height="2" width="1" x="10" y="7"/><rect height="2" width="1" x="10" y="10"/><rect height="2" width="1" x="10" y="13"/><rect height="2" width="1" x="10" y="16"/><rect height="2" width="1" x="13" y="4"/><rect height="2" width="1" x="13" y="7"/><rect height="2" width="1" x="13" y="10"/><rect height="2" width="1" x="13" y="13"/><rect height="2" width="1" x="13" y="16"/></g></svg>