<?xml version="1.0" ?><!DOCTYPE svg  PUBLIC '-//W3C//DTD SVG 1.1//EN'  'http://www.w3.org/Graphics/SVG/1.1/DTD/svg11.dtd'><svg enable-background="new 0 0 24 24" height="24px" id="Layer_1" version="1.1" viewBox="0 0 24 24" width="24px" xml:space="preserve" xmlns="http://www.w3.org/2000/svg" xmlns:xlink="http://www.w3.org/1999/xlink"><g><path d="M18,11h-5v5h5V11z M15,15h-1v-3h1V15z M17,15h-1v-3h1V15z"/><path d="M23,22h-1v-9.2l0.3,0.3c0.4,0.4,1,0.4,1.4,0l0,0c0.4-0.4,0.4-1,0-1.4L12,0L7,5V3c0.6,0,1-0.4,1-1V1c0-0.6-0.4-1-1-1H3   C2.4,0,2,0.4,2,1v1c0,0.6,0.4,1,1,1v6l-2.7,2.7c-0.4,0.4-0.4,1,0,1.4l0,0c0.4,0.4,1,0.4,1.4,0L2,12.8V22H1c-0.6,0-1,0.4-1,1v1h24   v-1C24,22.4,23.6,22,23,22z M12,2.8l8,8V22h-9v-8H6v8H4V10.8L12,2.8z M10,19v3H7v-7h3v3H9v1H10z M4,8V3h2v3L4,8z M3,1h4v1H3V1z"/></g></svg>