<?xml version="1.0" ?><!DOCTYPE svg  PUBLIC '-//W3C//DTD SVG 1.1//EN'  'http://www.w3.org/Graphics/SVG/1.1/DTD/svg11.dtd'><svg enable-background="new 0 0 24 24" height="24px" id="Layer_1" version="1.1" viewBox="0 0 24 24" width="24px" xml:space="preserve" xmlns="http://www.w3.org/2000/svg" xmlns:xlink="http://www.w3.org/1999/xlink"><g><path d="M21,7.2c-0.4,0-0.7,0.1-1,0.2V5c0-2.8-2.2-5-5-5H9C6.2,0,4,2.2,4,5v2.4C3.7,7.3,3.4,7.2,3,7.2c-1.7,0-3,1.3-3,3   c0,1.3,0.8,2.4,2,2.8c0,0,0,7,0,8s1,1,1,1h3v2h4v-2h4v2h4v-2h3c0,0,1,0,1-1s0-8,0-8c1.2-0.4,2-1.5,2-2.8C24,8.5,22.7,7.2,21,7.2z    M6,5c0-1.7,1.3-3,3-3h6c1.7,0,3,1.3,3,3v5v5H6v-5V5z M4,20c0,0,0-6.8,0-7.8s-1-1-1-1c-0.6,0-1-0.4-1-1s0.4-1.1,1-1.1S4,10,4,10h1   v10H4z M9,23H7v-1h2V23z M17,23h-2v-1h2V23z M6,20v-4h12v4H6z M21,11.2c0,0-1,0-1,1s0,7.8,0,7.8h-1V10h1c0,0,0.4-0.9,1-0.9   s1,0.5,1,1S21.6,11.2,21,11.2z"/></g></svg>