<svg xmlns="http://www.w3.org/2000/svg" viewBox="0 0 104.89 62.8"><title>Asset 1</title><g id="Layer_2" data-name="Layer 2"><g id="Layer_4" data-name="Layer 4"><path d="M26.92,42.42a10,10,0,1,1-10,9.95A9.94,9.94,0,0,1,26.92,42.42Zm52.42.48a9.95,9.95,0,1,1-10,10A10,10,0,0,1,79.34,42.9ZM36.79,11.05,22,9.64a5.53,5.53,0,0,0-2.11.16,6.68,6.68,0,0,0-2.28,1.32A42.82,42.82,0,0,0,6.08,26a38.41,38.41,0,0,0-2,5.71l.42-.15,2.68-.95L31,22l.82-1.76.41-.87.93.21,3.24.73h0l.4.11ZM39.58,28.6h0v9.11h62.55V28.6H39.58Zm56.31-2.78,0-23H46.59v23Zm-52.09,0H41.71V3.25H36.79v5L22.29,6.87a8.14,8.14,0,0,0-3.17.27A9.18,9.18,0,0,0,15.86,9a45.76,45.76,0,0,0-12.3,15.9A39.43,39.43,0,0,0,.07,43.7l.3,7.21.06,1.34H14.87c0-.1,0-.2,0-.31a1.85,1.85,0,0,1,0-.23v-.08c0-.07,0-.15,0-.22v-.07l0-.23v-.06l0-.26h0v0l0-.26v-.06a2.07,2.07,0,0,0,0-.22v0c0-.08,0-.16,0-.25v0a2.21,2.21,0,0,1,0-.25v0a12.06,12.06,0,0,1,22.35-2.94l.13.25h0l.12.23,0,0c0,.08.07.16.11.23v0l.1.24h0c0,.08.07.16.1.23l0,0a1.43,1.43,0,0,0,.08.22v0l.08.21,0,.09.06.2,0,.06.06.2,0,.09.06.22v0a2.25,2.25,0,0,1,0,.22l0,.07c0,.07,0,.14,0,.22l0,.07a1.43,1.43,0,0,0,0,.22v.07A12.5,12.5,0,0,1,39,52H67.59a11.78,11.78,0,0,1,23.48-.17,20.57,20.57,0,0,0,2.45-.51,13.2,13.2,0,0,0-5.09-9.91,8.62,8.62,0,0,0-1.06-.89h17.52V25.82H98.67V0H43.8V25.82ZM66.62,40.49a27.88,27.88,0,0,0-6.79,3.94L41.28,45.7a29.11,29.11,0,0,0-1.72-5.15v-.06Zm-29.84-7V25.82h0V22.89l-1-.25-2.3-.52-.62,1.33-.12.24v0l-2.15,5.64-.19.49-.49.19L2.78,40.81c0,.89,0,1.8.07,2.73v0l.24,5.89h9.33a14,14,0,0,1,9.36-10.7ZM7.62,33l22.06-7.81L28.59,28,3.17,38.09l-.26.1a33.69,33.69,0,0,1,.5-3.72h0v0ZM79.34,46.31a6.55,6.55,0,1,0,6.55,6.54A6.54,6.54,0,0,0,79.34,46.31Zm-52.42-.49a6.55,6.55,0,1,0,6.55,6.55A6.54,6.54,0,0,0,26.92,45.82Z" style="fill:#595959;fill-rule:evenodd"/></g></g></svg>