<svg xmlns="http://www.w3.org/2000/svg" viewBox="0 0 61.98 53.1"><title>Asset 3</title><g id="Layer_2" data-name="Layer 2"><g id="Layer_9" data-name="Layer 9"><path d="M0,53.1V0H62l0,53.1ZM26.82,2.79V11l-1,.23-1.12-.8-1.64,1-1.25-1-1.4.83V2.79H2.79V50.31h42.7V2.79ZM13.21,41.21v3.56h24V41.21Zm20.13-1.35V20.15h1.75l-3.33-6.46-3.33,6.46h1.75V39.86Zm-13.11,0V20.15H22l-3.33-6.46-3.33,6.46h1.74V39.86ZM47.88,2.79V50.31h11.3l0-47.52H55.27V11l-.52.23-.56-.8-.84,1-.63-1-.71.83V2.79Z" style="fill:#595959"/></g></g></svg>