<svg xmlns="http://www.w3.org/2000/svg" viewBox="0 0 50 50"><defs><style>.cls-1{fill:#222529;}</style></defs><title>Asset 1</title><g id="Layer_2" data-name="Layer 2"><g id="Icon"><path class="cls-1" d="M25,0A25.08,25.08,0,0,0,2.27,14.58a1,1,0,0,0,1.82.84A23.17,23.17,0,0,1,25,1.9,23.2,23.2,0,0,1,48.1,25a23,23,0,0,1-4.85,14.09c-1.48-1.42-4.47-2.82-10.73-5C31,33.52,31,33.52,31,32.14V30.33a11.81,11.81,0,0,0,1.17-3.87,2.69,2.69,0,0,0,.38-.19A5.37,5.37,0,0,0,34.72,23a4.51,4.51,0,0,0-1-4.25c0-.35,0-.84.08-1.29.08-1.2.17-2.69.17-3.61,0-3.86-1.82-5-3.54-5.14C29.5,7.5,28,7,25.5,7a10.17,10.17,0,0,0-4,.92,7.64,7.64,0,0,1-3,.75c-.6,0-1.67.25-2.16,2A11.74,11.74,0,0,0,16,13.8c0,1.49.13,3.39.2,4.53q0,.24,0,.42a4.49,4.49,0,0,0-1,4.22,5.36,5.36,0,0,0,2.17,3.3,2.69,2.69,0,0,0,.38.19A11.81,11.81,0,0,0,19,30.33v1.81c0,1.38,0,1.38-1.52,1.92-6.19,2.19-9.19,3.58-10.69,5a23.65,23.65,0,0,1-2.7-4.46,1,1,0,0,0-1.82.84A25,25,0,1,0,25,0ZM21,32.14V30a1,1,0,0,0-.29-.7,11.52,11.52,0,0,1-1-3.84,1,1,0,0,0-.43-.7,1.09,1.09,0,0,0-.7-.16,3.3,3.3,0,0,1-1.35-2.08,2.77,2.77,0,0,1,.3-2.26c.8-.23.76-.76.68-2.06-.08-1.11-.2-3-.2-4.4,0-2.76.48-3.13.48-3.13a9.38,9.38,0,0,0,3.76-.89A8.28,8.28,0,0,1,25.5,9c2.62,0,3.21.61,3.56,1.19a1,1,0,0,0,.86.48c1,0,2.08.24,2.08,3.16,0,.85-.09,2.31-.17,3.48-.15,2.42-.17,2.73.6,2.92a2.65,2.65,0,0,1,.35,2.3,3.3,3.3,0,0,1-1.35,2.07,1.09,1.09,0,0,0-.7.16,1,1,0,0,0-.43.7,11.6,11.6,0,0,1-1,3.84A1,1,0,0,0,29,30v2.14c0,1.76.21,2.67,2.06,3.49a8.93,8.93,0,0,1-12.12,0C20.79,34.81,21,33.9,21,32.14Zm4,16A23,23,0,0,1,8.09,40.57c1.1-1.09,3.71-2.33,8.8-4.18a10.91,10.91,0,0,0,16.22,0c5.17,1.87,7.78,3.13,8.85,4.23A23,23,0,0,1,25,48.1Z"/><path class="cls-1" d="M11,24H7V20a1,1,0,0,0-2,0v4H1a1,1,0,0,0,0,2H5v4a1,1,0,0,0,2,0V26h4a1,1,0,0,0,0-2Z"/></g></g></svg>