<?xml version="1.0" ?><svg viewBox="0 0 512 512" xmlns="http://www.w3.org/2000/svg"><title/><g data-name="1" id="_1"><path d="M258.44,313a75.51,75.51,0,0,1-48.29-17.4h0a160.33,160.33,0,0,1-57.88-129l.59-16.68a105.64,105.64,0,0,1,211.16,0l.59,16.68a160.33,160.33,0,0,1-57.88,129A75.51,75.51,0,0,1,258.44,313ZM229.3,272.55a45.69,45.69,0,0,0,58.28,0,131.16,131.16,0,0,0,47.05-104.88L334,151a75.65,75.65,0,0,0-151.2,0l-.59,16.68A131.16,131.16,0,0,0,229.3,272.55Z"/><path d="M379.44,450h-242a15,15,0,0,1-15-15V380.92a120.57,120.57,0,0,1,82.34-114.47,15,15,0,1,1,9.52,28.44,90.62,90.62,0,0,0-61.86,86V420h212V380.92a90.62,90.62,0,0,0-61.86-86,15,15,0,1,1,9.52-28.44,120.57,120.57,0,0,1,82.34,114.47V435A15,15,0,0,1,379.44,450Z"/></g></svg>