<?xml version="1.0" ?><!DOCTYPE svg  PUBLIC '-//W3C//DTD SVG 1.1//EN'  'http://www.w3.org/Graphics/SVG/1.1/DTD/svg11.dtd'><svg enable-background="new 0 0 24 24" height="24px" id="Layer_1" version="1.1" viewBox="0 0 24 24" width="24px" xml:space="preserve" xmlns="http://www.w3.org/2000/svg" xmlns:xlink="http://www.w3.org/1999/xlink"><g><path d="M20.7,16.8c-0.3-0.1-2.5-1.1-2.5-3.9c0-2.2,1.5-3.3,2.1-3.7c0.1-0.1,0.2-0.2,0.2-0.3c0-0.1,0-0.3-0.1-0.4   c-1.4-2.1-3.6-2.3-4.2-2.3c-1.1-0.1-2.2,0.3-3,0.6c-0.4,0.2-0.8,0.3-1.1,0.3c-0.3,0-0.7-0.2-1.1-0.3c-0.7-0.3-1.5-0.6-2.4-0.6   c0,0,0,0,0,0c-1.9,0-3.8,1.2-4.8,2.9C2,12.6,3.2,17.6,5.2,20.6c0.8,1.2,2,2.9,3.7,2.9c0,0,0.1,0,0.1,0c0.7,0,1.2-0.2,1.7-0.5   c0.5-0.2,1-0.4,1.7-0.4c0.7,0,1.2,0.2,1.6,0.4c0.5,0.2,1,0.4,1.8,0.4c0,0,0,0,0,0c1.7,0,2.8-1.6,3.6-2.9c0.9-1.3,1.4-2.7,1.5-3.2   C21.1,17.2,21,16.9,20.7,16.8z"/><path d="M14.9,3.3C15.6,2.5,16,1.5,16,0.5c-0.9,0.2-1.9,0.8-2.5,1.5c-0.5,0.6-1.1,1.7-1.1,2.8C13.3,4.7,14.3,4.1,14.9,3.3z"/></g></svg>