<?xml version="1.0" ?><svg viewBox="0 0 512 512" xmlns="http://www.w3.org/2000/svg"><title/><g data-name="1" id="_1"><path d="M413,353.15H97.24a43.15,43.15,0,0,1-43.11-43.1V100.36A43.16,43.16,0,0,1,97.24,57.25H413a43.15,43.15,0,0,1,43.1,43.11V310.05A43.14,43.14,0,0,1,413,353.15ZM97.24,87.25a13.12,13.12,0,0,0-13.11,13.11V310.05a13.12,13.12,0,0,0,13.11,13.1H413a13.12,13.12,0,0,0,13.1-13.1V100.36A13.12,13.12,0,0,0,413,87.25Z"/><path d="M324.13,405.65h-138a15,15,0,0,1-14-20.34l20-52.5a15,15,0,0,1,14-9.66h98a15,15,0,0,1,14,9.66l20,52.5a15,15,0,0,1-14,20.34Zm-116.23-30h94.46l-8.57-22.5H216.48Z"/><path d="M354.61,405.65h-199a15,15,0,1,1,0-30h199a15,15,0,0,1,0,30Z"/><path d="M441.13,303.66h-372a15,15,0,1,1,0-30h372a15,15,0,0,1,0,30Z"/></g></svg>