<svg xmlns="http://www.w3.org/2000/svg" viewBox="0 0 50 50"><defs><style>.cls-1{fill:#222529;}</style></defs><title>Asset 1</title><g id="Layer_2" data-name="Layer 2"><g id="Icon"><path class="cls-1" d="M25,0A25,25,0,1,0,50,25,25,25,0,0,0,25,0Zm0,1.9A23.09,23.09,0,0,1,46.78,32.68a47.63,47.63,0,0,0-6.27-2.54,3.34,3.34,0,0,1-.77-.35,2,2,0,0,1,0-.47,10.56,10.56,0,0,0,4.65-2.17,1,1,0,0,0,.31-1,1,1,0,0,0-.7-.7c-.39-.2-1.38-1.57-1.38-5.73,0-4.32-3-7.7-6.83-7.7a6.32,6.32,0,0,0-2.59.59c-.23-3-1.74-3.87-3.2-4C29.09,7.46,27.73,7,25.45,7a9,9,0,0,0-3.64.86,6.71,6.71,0,0,1-2.68.67c-.57,0-1.58.25-2,1.89a10.06,10.06,0,0,0-.28,2.27l-.13,0A6.94,6.94,0,0,0,13.91,12a5.3,5.3,0,0,0-3.86,1.15c-2.11.29-2.11,2.44-2.11,3.76,0,.62.06,1.62.11,2.43,0,.27,0,.52,0,.71a3.46,3.46,0,0,0-.63,3.05,3.92,3.92,0,0,0,1.6,2.42l.21.11a11.85,11.85,0,0,0,1,2.43v1.1a5.08,5.08,0,0,1,0,.61,2.25,2.25,0,0,1-.78.37,48.43,48.43,0,0,0-6.27,2.54A23.09,23.09,0,0,1,25,1.9ZM41.72,36.73c-1.26-1.38-3.92-2.69-9.78-4.81a2.42,2.42,0,0,0,1.88-2.76V28.4a1,1,0,0,0-1-1,5.7,5.7,0,0,1-2-.43c.27-.68.5-1.38.66-1.91a2.78,2.78,0,0,0,.39-.19,5,5,0,0,0,2-3.09A4.29,4.29,0,0,0,33,17.84c0-.32,0-.76.07-1.17,0-.56.07-1.18.1-1.77a4.41,4.41,0,0,1,2.61-.9c2.34,0,4.83,2,4.83,5.7s.73,5.63,1.47,6.62a6.82,6.82,0,0,1-3.35,1.08,1,1,0,0,0-1,1v.76c0,1.55.32,2.21,2.13,2.86A43.8,43.8,0,0,1,46,34.56a23.2,23.2,0,0,1-2.88,4.72A7.65,7.65,0,0,0,41.72,36.73Zm-9.9-7.41a2.51,2.51,0,0,1,0,.45,2.25,2.25,0,0,1-.78.37l-1,.36c0-.1,0-.2,0-.32V28.81A8.18,8.18,0,0,0,31.82,29.32Zm-25,10A23.2,23.2,0,0,1,4,34.56,43.8,43.8,0,0,1,10.16,32c1.81-.65,2.13-1.31,2.13-2.86V27.73A1.16,1.16,0,0,0,12,27a10.54,10.54,0,0,1-1-2.53,1.05,1.05,0,0,0-1-.73,2,2,0,0,1-.65-1.13,1.69,1.69,0,0,1,.1-1.17c.66-.24.62-.8.53-2.26-.05-.78-.11-1.76-.11-2.31,0-1.79.13-1.79.62-1.79a1,1,0,0,0,.85-.49c.15-.23.83-.63,2.5-.63a5,5,0,0,1,2,.5c.29.11.59.23.9.33,0,1,.11,2,.15,2.66,0,.14,0,.26,0,.36a4.36,4.36,0,0,0-.85,3.92,5.45,5.45,0,0,0,1.36,2.57.67.67,0,0,0-.07.17,11.13,11.13,0,0,1-1,2.52,1,1,0,0,0-.28.7v1.43a2.42,2.42,0,0,0,1.88,2.76C12.2,34,9.54,35.35,8.28,36.73A7.65,7.65,0,0,0,6.86,39.28ZM19,30.14a3.34,3.34,0,0,1-.77-.35,3.77,3.77,0,0,1,0-.63v-1.1A10,10,0,0,0,19,26.29a11.08,11.08,0,0,0,1,2.26v1.63c0,.12,0,.22,0,.32Zm6,18a23,23,0,0,1-16.58-7,6.84,6.84,0,0,1,1.35-3c1-1.09,3.7-2.38,9.1-4.33,1.89-.68,3.13-1.3,3.13-3.57v-2a1,1,0,0,0-.28-.7A14.49,14.49,0,0,1,20.3,23.9a1,1,0,0,0-1.07-.73,3,3,0,0,1-1.13-1.84,2.55,2.55,0,0,1,.26-2c.73-.23.69-.79.62-2-.07-1-.18-2.73-.18-4a7.07,7.07,0,0,1,.33-2.8,8.65,8.65,0,0,0,3.43-.82A7.11,7.11,0,0,1,25.45,9c2.49,0,2.88.65,3.12,1a1,1,0,0,0,.86.49c.66,0,1.77,0,1.77,2.83,0,.78-.08,2.11-.15,3.19-.13,2.16-.16,2.55.59,2.77a2.53,2.53,0,0,1,.26,2,3,3,0,0,1-1.13,1.84,1,1,0,0,0-1.07.73,14.83,14.83,0,0,1-1.42,3.62,1,1,0,0,0-.28.7v2c0,2.27,1.24,2.89,3.13,3.57,5.4,2,8.12,3.24,9.1,4.33a6.84,6.84,0,0,1,1.35,3A23,23,0,0,1,25,48.1Z"/></g></g></svg>