<svg xmlns="http://www.w3.org/2000/svg" viewBox="0 0 52 52"><defs><style>.cls-1{fill:#881cf9;}.cls-2{fill:none;stroke:#881cf9;stroke-miterlimit:10;stroke-width:2px;}</style></defs><title>Asset 3</title><g id="Layer_2" data-name="Layer 2"><g id="Layer_1-2" data-name="Layer 1"><path class="cls-1" d="M32,27a5,5,0,0,0-4.41,2.7L23,28.38c0-.13,0-.25,0-.38a4.93,4.93,0,0,0-.62-2.35l4.52-3.76A5,5,0,0,0,30,23a5,5,0,1,0-5-5,4.9,4.9,0,0,0,.62,2.35L21.1,24.11A5,5,0,0,0,18,23a5,5,0,1,0,4.41,7.3L27,31.62c0,.13,0,.25,0,.38a5,5,0,1,0,5-5ZM30,15a3,3,0,1,1-3,3A3,3,0,0,1,30,15ZM18,31a3,3,0,1,1,3-3A3,3,0,0,1,18,31Zm14,4a3,3,0,1,1,3-3A3,3,0,0,1,32,35Z"/><circle class="cls-2" cx="26" cy="26" r="25"/></g></g></svg>