<?xml version="1.0" ?><!DOCTYPE svg  PUBLIC '-//W3C//DTD SVG 1.1//EN'  'http://www.w3.org/Graphics/SVG/1.1/DTD/svg11.dtd'><svg height="512px" style="enable-background:new 0 0 512 512;" version="1.1" viewBox="0 0 512 512" width="512px" xml:space="preserve" xmlns="http://www.w3.org/2000/svg" xmlns:xlink="http://www.w3.org/1999/xlink"><g id="comp_x5F_340-tripadvisor"><g><path d="M158.889,275.584c0,10.57-8.569,19.137-19.14,19.137c-10.569,0-19.139-8.566-19.139-19.137    c0-10.572,8.569-19.141,19.139-19.141C150.32,256.443,158.889,265.012,158.889,275.584z M370.49,256.452    c-10.565,0-19.132,8.564-19.132,19.132c0,10.564,8.566,19.128,19.132,19.128s19.132-8.563,19.132-19.128    C389.621,265.016,381.056,256.452,370.49,256.452z M441.876,367.849c-50.046,39.216-122.406,30.435-161.622-19.614l-24.74,36.996    l-24.504-36.688c-38.553,48.229-108.308,57.415-158.031,20.808c-51.157-37.66-62.1-109.661-24.438-160.817    C43.697,192.141,36.073,176.705,26,162.895l72.103-0.04c47.163-29.347,101.844-44.338,157.379-43.149    c54.205-0.967,107.525,13.835,153.478,42.605l76.84,0.059c-10.165,13.916-17.827,29.494-22.642,46.04    C500.526,258.52,491.08,329.295,441.876,367.849z M233.132,276.572c-0.004-50.757-41.156-91.898-91.913-91.894    c-50.756,0.006-91.899,41.157-91.894,91.912c0.005,50.758,41.156,91.901,91.914,91.896c50.721-0.059,91.826-41.158,91.894-91.881    V276.572z M255.965,268.223c4.339-58.649,52.318-104.524,111.104-106.231c-35.203-15.221-73.239-22.792-111.588-22.211    c-38.399-0.372-76.475,7.032-111.936,21.765C202.916,162.809,251.595,209.001,255.965,268.223L255.965,268.223z M456.981,245.25    c-17.563-47.623-70.408-71.993-118.031-54.43c-47.625,17.562-71.993,70.404-54.431,118.029v0.025    c17.6,47.602,70.436,71.948,118.055,54.396C450.184,345.696,474.54,292.864,456.981,245.25L456.981,245.25z M196.603,275.577    v0.091c-0.045,31.409-25.545,56.832-56.952,56.787c-31.408-0.045-56.832-25.545-56.786-56.953    c0.045-31.407,25.544-56.831,56.951-56.785C171.169,218.811,196.552,244.226,196.603,275.577L196.603,275.577z M177.027,275.577    v-0.068c-0.041-20.59-16.766-37.25-37.358-37.208c-20.591,0.041-37.251,16.766-37.21,37.356    c0.04,20.59,16.767,37.25,37.356,37.211C160.361,312.776,176.98,296.121,177.027,275.577z M427.329,275.577v0.038    c-0.016,31.406-25.488,56.857-56.898,56.84c-31.407-0.017-56.855-25.49-56.839-56.899c0.016-31.406,25.489-56.856,56.898-56.838    C401.868,218.771,427.288,244.201,427.329,275.577z M407.76,275.57c-0.006-20.591-16.705-37.278-37.295-37.27    c-20.592,0.007-37.279,16.705-37.272,37.295c0.008,20.592,16.705,37.277,37.297,37.271c20.577-0.036,37.245-16.713,37.271-37.29    V275.57L407.76,275.57z"/></g></g><g id="Layer_1"/></svg>