<?xml version="1.0" ?><svg id="Layer_1_1_" style="enable-background:new 0 0 64 64;" version="1.1" viewBox="0 0 64 64" xml:space="preserve" xmlns="http://www.w3.org/2000/svg" xmlns:xlink="http://www.w3.org/1999/xlink"><g><path d="M33,40h-8.35c-0.826-2.327-3.043-4-5.65-4c-3.309,0-6,2.691-6,6s2.691,6,6,6   c0.341,0,0.674-0.035,1-0.09V51h13V40z M19,46c-2.206,0-4-1.794-4-4s1.794-4,4-4c1.474,0,2.75,0.81,3.444,2H20v5.858   C19.678,45.942,19.347,46,19,46z M23,42c0,1.005-0.385,1.914-1,2.618V42H23z M31,49h-9v-1.812c1.79-1.039,3-2.973,3-5.188h6V49z"/><path d="M22.94,18.045C21.673,16.782,19.926,16,18,16c-3.86,0-7,3.14-7,7s3.14,7,7,7s7-3.14,7-7   c0-1.215-0.312-2.359-0.859-3.356L26.333,18H37v-2H25.667L22.94,18.045z M22.339,25.437L19,23.434v-5.333   c2.279,0.465,4,2.484,4,4.899C23,23.889,22.747,24.713,22.339,25.437z M13,23c0-2.414,1.721-4.434,4-4.899v6.465l4.006,2.403   C20.166,27.607,19.133,28,18,28C15.243,28,13,25.757,13,23z"/><rect height="2" width="2" x="35" y="20"/><rect height="2" width="5" x="28" y="20"/><path d="M60.575,28.839L62.414,27L58,22.586l-1.839,1.839C53.729,22.843,50.922,22,48,22   c-1.027,0-2.03,0.105-3,0.302V7h-8V3h-9.11C26.584,1.724,24.827,1,23,1s-3.584,0.724-4.89,2H9v4H1v56h44V51.698   C45.97,51.895,46.973,52,48,52c8.271,0,15-6.729,15-15C63,34.079,62.157,31.271,60.575,28.839z M59.586,27L44,42.586L38.414,37   L40,35.414l4,4l14-14L59.586,27z M43,9v13.875c-0.651,0.231-1.283,0.5-1.889,0.815V11H37V9H43z M33.875,32H9v23h22v-2H11V34h22.302   C33.105,34.97,33,35.973,33,37c0,2.713,0.735,5.253,2,7.451V53h-2v2h4v-7.837c0.643,0.695,1.349,1.328,2.111,1.891V57H6.889V13H9v1   h28v-1h2.111v11.945C36.726,26.709,34.886,29.155,33.875,32z M11,5h7.983l0.298-0.332C20.232,3.608,21.587,3,23,3   s2.768,0.608,3.719,1.668L27.017,5H35v6v1H11V9V7V5z M43,61H3V9h6v2H4.889v48h36.223v-8.69c0.606,0.315,1.238,0.584,1.889,0.815V61   z M48,50c-2.531,0-4.889-0.739-6.889-1.995V48h-0.008C37.444,45.698,35,41.634,35,37c0-7.168,5.832-13,13-13   c2.39,0,4.693,0.647,6.715,1.871L44,36.586l-4-4L35.586,37L44,45.414l15.129-15.129C60.353,32.308,61,34.611,61,37   C61,44.168,55.168,50,48,50z"/></g></svg>