<?xml version="1.0" ?><svg id="Layer_1_1_" style="enable-background:new 0 0 64 64;" version="1.1" viewBox="0 0 64 64" xml:space="preserve" xmlns="http://www.w3.org/2000/svg" xmlns:xlink="http://www.w3.org/1999/xlink"><g><path d="M58,17h-7.266c-0.687-4.274-2.797-8.234-6.065-11.161C40.59,2.188,35.318,0.516,29.832,1.12   C21.439,2.051,14.569,8.743,13.237,17H6c-2.757,0-5,2.243-5,5v36c0,2.757,2.243,5,5,5h52c2.757,0,5-2.243,5-5V22   C63,19.243,60.757,17,58,17z M53,19v42H11V19h2.037c-0.447,8.698,4.888,16.435,13.147,19.078l2.313,8.265   C28.936,47.908,30.375,49,32,49s3.064-1.092,3.502-2.656l2.313-8.266C45.606,35.572,51,28.219,51,20c0-0.336-0.036-0.667-0.053-1   H53z M15.043,18.787c0.557-8.051,7.01-14.792,15.01-15.679c0.661-0.074,1.318-0.11,1.971-0.11c4.194,0,8.152,1.503,11.312,4.331   C46.935,10.553,49,15.171,49,20c0,7.521-5.049,14.232-12.277,16.32l-0.535,0.155l-2.611,9.33C33.379,46.509,32.731,47,32,47   s-1.379-0.491-1.576-1.195l-2.611-9.33l-0.535-0.155C19.514,34.078,14.482,26.868,15.043,18.787z M3,58V22c0-1.654,1.346-3,3-3h3   v42H6C4.346,61,3,59.654,3,58z M61,58c0,1.654-1.346,3-3,3h-3V19h3c1.654,0,3,1.346,3,3V58z"/><path d="M46,41c-2.757,0-5,2.243-5,5s2.243,5,5,5s5-2.243,5-5S48.757,41,46,41z M46,49c-1.654,0-3-1.346-3-3   s1.346-3,3-3s3,1.346,3,3S47.654,49,46,49z"/><path d="M18,41c-2.757,0-5,2.243-5,5s2.243,5,5,5s5-2.243,5-5S20.757,41,18,41z M18,49c-1.654,0-3-1.346-3-3   s1.346-3,3-3s3,1.346,3,3S19.654,49,18,49z"/><rect height="8" width="2" x="57" y="36"/><path d="M32,35c8.271,0,15-6.729,15-15S40.271,5,32,5s-15,6.729-15,15S23.729,35,32,35z M32,33   c-2.03,0-3.945-0.481-5.659-1.314l5.932-10.17l9.112,7.455C39.017,31.448,35.689,33,32,33z M45,20c0,2.761-0.872,5.319-2.345,7.426   L33,19.526V7.051C39.701,7.565,45,13.169,45,20z M31,7.051v12.678l-6.39,10.953C21.225,28.333,19,24.424,19,20   C19,13.169,24.299,7.565,31,7.051z"/><path d="M21.625,55.917c0.544,0.394,1.12,0.755,1.715,1.074l0.945-1.763   c-0.516-0.276-1.016-0.59-1.486-0.931L21.625,55.917z"/><path d="M25.175,57.827c0.618,0.235,1.263,0.437,1.916,0.6l0.484-1.94c-0.577-0.144-1.146-0.322-1.689-0.528   L25.175,57.827z"/><path d="M18.71,53.108c0.416,0.531,0.873,1.038,1.36,1.506l1.387-1.44c-0.42-0.404-0.814-0.841-1.173-1.299   L18.71,53.108z"/><path d="M39.739,55.215l0.947,1.761c0.595-0.32,1.172-0.683,1.714-1.078l-1.178-1.616   C40.753,54.624,40.254,54.938,39.739,55.215z"/><path d="M42.562,53.155l1.389,1.438c0.489-0.472,0.946-0.98,1.358-1.511l-1.58-1.227   C43.376,52.311,42.983,52.748,42.562,53.155z"/><path d="M36.45,56.479l0.488,1.939c0.656-0.165,1.3-0.368,1.914-0.603l-0.715-1.868   C37.597,56.155,37.029,56.333,36.45,56.479z"/><path d="M32.915,56.98l0.088,1.998c0.671-0.029,1.336-0.09,1.976-0.179l-0.277-1.98   C34.124,56.899,33.523,56.953,32.915,56.98z"/><path d="M29.052,58.804c0.639,0.088,1.303,0.147,1.976,0.176l0.084-1.998   c-0.608-0.026-1.21-0.08-1.786-0.159L29.052,58.804z"/></g></svg>