<?xml version="1.0" ?><svg id="Layer_1_1_" style="enable-background:new 0 0 64 64;" version="1.1" viewBox="0 0 64 64" xml:space="preserve" xmlns="http://www.w3.org/2000/svg" xmlns:xlink="http://www.w3.org/1999/xlink"><g><path d="M53,17V6c0-2.757-2.243-5-5-5H6C3.243,1,1,3.243,1,6v26c0,2.757,2.243,5,5,5h5v4H9v2h20v20h34V17H53   z M3.184,33H25v-2H3V6c0-1.654,1.346-3,3-3h42c1.654,0,3,1.346,3,3v11H29v14h-2v2h2v2H6C4.698,35,3.598,34.161,3.184,33z M13,41v-4   h16v4H13z M61,61H31V19h30V61z"/><path d="M59,21H33v10h26V21z M57,29H35v-6h22V29z"/><path d="M30.266,7H49V5H29.734l-6.142,3.51C21.757,6.366,19.037,5,16,5C10.486,5,6,9.486,6,15   s4.486,10,10,10s10-4.486,10-10c0-1.757-0.459-3.407-1.258-4.844L30.266,7z M8,15c0-3.719,2.555-6.845,6-7.737v8.057l5.051,7.072   C18.11,22.782,17.08,23,16,23C11.589,23,8,19.411,8,15z M20.793,21.39L16,14.68V7c4.411,0,8,3.589,8,8   C24,17.612,22.736,19.929,20.793,21.39z"/><rect height="2" width="12" x="30" y="9"/><rect height="2" width="5" x="44" y="9"/><path d="M45,33H33v12h12V33z M43,43h-8v-8h8V43z"/><polygon points="38,41 40,41 40,40 41,40 41,38 40,38 40,37 38,37 38,38 37,38 37,40 38,40  "/><path d="M47,45h12V33H47V45z M49,35h8v8h-8V35z"/><rect height="2" width="4" x="51" y="38"/><path d="M45,47H33v12h12V47z M43,57h-8v-8h8V57z"/><polygon points="38.293,55.121 39,54.414 39.707,55.121 41.121,53.707 40.414,53 41.121,52.293    39.707,50.879 39,51.586 38.293,50.879 36.879,52.293 37.586,53 36.879,53.707  "/><path d="M47,59h12V47H47V59z M49,49h8v8h-8V49z"/><rect height="2" width="4" x="51" y="54"/><rect height="2" width="4" x="51" y="50"/></g></svg>