<?xml version="1.0" ?><svg id="Layer_1_1_" style="enable-background:new 0 0 64 64;" version="1.1" viewBox="0 0 64 64" xml:space="preserve" xmlns="http://www.w3.org/2000/svg" xmlns:xlink="http://www.w3.org/1999/xlink"><g><path d="M51,27H5v32h46V27z M49,57H7V29h42V57z"/><path d="M13,55c2.206,0,4-1.794,4-4c0-1.026-0.399-1.953-1.037-2.662l5.743-9.571   C22.114,38.907,22.545,39,23,39c0.469,0,0.913-0.096,1.331-0.245l6.269,7.164C30.227,46.527,30,47.235,30,48c0,2.206,1.794,4,4,4   s4-1.794,4-4c0-0.793-0.239-1.528-0.638-2.15l5.173-6.897C42.69,38.971,42.841,39,43,39c2.206,0,4-1.794,4-4s-1.794-4-4-4   s-4,1.794-4,4c0,1.306,0.638,2.457,1.609,3.188l-4.728,6.304C35.318,44.188,34.684,44,34,44c-0.714,0-1.375,0.203-1.955,0.532   l-6.047-6.911C26.614,36.917,27,36.007,27,35c0-2.206-1.794-4-4-4s-4,1.794-4,4c0,1.026,0.399,1.953,1.037,2.662l-5.743,9.571   C13.886,47.093,13.455,47,13,47c-2.206,0-4,1.794-4,4S10.794,55,13,55z M43,33c1.103,0,2,0.897,2,2s-0.897,2-2,2s-2-0.897-2-2   S41.897,33,43,33z M36,48c0,1.103-0.897,2-2,2s-2-0.897-2-2s0.897-2,2-2S36,46.897,36,48z M23,33c1.103,0,2,0.897,2,2s-0.897,2-2,2   s-2-0.897-2-2S21.897,33,23,33z M13,49c1.103,0,2,0.897,2,2s-0.897,2-2,2s-2-0.897-2-2S11.897,49,13,49z"/><path d="M49.414,1H19v22H1v40h54h8V14.586L49.414,1z M50,23v-7h7v21h-2V23H50z M40,23h-2v-9h2V23z M36,12v11   h-2v-9h-6v9h-3V7h23v3h-4v13h-2V12H36z M32,23h-2v-7h2V23z M46,12h2v4v7h-2V12z M50,14v-4V4.414L59.586,14H50z M21,3h27v2H23v18h-2   V3z M53,61H3V25h50V61z M61,61h-6V39h4V16h2V61z"/><rect height="2" width="2" x="3" y="19"/><rect height="2" width="2" x="3" y="15"/><rect height="2" width="2" x="3" y="11"/><rect height="2" width="2" x="3" y="7"/><rect height="2" width="2" x="7" y="7"/><rect height="2" width="2" x="11" y="7"/><rect height="2" width="2" x="15" y="7"/><rect height="2" width="2" x="45" y="53"/><rect height="2" width="2" x="41" y="53"/><rect height="2" width="2" x="45" y="49"/></g></svg>