<?xml version="1.0" ?><svg id="Layer_1_1_" style="enable-background:new 0 0 64 64;" version="1.1" viewBox="0 0 64 64" xml:space="preserve" xmlns="http://www.w3.org/2000/svg" xmlns:xlink="http://www.w3.org/1999/xlink"><g><path d="M45,21.24V1H6C3.243,1,1,3.243,1,6v43c0,2.757,2.243,5,5,5h18.791c3.8,5.432,10.091,9,17.209,9   c11.58,0,21-9.42,21-21C63,31.442,55.16,22.703,45,21.24z M6,3h37v18.051C42.666,21.035,42.338,21,42,21s-0.666,0.035-1,0.051V5H5   v26h19.145C22.164,34.204,21,37.964,21,42c0,0.675,0.039,1.341,0.101,2H6c-1.13,0-2.162,0.391-3,1.026V6C3,4.346,4.346,3,6,3z    M26,21c1.103,0,2,0.897,2,2s-0.897,2-2,2s-2-0.897-2-2S24.897,21,26,21z M28.981,20.359l2.7-3.6C32.096,16.905,32.535,17,33,17   c2.206,0,4-1.794,4-4s-1.794-4-4-4s-4,1.794-4,4c0,1.016,0.393,1.935,1.019,2.641l-2.7,3.6C26.904,19.095,26.465,19,26,19   s-0.904,0.095-1.319,0.241l-2.7-3.6C22.607,14.935,23,14.016,23,13c0-2.206-1.794-4-4-4s-4,1.794-4,4   c0,1.016,0.393,1.935,1.019,2.641l-2.555,3.406C13.31,19.029,13.159,19,13,19c-2.206,0-4,1.794-4,4s1.794,4,4,4s4-1.794,4-4   c0-1.306-0.638-2.457-1.609-3.188l2.29-3.054C18.096,16.905,18.535,17,19,17s0.904-0.095,1.319-0.241l2.7,3.6   C22.393,21.065,22,21.984,22,23c0,2.206,1.794,4,4,4c0.674,0,1.301-0.184,1.859-0.48c-0.837,0.765-1.615,1.59-2.319,2.48H7V7h32   v14.24c-3.668,0.528-7.028,2-9.831,4.173C29.683,24.74,30,23.91,30,23C30,21.984,29.607,21.065,28.981,20.359z M31,13   c0-1.103,0.897-2,2-2s2,0.897,2,2s-0.897,2-2,2S31,14.103,31,13z M17,13c0-1.103,0.897-2,2-2s2,0.897,2,2s-0.897,2-2,2   S17,14.103,17,13z M15,23c0,1.103-0.897,2-2,2s-2-0.897-2-2s0.897-2,2-2S15,21.897,15,23z M6,52c-1.654,0-3-1.346-3-3s1.346-3,3-3   h15.393c0.413,2.131,1.139,4.15,2.145,6H6z M42,61c-10.477,0-19-8.523-19-19s8.523-19,19-19s19,8.523,19,19S52.477,61,42,61z"/><path d="M42,25c-9.374,0-17,7.626-17,17s7.626,17,17,17s17-7.626,17-17S51.374,25,42,25z M42,57   c-8.271,0-15-6.729-15-15s6.729-15,15-15s15,6.729,15,15S50.271,57,42,57z"/><path d="M47,32h-4v-3h-2v3h-4c-2.757,0-5,2.243-5,5v1c0,2.757,2.243,5,5,5h10c1.654,0,3,1.346,3,3v1   c0,1.654-1.346,3-3,3H37c-1.654,0-3-1.346-3-3v-2h-2v2c0,2.757,2.243,5,5,5h4v3h2v-3h4c2.757,0,5-2.243,5-5v-1c0-2.757-2.243-5-5-5   H37c-1.654,0-3-1.346-3-3v-1c0-1.654,1.346-3,3-3h10c1.654,0,3,1.346,3,3v2h2v-2C52,34.243,49.757,32,47,32z"/><rect height="2" width="2" x="5" y="48"/><rect height="2" width="11" x="9" y="48"/></g></svg>