<?xml version="1.0" ?><svg id="Layer_1_1_" style="enable-background:new 0 0 64 64;" version="1.1" viewBox="0 0 64 64" xml:space="preserve" xmlns="http://www.w3.org/2000/svg" xmlns:xlink="http://www.w3.org/1999/xlink"><g><path d="M51.44,10H28v0.081C25.874,8.172,23.075,7,20,7C13.383,7,8,12.383,8,19   c0,4.314,2.284,8.238,6,10.383V31h-2v2h2v4h5v26h44V22.611L51.44,10z M52,13.571L59.727,22H52V13.571z M15.456,27.898   C12.09,26.177,10,22.767,10,19c0-5.514,4.486-10,10-10s10,4.486,10,10c0,3.767-2.09,7.177-5.456,8.898L24,28.178V31h-3v-8.142   c1.72-0.447,3-1.999,3-3.858c0-2.206-1.794-4-4-4s-4,1.794-4,4c0,1.859,1.28,3.411,3,3.858V31h-3v-2.822L15.456,27.898z M20,21   c-1.103,0-2-0.897-2-2s0.897-2,2-2s2,0.897,2,2S21.103,21,20,21z M16,35v-2h8v2h-3h-2H16z M21,61V37h5v-4h2v-2h-2v-1.617   c3.716-2.145,6-6.068,6-10.383c0-2.614-0.849-5.027-2.273-7H50v12h11v37H21z"/><path d="M53,59h6V26h-6V59z M55,28h2v29h-2V28z"/><polygon points="45,59 51,59 51,42 49,42 49,57 47,57 47,38 49,38 49,40 51,40 51,36 45,36  "/><path d="M37,59h6V33h-6V59z M39,35h2v22h-2V35z"/><polygon points="29,53 31,53 31,44 33,44 33,57 31,57 31,55 29,55 29,59 35,59 35,42 29,42  "/><rect height="2" width="4" x="2" y="18"/><rect height="2" transform="matrix(0.7071 -0.7071 0.7071 0.7071 -18.8907 15.0207)" width="4" x="6.686" y="29.314"/><rect height="4" transform="matrix(0.707 -0.7072 0.7072 0.707 -12.2632 31.0245)" width="2" x="30.314" y="28.314"/><rect height="2" width="4" x="34" y="18"/><rect height="2" transform="matrix(0.7071 -0.7071 0.7071 0.7071 3.7364 24.3935)" width="4" x="29.314" y="6.687"/><rect height="4" width="2" x="19" y="1"/><rect height="4" transform="matrix(0.707 -0.7072 0.7072 0.707 -2.891 8.3945)" width="2" x="7.686" y="5.687"/></g></svg>