<?xml version="1.0" encoding="utf-8"?>
<svg version="1.1" id="Layer_1" xmlns="http://www.w3.org/2000/svg" xmlns:xlink="http://www.w3.org/1999/xlink" x="0px" y="0px" viewBox="0 0 330 433" style="enable-background:new 0 0 330 433;" xml:space="preserve">
	<path d="M165,414.2c-2.6,0-5.1-0.7-7.3-1.9C68.3,362.4,13,268.1,13,165.8c0-2.1,0-4.1,0.1-6.1c1-45.5,17.9-83.8,49-110.8
		C89.5,25.1,126.1,12,165,12s75.5,13.1,102.9,36.9c31.1,27,48.1,65.3,49,110.8l0,0c0,2,0.1,4.1,0.1,6.1c0,51-13.8,101.1-40,144.9
		c-25.4,42.4-61.5,77.4-104.6,101.6C170.1,413.5,167.6,414.2,165,414.2z M165,42c-31.7,0-61.3,10.5-83.3,29.6
		c-24.5,21.3-37.9,51.9-38.7,88.7c0,1.8-0.1,3.7-0.1,5.5c0,88.4,46.3,170.4,122,216c35.4-21.4,65-51.1,86.3-86.6
		c23.4-39.1,35.7-83.8,35.7-129.4c0-1.8,0-3.7-0.1-5.5c-0.8-36.8-14.2-67.5-38.7-88.7C226.3,52.5,196.7,42,165,42z"/>
	<path d="M165.4,260.6c-52.1,0-94.3-42.2-94.3-94.3S113.3,72,165.4,72s94.3,42.2,94.3,94.3C259.7,218.3,217.5,260.5,165.4,260.6z
		 M165.4,102c-35.5,0-64.3,28.8-64.3,64.3s28.8,64.3,64.3,64.3s64.3-28.8,64.3-64.3c0,0,0,0,0,0C229.6,130.8,200.9,102,165.4,102
		L165.4,102z"/>
</svg>
