<?xml version="1.0" ?><svg id="Layer_1" style="enable-background:new 0 0 74 74;" version="1.1" viewBox="0 0 74 74" xml:space="preserve" xmlns="http://www.w3.org/2000/svg" xmlns:xlink="http://www.w3.org/1999/xlink"><style type="text/css">
	.st0{fill:#2B3033;}
</style><g><path class="st0" d="M71,47.6h-1.1V5H71c1.1,0,2-0.9,2-2s-0.9-2-2-2H3C1.9,1,1,1.9,1,3s0.9,2,2,2h1.1v42.6H3c-1.1,0-2,0.9-2,2   s0.9,2,2,2h32v4.7L19.4,69.5c-0.8,0.7-1,2-0.2,2.8c0.7,0.8,2,1,2.8,0.2l13.1-11v8.3c0,1.1,0.9,2,2,2s2-0.9,2-2v-8.3l13.1,11   c0.4,0.3,0.8,0.5,1.3,0.5c0.6,0,1.1-0.2,1.5-0.7c0.7-0.8,0.6-2.1-0.2-2.8L39,56.3v-4.7h32c1.1,0,2-0.9,2-2S72.1,47.6,71,47.6z    M8.1,5h57.9v42.6H8.1V5z"/><path class="st0" d="M50.1,22.2c-0.6,0.9-0.3,2.2,0.7,2.7c0.3,0.2,0.7,0.3,1,0.3c0.7,0,1.3-0.3,1.7-1l5-8.2c0.3-0.5,0.4-1,0.2-1.5   c-0.1-0.5-0.5-1-0.9-1.2l-8.2-5c-0.9-0.6-2.2-0.3-2.7,0.7c-0.6,0.9-0.3,2.2,0.7,2.7l3.9,2.3c-25.4,6.2-33.2,25.2-33.6,26   c-0.4,1,0.1,2.2,1.1,2.6c0.2,0.1,0.5,0.1,0.7,0.1c0.8,0,1.5-0.5,1.9-1.3c0.3-0.8,7.6-18.1,31.1-23.7L50.1,22.2z"/><path class="st0" d="M48.9,34.6c0-4.1-3.3-7.4-7.4-7.4s-7.4,3.3-7.4,7.4s3.3,7.4,7.4,7.4S48.9,38.6,48.9,34.6z M38.2,34.6   c0-1.9,1.5-3.4,3.4-3.4c1.9,0,3.4,1.5,3.4,3.4s-1.5,3.4-3.4,3.4C39.7,37.9,38.2,36.4,38.2,34.6z"/><path class="st0" d="M19.7,25.2c1.1,0,2-0.9,2-2v-2.9h2.9c1.1,0,2-0.9,2-2s-0.9-2-2-2h-2.9v-2.9c0-1.1-0.9-2-2-2s-2,0.9-2,2v2.9   h-2.9c-1.1,0-2,0.9-2,2s0.9,2,2,2h2.9v2.9C17.7,24.3,18.6,25.2,19.7,25.2z"/></g></svg>