<svg version="1.1" xmlns="http://www.w3.org/2000/svg" xmlns:xlink="http://www.w3.org/1999/xlink" x="0px" y="0px" viewBox="0 0 1145.86 508.13" style="enable-background:new 0 0 1145.86 508.13;" xml:space="preserve">
    <g>
        <path d="M13.87,32.36c1.07,0.55,2.37-0.28,2.4-1.49c0.04-1.58,0.27-2.87,0.5-3.82c0.56-2.35,1.48-4.1,2.65-6.33
            c1.7-3.25,1.95-2.85,2.46-4.35c1.47-4.3-0.36-8.19-0.47-8.41c-0.36-0.74-1.54-3.15-4.06-4.44c-3.71-1.9-8.87-0.94-11.91,2.46
            c-2.64,2.95-3.08,7.05-2.08,9.92c0.25,0.71,1.6,2.01,3.64,4.75c3.62,4.87,3.42,4.53,4.11,6.02c1.3,2.83,1.07,4.78,2.74,5.67
            C13.85,32.35,13.86,32.36,13.87,32.36z"/>
        <circle fill="#FFF" cx="12.65" cy="12.54" r="6.34"/>
        <circle cx="12.65" cy="12.54" r="4.29"/>
        <circle fill="#FFF" cx="12.65" cy="12.54" r="2.44"/>
    </g>
    <g>
        <path d="M1121.72,505.34c0.44,1.12,1.97,1.35,2.79,0.47c1.08-1.16,2.1-1.98,2.9-2.54c1.98-1.4,3.82-2.11,6.17-3.01
            c3.43-1.32,3.35-0.86,4.71-1.64c3.94-2.26,5.13-6.39,5.19-6.63c0.22-0.79,0.92-3.38-0.12-6.02c-1.53-3.87-6.04-6.56-10.57-6.01
            c-3.93,0.47-6.97,3.27-8.11,6.08c-0.28,0.69-0.12,2.56-0.4,5.97c-0.49,6.05-0.42,5.66-0.89,7.24c-0.89,2.98-2.35,4.3-1.68,6.07
            C1121.71,505.32,1121.71,505.33,1121.72,505.34z"/>
        <circle fill="#FFF" cx="1133.88" cy="489.64" r="6.34"/>
        <circle cx="1133.88" cy="489.64" r="4.29"/>
        <circle fill="#FFF" cx="1133.88" cy="489.64" r="2.44"/>
    </g>
    <g>
        <g>
            <path stroke-miter-limit="10" d="M15.39,35.44c0.62,1.01,1.42,2.3,2.36,3.83"/>
            <path fill="none" stroke="#bfbfbf" stroke-miter-limit="10" stroke-dasharray="8.9374,8.9374" d="M22.48,46.84c12.43,19.8,37.11,58.25,65.34,90.46c6.24,7.12,38.23,43.11,89.76,77.67
                c27.53,18.47,93.42,58.51,184.44,74.83c63.3,11.35,123.7,8.54,152.88,7.18c18.43-0.86,20.79-1.63,44.6-2.65
                c25.38-1.08,74.44-3.04,134.17,1.51c27.49,2.09,68.09,5.34,120,16.82c38.84,8.59,89.79,20.21,149.48,50.83
                c17.94,9.21,51.96,27.97,87.87,57.83c28.32,23.54,43.15,41.79,52.16,54.24c5.04,6.97,9.21,13.45,12.57,19.04"/>
            <path stroke-miter-limit="10" d="M1118.03,498.46c0.8,1.38,1.53,2.68,2.22,3.91"/>
        </g>
    </g>
</svg>
