<?xml version="1.0" ?><!DOCTYPE svg  PUBLIC '-//W3C//DTD SVG 1.1//EN'  'http://www.w3.org/Graphics/SVG/1.1/DTD/svg11.dtd'><svg enable-background="new 0 0 32 32" height="32px" id="Layer_1" version="1.1" viewBox="0 0 32 32" width="32px" xml:space="preserve" xmlns="http://www.w3.org/2000/svg" xmlns:xlink="http://www.w3.org/1999/xlink"><g id="iphone"><path d="M24,0L8,0C6.342,0,5,1.343,5,3v26c0,1.658,1.343,3,3,3h16c1.656,0,3-1.344,3-3V3C27,1.342,25.656,0,24,0z    M25,29c0,0.551-0.449,1-1,1H8c-0.552,0-1-0.447-1-1v-2.004h18V29z M25,25.996H7V6L25,6V25.996z M25,5L7,5V3c0-0.552,0.448-1,1-1   L24,2c0.551,0,1,0.448,1,1V5z" fill="#3467ef"/><path d="M18,3.5C18,3.776,17.775,4,17.5,4h-3C14.223,4,14,3.776,14,3.5l0,0C14,3.223,14.223,3,14.5,3h3   C17.775,3,18,3.223,18,3.5L18,3.5z" fill="#3467ef"/><path d="M17,28.496c0,0.275-0.225,0.5-0.5,0.5h-1c-0.276,0-0.5-0.225-0.5-0.5l0,0c0-0.277,0.224-0.5,0.5-0.5h1   C16.775,27.996,17,28.219,17,28.496L17,28.496z" fill="#3467ef"/></g></svg>