<svg 
 xmlns="http://www.w3.org/2000/svg"
 xmlns:xlink="http://www.w3.org/1999/xlink"
 width="157px" height="157px">
<path fill-rule="evenodd"  opacity="0.702" fill="rgb(0, 0, 0)"
 d="M155.575,81.328 C154.013,82.890 151.480,82.890 149.918,81.328 C148.356,79.766 148.356,77.234 149.918,75.671 C151.480,74.109 154.013,74.109 155.575,75.671 C157.137,77.234 157.137,79.766 155.575,81.328 ZM135.068,96.177 C133.506,94.616 133.506,92.083 135.068,90.521 C136.631,88.959 139.163,88.959 140.725,90.521 C142.287,92.083 142.287,94.616 140.725,96.177 C139.163,97.740 136.631,97.740 135.068,96.177 ZM135.068,66.479 C133.506,64.917 133.506,62.384 135.068,60.822 C136.631,59.260 139.163,59.260 140.725,60.822 C142.287,62.384 142.287,64.917 140.725,66.479 C139.163,68.041 136.631,68.041 135.068,66.479 ZM120.219,111.027 C118.657,109.465 118.657,106.932 120.219,105.370 C121.781,103.808 124.314,103.808 125.876,105.370 C127.438,106.932 127.438,109.465 125.876,111.027 C124.314,112.589 121.781,112.589 120.219,111.027 ZM120.219,81.328 C118.657,79.766 118.657,77.234 120.219,75.671 C121.781,74.109 124.314,74.109 125.876,75.671 C127.438,77.234 127.438,79.766 125.876,81.328 C124.314,82.890 121.781,82.890 120.219,81.328 ZM120.219,51.630 C118.657,50.068 118.657,47.535 120.219,45.973 C121.781,44.411 124.314,44.411 125.876,45.973 C127.438,47.535 127.438,50.068 125.876,51.630 C124.314,53.192 121.781,53.192 120.219,51.630 ZM105.370,125.876 C103.808,124.314 103.808,121.781 105.370,120.219 C106.932,118.657 109.465,118.657 111.027,120.219 C112.589,121.781 112.589,124.314 111.027,125.876 C109.465,127.438 106.932,127.438 105.370,125.876 ZM105.370,96.177 C103.808,94.616 103.808,92.083 105.370,90.521 C106.932,88.959 109.465,88.959 111.027,90.521 C112.589,92.083 112.589,94.616 111.027,96.177 C109.465,97.740 106.932,97.740 105.370,96.177 ZM105.370,66.479 C103.808,64.917 103.808,62.384 105.370,60.822 C106.932,59.260 109.465,59.260 111.027,60.822 C112.589,62.384 112.589,64.917 111.027,66.479 C109.465,68.041 106.932,68.041 105.370,66.479 ZM105.370,36.781 C103.808,35.218 103.808,32.686 105.370,31.124 C106.932,29.562 109.465,29.562 111.027,31.124 C112.589,32.686 112.589,35.218 111.027,36.781 C109.465,38.343 106.932,38.343 105.370,36.781 ZM90.521,140.725 C88.959,139.163 88.959,136.630 90.521,135.068 C92.083,133.506 94.616,133.506 96.178,135.068 C97.740,136.630 97.740,139.163 96.178,140.725 C94.616,142.287 92.083,142.287 90.521,140.725 ZM90.521,111.027 C88.959,109.465 88.959,106.932 90.521,105.370 C92.083,103.808 94.616,103.808 96.178,105.370 C97.740,106.932 97.740,109.465 96.178,111.027 C94.616,112.589 92.083,112.589 90.521,111.027 ZM90.521,81.328 C88.959,79.766 88.959,77.234 90.521,75.671 C92.083,74.109 94.616,74.109 96.178,75.671 C97.740,77.234 97.740,79.766 96.178,81.328 C94.616,82.890 92.083,82.890 90.521,81.328 ZM90.521,51.630 C88.959,50.068 88.959,47.535 90.521,45.973 C92.083,44.411 94.616,44.411 96.178,45.973 C97.740,47.535 97.740,50.068 96.178,51.630 C94.616,53.192 92.083,53.192 90.521,51.630 ZM90.521,21.931 C88.959,20.369 88.959,17.836 90.521,16.274 C92.083,14.712 94.616,14.712 96.178,16.274 C97.740,17.836 97.740,20.369 96.178,21.931 C94.616,23.494 92.083,23.494 90.521,21.931 ZM75.672,155.575 C74.109,154.012 74.109,151.480 75.672,149.918 C77.234,148.356 79.766,148.356 81.328,149.918 C82.890,151.480 82.890,154.012 81.328,155.575 C79.766,157.137 77.234,157.137 75.672,155.575 ZM75.672,125.876 C74.109,124.314 74.109,121.781 75.672,120.219 C77.234,118.657 79.766,118.657 81.328,120.219 C82.890,121.781 82.890,124.314 81.328,125.876 C79.766,127.438 77.234,127.438 75.672,125.876 ZM75.672,96.177 C74.109,94.616 74.109,92.083 75.672,90.521 C77.234,88.959 79.766,88.959 81.328,90.521 C82.890,92.083 82.890,94.616 81.328,96.177 C79.766,97.740 77.234,97.740 75.672,96.177 ZM75.672,66.479 C74.109,64.917 74.109,62.384 75.672,60.822 C77.234,59.260 79.766,59.260 81.328,60.822 C82.890,62.384 82.890,64.917 81.328,66.479 C79.766,68.041 77.234,68.041 75.672,66.479 ZM75.672,36.781 C74.109,35.218 74.109,32.686 75.672,31.124 C77.234,29.562 79.766,29.562 81.328,31.124 C82.890,32.686 82.890,35.218 81.328,36.781 C79.766,38.343 77.234,38.343 75.672,36.781 ZM75.672,7.082 C74.109,5.520 74.109,2.987 75.672,1.425 C77.234,-0.137 79.766,-0.137 81.328,1.425 C82.890,2.987 82.890,5.520 81.328,7.082 C79.766,8.644 77.234,8.644 75.672,7.082 ZM60.822,140.725 C59.260,139.163 59.260,136.630 60.822,135.068 C62.384,133.506 64.917,133.506 66.479,135.068 C68.041,136.630 68.041,139.163 66.479,140.725 C64.917,142.287 62.384,142.287 60.822,140.725 ZM60.822,111.027 C59.260,109.465 59.260,106.932 60.822,105.370 C62.384,103.808 64.917,103.808 66.479,105.370 C68.041,106.932 68.041,109.465 66.479,111.027 C64.917,112.589 62.384,112.589 60.822,111.027 ZM60.822,81.328 C59.260,79.766 59.260,77.234 60.822,75.671 C62.384,74.109 64.917,74.109 66.479,75.671 C68.041,77.234 68.041,79.766 66.479,81.328 C64.917,82.890 62.384,82.890 60.822,81.328 ZM60.822,51.630 C59.260,50.068 59.260,47.535 60.822,45.973 C62.384,44.411 64.917,44.411 66.479,45.973 C68.041,47.535 68.041,50.068 66.479,51.630 C64.917,53.192 62.384,53.192 60.822,51.630 ZM60.822,21.931 C59.260,20.369 59.260,17.836 60.822,16.274 C62.384,14.712 64.917,14.712 66.479,16.274 C68.041,17.836 68.041,20.369 66.479,21.931 C64.917,23.494 62.384,23.494 60.822,21.931 ZM45.973,125.876 C44.411,124.314 44.411,121.781 45.973,120.219 C47.535,118.657 50.068,118.657 51.630,120.219 C53.192,121.781 53.192,124.314 51.630,125.876 C50.068,127.438 47.535,127.438 45.973,125.876 ZM45.973,96.177 C44.411,94.616 44.411,92.083 45.973,90.521 C47.535,88.959 50.068,88.959 51.630,90.521 C53.192,92.083 53.192,94.616 51.630,96.177 C50.068,97.740 47.535,97.740 45.973,96.177 ZM45.973,66.479 C44.411,64.917 44.411,62.384 45.973,60.822 C47.535,59.260 50.068,59.260 51.630,60.822 C53.192,62.384 53.192,64.917 51.630,66.479 C50.068,68.041 47.535,68.041 45.973,66.479 ZM45.973,36.781 C44.411,35.218 44.411,32.686 45.973,31.124 C47.535,29.562 50.068,29.562 51.630,31.124 C53.192,32.686 53.192,35.218 51.630,36.781 C50.068,38.343 47.535,38.343 45.973,36.781 ZM31.124,111.027 C29.562,109.465 29.562,106.932 31.124,105.370 C32.686,103.808 35.219,103.808 36.781,105.370 C38.343,106.932 38.343,109.465 36.781,111.027 C35.219,112.589 32.686,112.589 31.124,111.027 ZM31.124,81.328 C29.562,79.766 29.562,77.234 31.124,75.671 C32.686,74.109 35.219,74.109 36.781,75.671 C38.343,77.234 38.343,79.766 36.781,81.328 C35.219,82.890 32.686,82.890 31.124,81.328 ZM31.124,51.630 C29.562,50.068 29.562,47.535 31.124,45.973 C32.686,44.411 35.219,44.411 36.781,45.973 C38.343,47.535 38.343,50.068 36.781,51.630 C35.219,53.192 32.686,53.192 31.124,51.630 ZM16.275,96.177 C14.712,94.616 14.712,92.083 16.275,90.521 C17.837,88.959 20.369,88.959 21.931,90.521 C23.493,92.083 23.493,94.616 21.931,96.177 C20.369,97.740 17.837,97.740 16.275,96.177 ZM16.275,66.479 C14.712,64.917 14.712,62.384 16.275,60.822 C17.837,59.260 20.369,59.260 21.931,60.822 C23.493,62.384 23.493,64.917 21.931,66.479 C20.369,68.041 17.837,68.041 16.275,66.479 ZM1.425,81.328 C-0.137,79.766 -0.137,77.234 1.425,75.671 C2.987,74.109 5.520,74.109 7.082,75.671 C8.644,77.234 8.644,79.766 7.082,81.328 C5.520,82.890 2.987,82.890 1.425,81.328 Z"/>
</svg>