<svg xmlns="http://www.w3.org/2000/svg" width="123" height="126" viewBox="0 0 123 126">
<defs>
    <style>
      .cls-1 {
        fill: #FFF;
      }
    </style>
  </defs>
  <circle id="Ellipse_12_copy_17" data-name="Ellipse 12 copy 17" class="cls-1" cx="3" cy="123" r="3"/>
  <circle id="Ellipse_12_copy_17-2" data-name="Ellipse 12 copy 17" class="cls-1" cx="18" cy="123" r="3"/>
  <circle id="Ellipse_12_copy_17-3" data-name="Ellipse 12 copy 17" class="cls-1" cx="32" cy="123" r="3"/>
  <circle id="Ellipse_12_copy_17-4" data-name="Ellipse 12 copy 17" class="cls-1" cx="47" cy="123" r="3"/>
  <circle id="Ellipse_12_copy_17-5" data-name="Ellipse 12 copy 17" class="cls-1" cx="62" cy="123" r="3"/>
  <circle id="Ellipse_12_copy_17-6" data-name="Ellipse 12 copy 17" class="cls-1" cx="76" cy="123" r="3"/>
  <circle id="Ellipse_12_copy_17-7" data-name="Ellipse 12 copy 17" class="cls-1" cx="91" cy="123" r="3"/>
  <circle id="Ellipse_12_copy_17-8" data-name="Ellipse 12 copy 17" class="cls-1" cx="105" cy="123" r="3"/>
  <circle id="Ellipse_12_copy_17-9" data-name="Ellipse 12 copy 17" class="cls-1" cx="120" cy="123" r="3"/>
  <circle id="Ellipse_12_copy_17-10" data-name="Ellipse 12 copy 17" class="cls-1" cx="3" cy="108" r="3"/>
  <circle id="Ellipse_12_copy_17-11" data-name="Ellipse 12 copy 17" class="cls-1" cx="18" cy="108" r="3"/>
  <circle id="Ellipse_12_copy_17-12" data-name="Ellipse 12 copy 17" class="cls-1" cx="32" cy="108" r="3"/>
  <circle id="Ellipse_12_copy_17-13" data-name="Ellipse 12 copy 17" class="cls-1" cx="47" cy="108" r="3"/>
  <circle id="Ellipse_12_copy_17-14" data-name="Ellipse 12 copy 17" class="cls-1" cx="62" cy="108" r="3"/>
  <circle id="Ellipse_12_copy_17-15" data-name="Ellipse 12 copy 17" class="cls-1" cx="76" cy="108" r="3"/>
  <circle id="Ellipse_12_copy_17-16" data-name="Ellipse 12 copy 17" class="cls-1" cx="91" cy="108" r="3"/>
  <circle id="Ellipse_12_copy_17-17" data-name="Ellipse 12 copy 17" class="cls-1" cx="105" cy="108" r="3"/>
  <circle id="Ellipse_12_copy_17-18" data-name="Ellipse 12 copy 17" class="cls-1" cx="3" cy="93" r="3"/>
  <circle id="Ellipse_12_copy_17-19" data-name="Ellipse 12 copy 17" class="cls-1" cx="18" cy="93" r="3"/>
  <circle id="Ellipse_12_copy_17-20" data-name="Ellipse 12 copy 17" class="cls-1" cx="32" cy="93" r="3"/>
  <circle id="Ellipse_12_copy_17-21" data-name="Ellipse 12 copy 17" class="cls-1" cx="47" cy="93" r="3"/>
  <circle id="Ellipse_12_copy_17-22" data-name="Ellipse 12 copy 17" class="cls-1" cx="62" cy="93" r="3"/>
  <circle id="Ellipse_12_copy_17-23" data-name="Ellipse 12 copy 17" class="cls-1" cx="76" cy="93" r="3"/>
  <circle id="Ellipse_12_copy_17-24" data-name="Ellipse 12 copy 17" class="cls-1" cx="91" cy="93" r="3"/>
  <circle id="Ellipse_12_copy_17-25" data-name="Ellipse 12 copy 17" class="cls-1" cx="3" cy="78" r="3"/>
  <circle id="Ellipse_12_copy_17-26" data-name="Ellipse 12 copy 17" class="cls-1" cx="18" cy="78" r="3"/>
  <circle id="Ellipse_12_copy_17-27" data-name="Ellipse 12 copy 17" class="cls-1" cx="32" cy="78" r="3"/>
  <circle id="Ellipse_12_copy_17-28" data-name="Ellipse 12 copy 17" class="cls-1" cx="47" cy="78" r="3"/>
  <circle id="Ellipse_12_copy_17-29" data-name="Ellipse 12 copy 17" class="cls-1" cx="62" cy="78" r="3"/>
  <circle id="Ellipse_12_copy_17-30" data-name="Ellipse 12 copy 17" class="cls-1" cx="76" cy="78" r="3"/>
  <circle id="Ellipse_12_copy_17-31" data-name="Ellipse 12 copy 17" class="cls-1" cx="3" cy="63" r="3"/>
  <circle id="Ellipse_12_copy_17-32" data-name="Ellipse 12 copy 17" class="cls-1" cx="18" cy="63" r="3"/>
  <circle id="Ellipse_12_copy_17-33" data-name="Ellipse 12 copy 17" class="cls-1" cx="32" cy="63" r="3"/>
  <circle id="Ellipse_12_copy_17-34" data-name="Ellipse 12 copy 17" class="cls-1" cx="47" cy="63" r="3"/>
  <circle id="Ellipse_12_copy_17-35" data-name="Ellipse 12 copy 17" class="cls-1" cx="62" cy="63" r="3"/>
  <circle id="Ellipse_12_copy_17-36" data-name="Ellipse 12 copy 17" class="cls-1" cx="3" cy="48" r="3"/>
  <circle id="Ellipse_12_copy_17-37" data-name="Ellipse 12 copy 17" class="cls-1" cx="18" cy="48" r="3"/>
  <circle id="Ellipse_12_copy_17-38" data-name="Ellipse 12 copy 17" class="cls-1" cx="32" cy="48" r="3"/>
  <circle id="Ellipse_12_copy_17-39" data-name="Ellipse 12 copy 17" class="cls-1" cx="47" cy="48" r="3"/>
  <circle id="Ellipse_12_copy_17-40" data-name="Ellipse 12 copy 17" class="cls-1" cx="3" cy="33" r="3"/>
  <circle id="Ellipse_12_copy_17-41" data-name="Ellipse 12 copy 17" class="cls-1" cx="18" cy="33" r="3"/>
  <circle id="Ellipse_12_copy_17-42" data-name="Ellipse 12 copy 17" class="cls-1" cx="32" cy="33" r="3"/>
  <circle id="Ellipse_12_copy_17-43" data-name="Ellipse 12 copy 17" class="cls-1" cx="3" cy="18" r="3"/>
  <circle id="Ellipse_12_copy_17-44" data-name="Ellipse 12 copy 17" class="cls-1" cx="18" cy="18" r="3"/>
  <circle id="Ellipse_12_copy_17-45" data-name="Ellipse 12 copy 17" class="cls-1" cx="3" cy="3" r="3"/>
</svg>
