<svg xmlns="http://www.w3.org/2000/svg" width="432.93" height="497.377" viewBox="0 0 432.93 497.377"><path d="M185.342.118c-.4-.016-.773-.118-1.175-.118a28.426 28.426 0 1 0 0 56.851c.079 0 .15-.024.229-.024v.118c105.949.016 191.841 85.916 191.841 191.872s-85.9 191.866-191.865 191.866a191.244 191.244 0 0 1-135.519-56.062A28.382 28.382 0 0 0 0 404.321a28.309 28.309 0 0 0 8.486 20.239h-.008a247.879 247.879 0 0 0 175.806 72.815c137.324 0 248.645-111.32 248.645-248.645C432.93 111.762 322.178.686 185.342.118Z" fill="#0dcee6"/></svg>