<svg id="Layer_1" data-name="Layer 1" xmlns="http://www.w3.org/2000/svg" viewBox="0 0 2000 2000"><title>84 [Converted]</title><g id="New_Symbol" data-name="New Symbol"><rect width="2000" height="2000" style="fill:none"/><path d="M8,38.71c1.54,5.47,2.3,14.26,3.11,23.56,2.22,25.52,4.73,54.46,26,53.89,5.11-.13,9.83-2.31,14-6.48C69.26,91.63,73.57,37.09,74,30.93c.38-5.47.33-8.63.31-10.73,0-2.89,0-2.89,3.88-11.45,1.06-2.31,2.37-5.18,4-8.75H66.37L65.11,2.76c-4.77,10.42-5.27,11.5-5.19,17.64,0,2,.07,4.67-.27,9.53C58.1,52,51.85,88.65,41,99.48c-2.26,2.25-3.75,2.29-4.25,2.3C29,102,26.71,75.34,25.46,61c-.86-10-1.68-19.42-3.59-26.2C18.08,21.34,12.26,16,.39,15l-.39,0V29.35C4,29.73,5.68,30.38,8,38.71Z"/><path d="M425.29,19.84c0,2.1-.09,5.27.27,10.73.9,14.1,6.93,84.49,36.47,85.42a17.68,17.68,0,0,0,13.27-5.3c9.35-9.31,11.18-29.21,12.95-48.45.86-9.3,1.67-18.09,3.24-23.58,1.14-4,2.28-6.53,3.48-7.73.65-.65,1.7-1.29,4.82-1.6,4.16.38,5.85.9,8.23,9.38,1.54,5.47,2.3,14.26,3.11,23.56,2.22,25.52,4.73,54.46,26,53.89,5.11-.13,9.83-2.31,14-6.48C569.26,91.63,573.57,37.09,574,30.93c.38-5.47.33-8.63.31-10.73,0-2.89,0-2.89,3.88-11.45,1.06-2.31,2.37-5.18,4-8.75h-15.8l-1.26,2.76c-4.77,10.42-5.27,11.5-5.19,17.64,0,2,.07,4.67-.27,9.53-1.55,22-7.8,58.72-18.68,69.55-2.26,2.25-3.75,2.29-4.25,2.3-7.7.21-10-26.44-11.26-40.76-.86-10-1.68-19.42-3.59-26.2C518.08,21.34,512.26,16,500.39,15l-.59,0-.59,0c-4.34.35-9.9,1.32-14.39,5.79-3.08,3.07-5.29,7.38-7.16,14-1.94,6.77-2.81,16.22-3.73,26.22-1.32,14.32-3.13,33.93-8.78,39.56a3.24,3.24,0,0,1-2.67,1.12c-9.57-.3-20.12-33.93-22.57-72-.31-4.87-.27-7.57-.24-9.54.11-6.13-.38-7.21-5.09-17.64L433.47,0H417.71c1.51,3.39,2.75,6.14,3.76,8.38C425.34,17,425.34,17,425.29,19.84Z"/><path d="M925.29,19.84c0,2.1-.09,5.27.27,10.73.9,14.1,6.93,84.49,36.47,85.42a17.68,17.68,0,0,0,13.27-5.3c9.35-9.31,11.18-29.21,13-48.45.86-9.3,1.67-18.09,3.24-23.58,1.14-4,2.28-6.53,3.48-7.73.65-.65,1.7-1.29,4.82-1.6,4.16.38,5.85.9,8.23,9.38,1.54,5.47,2.3,14.26,3.11,23.56,2.22,25.52,4.73,54.46,26,53.89,5.11-.13,9.83-2.31,14-6.48,18.14-18.05,22.45-72.59,22.88-78.75.38-5.47.33-8.63.31-10.73,0-2.89,0-2.89,3.88-11.45,1.06-2.31,2.37-5.18,4-8.75h-15.8l-1.26,2.76c-4.77,10.42-5.27,11.5-5.19,17.64,0,2,.07,4.67-.27,9.53-1.55,22-7.79,58.72-18.68,69.55-2.26,2.25-3.75,2.29-4.25,2.3-7.69.21-10-26.44-11.26-40.76-.86-10-1.68-19.42-3.58-26.2-3.8-13.48-9.62-18.87-21.49-19.87l-.59,0-.59,0c-4.34.35-9.9,1.32-14.39,5.79-3.08,3.07-5.29,7.38-7.16,14-1.94,6.77-2.81,16.22-3.73,26.22-1.32,14.32-3.13,33.93-8.78,39.56a3.24,3.24,0,0,1-2.67,1.12c-9.57-.3-20.12-33.93-22.57-72-.31-4.87-.27-7.57-.24-9.54.11-6.13-.38-7.21-5.09-17.64L933.47,0H917.71c1.51,3.39,2.75,6.14,3.76,8.38C925.34,17,925.34,17,925.29,19.84Z"/><path d="M1425.29,19.84c0,2.1-.09,5.27.27,10.73.9,14.1,6.93,84.49,36.48,85.42a17.68,17.68,0,0,0,13.26-5.3c9.35-9.31,11.18-29.21,13-48.45.86-9.3,1.67-18.09,3.24-23.58,1.14-4,2.28-6.53,3.48-7.73.65-.65,1.7-1.29,4.82-1.6,4.16.38,5.85.9,8.23,9.38,1.54,5.47,2.3,14.26,3.11,23.56,2.22,25.52,4.73,54.46,26,53.89,5.11-.13,9.83-2.31,14-6.48,18.14-18.05,22.45-72.59,22.88-78.75.38-5.47.33-8.63.31-10.73,0-2.89,0-2.89,3.88-11.45,1.06-2.31,2.37-5.18,4-8.75h-15.8l-1.26,2.76c-4.77,10.42-5.27,11.5-5.19,17.64,0,2,.07,4.67-.27,9.53-1.55,22-7.79,58.72-18.68,69.55-2.26,2.25-3.75,2.29-4.25,2.3-7.69.21-10-26.44-11.26-40.76-.86-10-1.68-19.42-3.58-26.2-3.8-13.48-9.62-18.87-21.49-19.87l-.59,0-.59,0c-4.34.35-9.9,1.32-14.39,5.79-3.08,3.07-5.29,7.38-7.16,14-1.94,6.77-2.81,16.22-3.73,26.22-1.32,14.32-3.13,33.93-8.78,39.56a3.24,3.24,0,0,1-2.67,1.12c-9.57-.3-20.12-33.93-22.56-72-.32-4.87-.28-7.57-.25-9.54.11-6.13-.38-7.21-5.09-17.64L1433.47,0h-15.76c1.5,3.39,2.75,6.14,3.76,8.38C1425.34,17,1425.34,17,1425.29,19.84Z"/><path d="M1999.8,14.9l-.59,0c-4.34.35-9.9,1.32-14.39,5.79-3.08,3.07-5.29,7.38-7.16,14-1.94,6.77-2.81,16.22-3.73,26.22-1.32,14.32-3.13,33.93-8.78,39.56a3.24,3.24,0,0,1-2.67,1.12c-9.57-.3-20.12-33.93-22.56-72-.32-4.87-.28-7.57-.25-9.54.11-6.13-.38-7.21-5.09-17.64L1933.47,0h-15.76c1.5,3.39,2.75,6.14,3.76,8.38,3.87,8.57,3.87,8.57,3.82,11.46,0,2.1-.09,5.27.27,10.73.9,14.1,6.93,84.49,36.48,85.42a17.68,17.68,0,0,0,13.26-5.3c9.35-9.31,11.18-29.21,13-48.45.86-9.3,1.67-18.09,3.24-23.58,1.14-4,2.28-6.53,3.48-7.73.65-.65,1.7-1.29,4.82-1.6l.21,0V14.91Z"/><path d="M95,1940.47c-1.29-19.54-8.63-35.38-21.23-45.81-23.2-19.2-62.68-7.35-73.69-3.48l-.11,0v15.33l.18.06,2.53-1c14.54-5.63,46.19-12.83,61.92.19,21.93,18.18,18.89,55.8,6.79,83.07-2,4.59-3.7,8.24-5,11.19h15.8c.74-1.63,1.53-3.4,2.4-5.35C92.46,1976.88,96.17,1957.64,95,1940.47Z"/><path d="M595,1940.47c-1.29-19.54-8.63-35.38-21.23-45.81-23.2-19.2-62.68-7.35-73.69-3.48-11.19-4-50.48-15.91-73.7,3.13a49.41,49.41,0,0,0-3.8,3.43c-24,23.85-21,65.66-7.44,96.51.92,2.11,1.76,4,2.54,5.75h15.76c-1.36-3-3-6.77-5.13-11.54-16.08-36.58-9.37-66.8,4.42-80.52.88-.88,1.81-1.72,2.77-2.51,15.78-12.93,47.4-5.59,62.07.17l2.58.93,2.53-1c14.54-5.63,46.19-12.83,61.92.19,21.93,18.18,18.89,55.8,6.79,83.07-2,4.59-3.7,8.24-5,11.19h15.8c.74-1.63,1.53-3.4,2.4-5.35C592.46,1976.88,596.17,1957.64,595,1940.47Z"/><path d="M1095,1940.47c-1.29-19.54-8.63-35.38-21.23-45.81-23.2-19.2-62.68-7.35-73.69-3.48-11.19-4-50.48-15.91-73.7,3.13a49.41,49.41,0,0,0-3.8,3.43c-24,23.85-21,65.66-7.44,96.51.92,2.11,1.76,4,2.54,5.75h15.76c-1.36-3-3-6.77-5.13-11.54-16.08-36.58-9.37-66.8,4.42-80.52.88-.88,1.81-1.72,2.77-2.51,15.78-12.93,47.4-5.59,62.07.17l2.58.93,2.53-1c14.54-5.63,46.19-12.83,61.92.19,21.93,18.18,18.89,55.8,6.79,83.07-2,4.59-3.7,8.24-5.05,11.19h15.8c.74-1.63,1.53-3.4,2.4-5.35C1092.46,1976.88,1096.17,1957.64,1095,1940.47Z"/><path d="M1595,1940.47c-1.29-19.54-8.63-35.38-21.23-45.81-23.2-19.2-62.68-7.35-73.69-3.48-11.19-4-50.48-15.91-73.7,3.13a49.41,49.41,0,0,0-3.8,3.43c-24,23.85-21,65.66-7.44,96.51.92,2.11,1.76,4,2.54,5.75h15.76c-1.36-3-3-6.77-5.13-11.54-16.08-36.58-9.37-66.8,4.42-80.52.88-.88,1.81-1.72,2.77-2.51,15.78-12.93,47.4-5.59,62.07.17l2.58.93,2.53-1c14.54-5.63,46.19-12.83,61.92.19,21.93,18.18,18.89,55.8,6.79,83.07-2,4.59-3.7,8.24-5.05,11.19h15.8c.74-1.63,1.53-3.4,2.4-5.35C1592.46,1976.88,1596.17,1957.64,1595,1940.47Z"/><path d="M1928.34,1988.46c-16.08-36.58-9.37-66.8,4.42-80.52.88-.88,1.81-1.72,2.77-2.51,15.78-12.93,47.4-5.59,62.07.17l2.4.87v-15.33c-11.31-4-50.44-15.81-73.59,3.17a49.41,49.41,0,0,0-3.8,3.43c-24,23.85-21,65.66-7.44,96.51.92,2.11,1.76,4,2.54,5.75h15.76C1932.11,1997,1930.43,1993.23,1928.34,1988.46Z"/><path d="M8,536.89c1.54,5.48,2.3,14.26,3.11,23.56,2.22,25.53,4.73,54.46,26,53.9,5.11-.13,9.83-2.32,14-6.49,18.14-18,22.45-72.58,22.88-78.75.38-5.46.33-8.63.31-10.72,0-2.9,0-2.9,3.88-11.45,1.54-3.38,3.61-7.9,6.38-14.1,7.89-17.77,11.6-37,10.46-54.19-1.29-19.53-8.63-35.37-21.23-45.81-23.2-19.2-62.68-7.34-73.69-3.48l-.11,0v15.32l.18.06,2.53-1c14.54-5.62,46.19-12.82,61.92.19C86.56,422.1,83.52,459.73,71.42,487c-2.73,6.14-4.78,10.61-6.31,13.95-4.77,10.42-5.27,11.51-5.19,17.64,0,2,.07,4.67-.27,9.53-1.55,22-7.8,58.73-18.68,69.56-2.26,2.24-3.75,2.28-4.25,2.3-7.7.2-10-26.45-11.26-40.76-.86-10-1.68-19.43-3.59-26.21-3.79-13.48-9.61-18.86-21.48-19.87l-.39,0v14.44C4,527.91,5.68,528.56,8,536.89Z"/><path d="M573.8,392.84c-23.2-19.2-62.68-7.34-73.69-3.48-11.19-4-50.48-15.9-73.7,3.13-1.32,1.08-2.6,2.23-3.8,3.43-24,23.85-21,65.66-7.44,96.51,2.72,6.22,4.77,10.74,6.3,14.13,3.87,8.57,3.87,8.57,3.82,11.47,0,2.09-.09,5.26.27,10.72.9,14.1,6.93,84.49,36.47,85.42a17.65,17.65,0,0,0,13.27-5.3c9.35-9.31,11.18-29.2,12.95-48.44.86-9.31,1.67-18.1,3.24-23.59,1.14-4,2.28-6.53,3.48-7.73.65-.64,1.7-1.28,4.82-1.59,4.16.37,5.85.89,8.23,9.37,1.54,5.48,2.3,14.26,3.11,23.56,2.22,25.53,4.73,54.46,26,53.9,5.11-.13,9.83-2.32,14-6.49,18.14-18,22.45-72.58,22.88-78.75.38-5.46.33-8.63.31-10.72,0-2.9,0-2.9,3.88-11.45,1.54-3.38,3.61-7.9,6.38-14.1,7.89-17.77,11.6-37,10.46-54.19C593.74,419.12,586.4,403.28,573.8,392.84ZM571.42,487c-2.73,6.14-4.78,10.61-6.31,13.95-4.77,10.42-5.27,11.51-5.19,17.64,0,2,.07,4.67-.27,9.53-1.55,22-7.8,58.73-18.68,69.56-2.26,2.24-3.75,2.28-4.25,2.3-7.7.2-10-26.45-11.26-40.76-.86-10-1.68-19.43-3.59-26.21-3.79-13.48-9.61-18.86-21.48-19.87l-.59,0-.59,0c-4.34.35-9.9,1.32-14.39,5.79-3.08,3.06-5.29,7.37-7.16,14-1.94,6.77-2.81,16.21-3.73,26.21-1.32,14.32-3.13,33.93-8.78,39.56a3.24,3.24,0,0,1-2.67,1.12c-9.57-.3-20.12-33.93-22.57-72-.31-4.88-.27-7.58-.24-9.55.11-6.12-.38-7.21-5.09-17.63-1.52-3.36-3.54-7.84-6.24-14-16.08-36.59-9.37-66.81,4.42-80.53.88-.87,1.81-1.71,2.77-2.5,15.78-12.93,47.4-5.59,62.07.16l2.58.93,2.53-1c14.54-5.62,46.19-12.82,61.92.19C586.56,422.1,583.52,459.73,571.42,487Z"/><path d="M1073.8,392.84c-23.2-19.2-62.68-7.34-73.69-3.48-11.19-4-50.48-15.9-73.7,3.13-1.32,1.08-2.6,2.23-3.8,3.43-24,23.85-21,65.66-7.44,96.51,2.72,6.22,4.77,10.74,6.3,14.13,3.87,8.57,3.87,8.57,3.82,11.47,0,2.09-.09,5.26.27,10.72.9,14.1,6.93,84.49,36.47,85.42a17.65,17.65,0,0,0,13.27-5.3c9.35-9.31,11.18-29.2,13-48.44.86-9.31,1.67-18.1,3.24-23.59,1.14-4,2.28-6.53,3.48-7.73.65-.64,1.7-1.28,4.82-1.59,4.16.37,5.85.89,8.23,9.37,1.54,5.48,2.3,14.26,3.11,23.56,2.22,25.53,4.73,54.46,26,53.9,5.11-.13,9.83-2.32,14-6.49,18.14-18,22.45-72.58,22.88-78.75.38-5.46.33-8.63.31-10.72,0-2.9,0-2.9,3.88-11.45,1.54-3.38,3.61-7.9,6.38-14.1,7.89-17.77,11.6-37,10.46-54.19C1093.74,419.12,1086.4,403.28,1073.8,392.84ZM1071.42,487c-2.73,6.14-4.78,10.61-6.31,13.95-4.77,10.42-5.27,11.51-5.19,17.64,0,2,.07,4.67-.27,9.53-1.55,22-7.79,58.73-18.68,69.56-2.26,2.24-3.75,2.28-4.25,2.3-7.69.2-10-26.45-11.26-40.76-.86-10-1.68-19.43-3.58-26.21-3.8-13.48-9.62-18.86-21.49-19.87l-.59,0-.59,0c-4.34.35-9.9,1.32-14.39,5.79-3.08,3.06-5.29,7.37-7.16,14-1.94,6.77-2.81,16.21-3.73,26.21-1.32,14.32-3.13,33.93-8.78,39.56a3.24,3.24,0,0,1-2.67,1.12c-9.57-.3-20.12-33.93-22.57-72-.31-4.88-.27-7.58-.24-9.55.11-6.12-.38-7.21-5.09-17.63-1.52-3.36-3.54-7.84-6.24-14-16.08-36.59-9.37-66.81,4.42-80.53.88-.87,1.81-1.71,2.77-2.5,15.78-12.93,47.4-5.59,62.07.16l2.58.93,2.53-1c14.54-5.62,46.19-12.82,61.92.19C1086.56,422.1,1083.52,459.73,1071.42,487Z"/><path d="M1573.8,392.84c-23.2-19.2-62.68-7.34-73.69-3.48-11.19-4-50.48-15.9-73.7,3.13-1.32,1.08-2.6,2.23-3.8,3.43-24,23.85-21,65.66-7.44,96.51,2.72,6.22,4.77,10.74,6.3,14.13,3.87,8.57,3.87,8.57,3.82,11.47,0,2.09-.09,5.26.27,10.72.9,14.1,6.93,84.49,36.48,85.42a17.64,17.64,0,0,0,13.26-5.3c9.35-9.31,11.18-29.2,13-48.44.86-9.31,1.67-18.1,3.24-23.59,1.14-4,2.28-6.53,3.48-7.73.65-.64,1.7-1.28,4.82-1.59,4.16.37,5.85.89,8.23,9.37,1.54,5.48,2.3,14.26,3.11,23.56,2.22,25.53,4.73,54.46,26,53.9,5.11-.13,9.83-2.32,14-6.49,18.14-18,22.45-72.58,22.88-78.75.38-5.46.33-8.63.31-10.72,0-2.9,0-2.9,3.88-11.45,1.54-3.38,3.61-7.9,6.38-14.1,7.89-17.77,11.6-37,10.46-54.19C1593.74,419.12,1586.4,403.28,1573.8,392.84ZM1571.42,487c-2.73,6.14-4.78,10.61-6.31,13.95-4.77,10.42-5.27,11.51-5.19,17.64,0,2,.07,4.67-.27,9.53-1.55,22-7.79,58.73-18.68,69.56-2.26,2.24-3.75,2.28-4.25,2.3-7.69.2-10-26.45-11.26-40.76-.86-10-1.68-19.43-3.58-26.21-3.8-13.48-9.62-18.86-21.49-19.87l-.59,0-.59,0c-4.34.35-9.9,1.32-14.39,5.79-3.08,3.06-5.29,7.37-7.16,14-1.94,6.77-2.81,16.21-3.73,26.21-1.32,14.32-3.13,33.93-8.78,39.56a3.24,3.24,0,0,1-2.67,1.12c-9.57-.3-20.12-33.93-22.56-72-.32-4.88-.28-7.58-.25-9.55.11-6.12-.38-7.21-5.09-17.63-1.52-3.36-3.54-7.84-6.24-14-16.08-36.59-9.37-66.81,4.42-80.53.88-.87,1.81-1.71,2.77-2.5,15.78-12.93,47.4-5.59,62.07.16l2.58.93,2.53-1c14.54-5.62,46.19-12.82,61.92.19C1586.56,422.1,1583.52,459.73,1571.42,487Z"/><path d="M1999.8,513.08l-.59,0c-4.34.35-9.9,1.32-14.39,5.79-3.08,3.06-5.29,7.37-7.16,14-1.94,6.77-2.81,16.21-3.73,26.21-1.32,14.32-3.13,33.93-8.78,39.56a3.24,3.24,0,0,1-2.67,1.12c-9.57-.3-20.12-33.93-22.56-72-.32-4.88-.28-7.58-.25-9.55.11-6.12-.38-7.21-5.09-17.63-1.52-3.36-3.54-7.84-6.24-14-16.08-36.59-9.37-66.81,4.42-80.53.88-.87,1.81-1.71,2.77-2.5,15.78-12.93,47.4-5.59,62.07.16l2.4.87V389.33c-11.31-4-50.44-15.82-73.59,3.16-1.32,1.08-2.6,2.23-3.8,3.43-24,23.85-21,65.66-7.44,96.51,2.72,6.22,4.77,10.74,6.3,14.13,3.87,8.57,3.87,8.57,3.82,11.47,0,2.09-.09,5.26.27,10.72.9,14.1,6.93,84.49,36.48,85.42a17.64,17.64,0,0,0,13.26-5.3c9.35-9.31,11.18-29.2,13-48.44.86-9.31,1.67-18.1,3.24-23.59,1.14-4,2.28-6.53,3.48-7.73.65-.64,1.7-1.28,4.82-1.59l.21,0V513.1Z"/><path d="M8,1035.08c1.54,5.47,2.3,14.25,3.11,23.55,2.22,25.53,4.73,54.46,26,53.9,5.11-.13,9.83-2.31,14-6.48,18.14-18,22.45-72.59,22.88-78.76.38-5.46.33-8.63.31-10.72,0-2.89,0-2.89,3.88-11.45,1.54-3.38,3.61-7.89,6.38-14.1,7.89-17.77,11.6-37,10.46-54.19C93.74,917.3,86.4,901.46,73.8,891c-23.2-19.19-62.68-7.34-73.69-3.47l-.11,0v15.32l.18.07,2.53-1c14.54-5.63,46.19-12.83,61.92.18,21.93,18.18,18.89,55.81,6.79,83.08-2.73,6.13-4.78,10.6-6.31,14-4.77,10.41-5.27,11.5-5.19,17.64,0,2,.07,4.66-.27,9.52-1.55,22-7.8,58.73-18.68,69.56-2.26,2.25-3.75,2.28-4.25,2.3-7.7.2-10-26.44-11.26-40.76-.86-10-1.68-19.43-3.59-26.21-3.79-13.47-9.61-18.86-21.48-19.87l-.39,0v14.44C4,1026.09,5.68,1026.74,8,1035.08Z"/><path d="M573.8,891c-23.2-19.19-62.68-7.34-73.69-3.47-11.19-4-50.48-15.91-73.7,3.12-1.32,1.08-2.6,2.24-3.8,3.43-24,23.85-21,65.66-7.44,96.52,2.72,6.21,4.77,10.73,6.3,14.12,3.87,8.57,3.87,8.57,3.82,11.47,0,2.1-.09,5.26.27,10.72.9,14.1,6.93,84.5,36.47,85.42a17.61,17.61,0,0,0,13.27-5.3c9.35-9.31,11.18-29.2,12.95-48.44.86-9.31,1.67-18.1,3.24-23.58,1.14-4,2.28-6.54,3.48-7.74.65-.64,1.7-1.28,4.82-1.59,4.16.37,5.85.89,8.23,9.38,1.54,5.47,2.3,14.25,3.11,23.55,2.22,25.53,4.73,54.46,26,53.9,5.11-.13,9.83-2.31,14-6.48,18.14-18,22.45-72.59,22.88-78.76.38-5.46.33-8.63.31-10.72,0-2.89,0-2.89,3.88-11.45,1.54-3.38,3.61-7.89,6.38-14.1,7.89-17.77,11.6-37,10.46-54.19C593.74,917.3,586.4,901.46,573.8,891Zm-2.38,94.16c-2.73,6.13-4.78,10.6-6.31,14-4.77,10.41-5.27,11.5-5.19,17.64,0,2,.07,4.66-.27,9.52-1.55,22-7.8,58.73-18.68,69.56-2.26,2.25-3.75,2.28-4.25,2.3-7.7.2-10-26.44-11.26-40.76-.86-10-1.68-19.43-3.59-26.21-3.79-13.47-9.61-18.86-21.48-19.87l-.59,0-.59,0c-4.34.35-9.9,1.32-14.39,5.79-3.08,3.06-5.29,7.38-7.16,14-1.94,6.77-2.81,16.21-3.73,26.21-1.32,14.32-3.13,33.94-8.78,39.57a3.26,3.26,0,0,1-2.67,1.11c-9.57-.3-20.12-33.92-22.57-72-.31-4.88-.27-7.57-.24-9.54.11-6.13-.38-7.22-5.09-17.64-1.52-3.35-3.54-7.84-6.24-14C412.26,948.24,419,918,432.76,904.3c.88-.87,1.81-1.71,2.77-2.5,15.78-12.93,47.4-5.59,62.07.16l2.58.94,2.53-1c14.54-5.63,46.19-12.83,61.92.18C586.56,920.28,583.52,957.91,571.42,985.18Z"/><path d="M1073.8,891c-23.2-19.19-62.68-7.34-73.69-3.47-11.19-4-50.48-15.91-73.7,3.12-1.32,1.08-2.6,2.24-3.8,3.43-24,23.85-21,65.66-7.44,96.52,2.72,6.21,4.77,10.73,6.3,14.12,3.87,8.57,3.87,8.57,3.82,11.47,0,2.1-.09,5.26.27,10.72.9,14.1,6.93,84.5,36.47,85.42a17.61,17.61,0,0,0,13.27-5.3c9.35-9.31,11.18-29.2,13-48.44.86-9.31,1.67-18.1,3.24-23.58,1.14-4,2.28-6.54,3.48-7.74.65-.64,1.7-1.28,4.82-1.59,4.16.37,5.85.89,8.23,9.38,1.54,5.47,2.3,14.25,3.11,23.55,2.22,25.53,4.73,54.46,26,53.9,5.11-.13,9.83-2.31,14-6.48,18.14-18,22.45-72.59,22.88-78.76.38-5.46.33-8.63.31-10.72,0-2.89,0-2.89,3.88-11.45,1.54-3.38,3.61-7.89,6.38-14.1,7.89-17.77,11.6-37,10.46-54.19C1093.74,917.3,1086.4,901.46,1073.8,891Zm-2.38,94.16c-2.73,6.13-4.78,10.6-6.31,14-4.77,10.41-5.27,11.5-5.19,17.64,0,2,.07,4.66-.27,9.52-1.55,22-7.79,58.73-18.68,69.56-2.26,2.25-3.75,2.28-4.25,2.3-7.69.2-10-26.44-11.26-40.76-.86-10-1.68-19.43-3.58-26.21-3.8-13.47-9.62-18.86-21.49-19.87l-.59,0-.59,0c-4.34.35-9.9,1.32-14.39,5.79-3.08,3.06-5.29,7.38-7.16,14-1.94,6.77-2.81,16.21-3.73,26.21-1.32,14.32-3.13,33.94-8.78,39.57a3.26,3.26,0,0,1-2.67,1.11c-9.57-.3-20.12-33.92-22.57-72-.31-4.88-.27-7.57-.24-9.54.11-6.13-.38-7.22-5.09-17.64-1.52-3.35-3.54-7.84-6.24-14C912.26,948.24,919,918,932.76,904.3c.88-.87,1.81-1.71,2.77-2.5,15.78-12.93,47.4-5.59,62.07.16l2.58.94,2.53-1c14.54-5.63,46.19-12.83,61.92.18C1086.56,920.28,1083.52,957.91,1071.42,985.18Z"/><path d="M1573.8,891c-23.2-19.19-62.68-7.34-73.69-3.47-11.19-4-50.48-15.91-73.7,3.12-1.32,1.08-2.6,2.24-3.8,3.43-24,23.85-21,65.66-7.44,96.52,2.72,6.21,4.77,10.73,6.3,14.12,3.87,8.57,3.87,8.57,3.82,11.47,0,2.1-.09,5.26.27,10.72.9,14.1,6.93,84.5,36.48,85.42a17.6,17.6,0,0,0,13.26-5.3c9.35-9.31,11.18-29.2,13-48.44.86-9.31,1.67-18.1,3.24-23.58,1.14-4,2.28-6.54,3.48-7.74.65-.64,1.7-1.28,4.82-1.59,4.16.37,5.85.89,8.23,9.38,1.54,5.47,2.3,14.25,3.11,23.55,2.22,25.53,4.73,54.46,26,53.9,5.11-.13,9.83-2.31,14-6.48,18.14-18,22.45-72.59,22.88-78.76.38-5.46.33-8.63.31-10.72,0-2.89,0-2.89,3.88-11.45,1.54-3.38,3.61-7.89,6.38-14.1,7.89-17.77,11.6-37,10.46-54.19C1593.74,917.3,1586.4,901.46,1573.8,891Zm-2.38,94.16c-2.73,6.13-4.78,10.6-6.31,14-4.77,10.41-5.27,11.5-5.19,17.64,0,2,.07,4.66-.27,9.52-1.55,22-7.79,58.73-18.68,69.56-2.26,2.25-3.75,2.28-4.25,2.3-7.69.2-10-26.44-11.26-40.76-.86-10-1.68-19.43-3.58-26.21-3.8-13.47-9.62-18.86-21.49-19.87l-.59,0-.59,0c-4.34.35-9.9,1.32-14.39,5.79-3.08,3.06-5.29,7.38-7.16,14-1.94,6.77-2.81,16.21-3.73,26.21-1.32,14.32-3.13,33.94-8.78,39.57a3.26,3.26,0,0,1-2.67,1.11c-9.57-.3-20.12-33.92-22.56-72-.32-4.88-.28-7.57-.25-9.54.11-6.13-.38-7.22-5.09-17.64-1.52-3.35-3.54-7.84-6.24-14-16.08-36.59-9.37-66.81,4.42-80.53.88-.87,1.81-1.71,2.77-2.5,15.78-12.93,47.4-5.59,62.07.16l2.58.94,2.53-1c14.54-5.63,46.19-12.83,61.92.18C1586.56,920.28,1583.52,957.91,1571.42,985.18Z"/><path d="M1999.8,1011.26l-.59,0c-4.34.35-9.9,1.32-14.39,5.79-3.08,3.06-5.29,7.38-7.16,14-1.94,6.77-2.81,16.21-3.73,26.21-1.32,14.32-3.13,33.94-8.78,39.57a3.26,3.26,0,0,1-2.67,1.11c-9.57-.3-20.12-33.92-22.56-72-.32-4.88-.28-7.57-.25-9.54.11-6.13-.38-7.22-5.09-17.64-1.52-3.35-3.54-7.84-6.24-14-16.08-36.59-9.37-66.81,4.42-80.53.88-.87,1.81-1.71,2.77-2.5,15.78-12.93,47.4-5.59,62.07.16l2.4.87V887.51c-11.31-4-50.44-15.81-73.59,3.16-1.32,1.08-2.6,2.24-3.8,3.43-24,23.85-21,65.66-7.44,96.52,2.72,6.21,4.77,10.73,6.3,14.12,3.87,8.57,3.87,8.57,3.82,11.47,0,2.1-.09,5.26.27,10.72.9,14.1,6.93,84.5,36.48,85.42a17.6,17.6,0,0,0,13.26-5.3c9.35-9.31,11.18-29.2,13-48.44.86-9.31,1.67-18.1,3.24-23.58,1.14-4,2.28-6.54,3.48-7.74.65-.64,1.7-1.28,4.82-1.59l.21,0v-14.44Z"/><path d="M8,1533.26c1.54,5.47,2.3,14.26,3.11,23.56,2.22,25.52,4.73,54.46,26,53.89,5.11-.13,9.83-2.31,14-6.48,18.14-18,22.45-72.59,22.88-78.75.38-5.47.33-8.63.31-10.73,0-2.89,0-2.89,3.88-11.45,1.54-3.38,3.61-7.89,6.38-14.1,7.89-17.77,11.6-37,10.46-54.18-1.29-19.54-8.63-35.38-21.23-45.81-23.2-19.2-62.68-7.35-73.69-3.48l-.11,0V1401l.18.06,2.53-1c14.54-5.63,46.19-12.83,61.92.19,21.93,18.18,18.89,55.81,6.79,83.07-2.73,6.14-4.78,10.61-6.31,14-4.77,10.42-5.27,11.51-5.19,17.64,0,2,.07,4.67-.27,9.53-1.55,22-7.8,58.72-18.68,69.55-2.26,2.25-3.75,2.29-4.25,2.3-7.7.21-10-26.44-11.26-40.76-.86-10-1.68-19.42-3.59-26.2-3.79-13.48-9.61-18.87-21.48-19.87l-.39,0v14.44C4,1524.28,5.68,1524.93,8,1533.26Z"/><path d="M573.8,1389.21c-23.2-19.2-62.68-7.35-73.69-3.48-11.19-4-50.48-15.9-73.7,3.13a49.41,49.41,0,0,0-3.8,3.43c-24,23.85-21,65.66-7.44,96.51,2.72,6.21,4.77,10.74,6.3,14.13,3.87,8.57,3.87,8.57,3.82,11.46,0,2.1-.09,5.27.27,10.73.9,14.1,6.93,84.49,36.47,85.42a17.68,17.68,0,0,0,13.27-5.3c9.35-9.31,11.18-29.21,12.95-48.45.86-9.3,1.67-18.09,3.24-23.58,1.14-4,2.28-6.53,3.48-7.73.65-.65,1.7-1.29,4.82-1.6,4.16.38,5.85.9,8.23,9.38,1.54,5.47,2.3,14.26,3.11,23.56,2.22,25.52,4.73,54.46,26,53.89,5.11-.13,9.83-2.31,14-6.48,18.14-18,22.45-72.59,22.88-78.75.38-5.47.33-8.63.31-10.73,0-2.89,0-2.89,3.88-11.45,1.54-3.38,3.61-7.89,6.38-14.1,7.89-17.77,11.6-37,10.46-54.18C593.74,1415.48,586.4,1399.64,573.8,1389.21Zm-2.38,94.15c-2.73,6.14-4.78,10.61-6.31,14-4.77,10.42-5.27,11.51-5.19,17.64,0,2,.07,4.67-.27,9.53-1.55,22-7.8,58.72-18.68,69.55-2.26,2.25-3.75,2.29-4.25,2.3-7.7.21-10-26.44-11.26-40.76-.86-10-1.68-19.42-3.59-26.2-3.79-13.48-9.61-18.87-21.48-19.87l-.59,0-.59,0c-4.34.35-9.9,1.32-14.39,5.79-3.08,3.07-5.29,7.38-7.16,14-1.94,6.77-2.81,16.22-3.73,26.22-1.32,14.32-3.13,33.93-8.78,39.56a3.24,3.24,0,0,1-2.67,1.12c-9.57-.3-20.12-33.93-22.57-72-.31-4.87-.27-7.57-.24-9.54.11-6.13-.38-7.21-5.09-17.64-1.52-3.35-3.54-7.83-6.24-14-16.08-36.58-9.37-66.8,4.42-80.52a36.33,36.33,0,0,1,2.77-2.5c15.78-12.94,47.4-5.59,62.07.16l2.58.93,2.53-1c14.54-5.63,46.19-12.83,61.92.19C586.56,1418.47,583.52,1456.1,571.42,1483.36Z"/><path d="M1073.8,1389.21c-23.2-19.2-62.68-7.35-73.69-3.48-11.19-4-50.48-15.9-73.7,3.13a49.41,49.41,0,0,0-3.8,3.43c-24,23.85-21,65.66-7.44,96.51,2.72,6.21,4.77,10.74,6.3,14.13,3.87,8.57,3.87,8.57,3.82,11.46,0,2.1-.09,5.27.27,10.73.9,14.1,6.93,84.49,36.47,85.42a17.68,17.68,0,0,0,13.27-5.3c9.35-9.31,11.18-29.21,13-48.45.86-9.3,1.67-18.09,3.24-23.58,1.14-4,2.28-6.53,3.48-7.73.65-.65,1.7-1.29,4.82-1.6,4.16.38,5.85.9,8.23,9.38,1.54,5.47,2.3,14.26,3.11,23.56,2.22,25.52,4.73,54.46,26,53.89,5.11-.13,9.83-2.31,14-6.48,18.14-18,22.45-72.59,22.88-78.75.38-5.47.33-8.63.31-10.73,0-2.89,0-2.89,3.88-11.45,1.54-3.38,3.61-7.89,6.38-14.1,7.89-17.77,11.6-37,10.46-54.18C1093.74,1415.48,1086.4,1399.64,1073.8,1389.21Zm-2.38,94.15c-2.73,6.14-4.78,10.61-6.31,14-4.77,10.42-5.27,11.51-5.19,17.64,0,2,.07,4.67-.27,9.53-1.55,22-7.79,58.72-18.68,69.55-2.26,2.25-3.75,2.29-4.25,2.3-7.69.21-10-26.44-11.26-40.76-.86-10-1.68-19.42-3.58-26.2-3.8-13.48-9.62-18.87-21.49-19.87l-.59,0-.59,0c-4.34.35-9.9,1.32-14.39,5.79-3.08,3.07-5.29,7.38-7.16,14-1.94,6.77-2.81,16.22-3.73,26.22-1.32,14.32-3.13,33.93-8.78,39.56a3.24,3.24,0,0,1-2.67,1.12c-9.57-.3-20.12-33.93-22.57-72-.31-4.87-.27-7.57-.24-9.54.11-6.13-.38-7.21-5.09-17.64-1.52-3.35-3.54-7.83-6.24-14-16.08-36.58-9.37-66.8,4.42-80.52a36.33,36.33,0,0,1,2.77-2.5c15.78-12.94,47.4-5.59,62.07.16l2.58.93,2.53-1c14.54-5.63,46.19-12.83,61.92.19C1086.56,1418.47,1083.52,1456.1,1071.42,1483.36Z"/><path d="M1573.8,1389.21c-23.2-19.2-62.68-7.35-73.69-3.48-11.19-4-50.48-15.9-73.7,3.13a49.41,49.41,0,0,0-3.8,3.43c-24,23.85-21,65.66-7.44,96.51,2.72,6.21,4.77,10.74,6.3,14.13,3.87,8.57,3.87,8.57,3.82,11.46,0,2.1-.09,5.27.27,10.73.9,14.1,6.93,84.49,36.48,85.42a17.68,17.68,0,0,0,13.26-5.3c9.35-9.31,11.18-29.21,13-48.45.86-9.3,1.67-18.09,3.24-23.58,1.14-4,2.28-6.53,3.48-7.73.65-.65,1.7-1.29,4.82-1.6,4.16.38,5.85.9,8.23,9.38,1.54,5.47,2.3,14.26,3.11,23.56,2.22,25.52,4.73,54.46,26,53.89,5.11-.13,9.83-2.31,14-6.48,18.14-18,22.45-72.59,22.88-78.75.38-5.47.33-8.63.31-10.73,0-2.89,0-2.89,3.88-11.45,1.54-3.38,3.61-7.89,6.38-14.1,7.89-17.77,11.6-37,10.46-54.18C1593.74,1415.48,1586.4,1399.64,1573.8,1389.21Zm-2.38,94.15c-2.73,6.14-4.78,10.61-6.31,14-4.77,10.42-5.27,11.51-5.19,17.64,0,2,.07,4.67-.27,9.53-1.55,22-7.79,58.72-18.68,69.55-2.26,2.25-3.75,2.29-4.25,2.3-7.69.21-10-26.44-11.26-40.76-.86-10-1.68-19.42-3.58-26.2-3.8-13.48-9.62-18.87-21.49-19.87l-.59,0-.59,0c-4.34.35-9.9,1.32-14.39,5.79-3.08,3.07-5.29,7.38-7.16,14-1.94,6.77-2.81,16.22-3.73,26.22-1.32,14.32-3.13,33.93-8.78,39.56a3.24,3.24,0,0,1-2.67,1.12c-9.57-.3-20.12-33.93-22.56-72-.32-4.87-.28-7.57-.25-9.54.11-6.13-.38-7.21-5.09-17.64-1.52-3.35-3.54-7.83-6.24-14-16.08-36.58-9.37-66.8,4.42-80.52a36.33,36.33,0,0,1,2.77-2.5c15.78-12.94,47.4-5.59,62.07.16l2.58.93,2.53-1c14.54-5.63,46.19-12.83,61.92.19C1586.56,1418.47,1583.52,1456.1,1571.42,1483.36Z"/><path d="M1999.8,1509.45l-.59,0c-4.34.35-9.9,1.32-14.39,5.79-3.08,3.07-5.29,7.38-7.16,14-1.94,6.77-2.81,16.22-3.73,26.22-1.32,14.32-3.13,33.93-8.78,39.56a3.24,3.24,0,0,1-2.67,1.12c-9.57-.3-20.12-33.93-22.56-72-.32-4.87-.28-7.57-.25-9.54.11-6.13-.38-7.21-5.09-17.64-1.52-3.35-3.54-7.83-6.24-14-16.08-36.58-9.37-66.8,4.42-80.52a36.33,36.33,0,0,1,2.77-2.5c15.78-12.94,47.4-5.59,62.07.16l2.4.87v-15.33c-11.31-4-50.44-15.81-73.59,3.17a49.41,49.41,0,0,0-3.8,3.43c-24,23.85-21,65.66-7.44,96.51,2.72,6.21,4.77,10.74,6.3,14.13,3.87,8.57,3.87,8.57,3.82,11.46,0,2.1-.09,5.27.27,10.73.9,14.1,6.93,84.49,36.48,85.42a17.68,17.68,0,0,0,13.26-5.3c9.35-9.31,11.18-29.21,13-48.45.86-9.3,1.67-18.09,3.24-23.58,1.14-4,2.28-6.53,3.48-7.73.65-.65,1.7-1.29,4.82-1.6l.21,0v-14.44Z"/><path d="M289.07,164.18c-11.68-9.67-35.18-4.32-46-.14l-1.89.73-1.91-.7c-10.9-4.27-34.38-9.72-46.1-.12-.72.59-1.41,1.21-2.06,1.86-10.24,10.19-15.23,32.64-3.28,59.82,2,4.57,3.51,7.89,4.63,10.38,3.5,7.75,3.86,8.55,3.79,13.1,0,1.47-.06,3.47.17,7.09,1.82,28.26,9.65,53.24,16.76,53.46a2.42,2.42,0,0,0,2-.83c4.2-4.18,5.54-18.75,6.52-29.38C222.39,272,223,265,224.48,260s3-8.11,5.32-10.39c3.33-3.32,7.46-4,10.68-4.3l.44,0,.44,0c8.82.75,13.14,4.75,16,14.76,1.41,5,2,12.05,2.67,19.47.92,10.63,2.64,30.42,8.36,30.27.36,0,1.48,0,3.16-1.71,8.08-8,12.72-35.3,13.87-51.66.25-3.61.22-5.61.2-7.08-.06-4.55.31-5.36,3.85-13.1,1.14-2.48,2.66-5.8,4.69-10.36C303.11,205.63,305.37,177.68,289.07,164.18Z"/><path d="M787.69,164.18c-11.68-9.67-35.19-4.32-46-.14l-1.88.73-1.92-.7c-10.9-4.27-34.38-9.72-46.1-.12-.71.59-1.4,1.21-2.06,1.86-10.24,10.19-15.22,32.64-3.28,59.82,2,4.57,3.51,7.89,4.64,10.38,3.49,7.75,3.86,8.55,3.78,13.1,0,1.47-.06,3.47.18,7.09,1.82,28.26,9.65,53.24,16.76,53.46a2.4,2.4,0,0,0,2-.83c4.2-4.18,5.54-18.75,6.52-29.38C721,272,721.65,265,723.09,260s3-8.11,5.32-10.39c3.34-3.32,7.47-4,10.69-4.3l.44,0,.44,0c8.81.75,13.14,4.75,15.95,14.76,1.42,5,2,12.05,2.67,19.47.93,10.63,2.65,30.42,8.36,30.27.37,0,1.48,0,3.16-1.71,8.08-8,12.72-35.3,13.87-51.66.25-3.61.22-5.61.2-7.08-.06-4.55.31-5.36,3.85-13.1,1.14-2.48,2.66-5.8,4.69-10.36C801.72,205.63,804,177.68,787.69,164.18Z"/><path d="M1286.3,164.18c-11.68-9.67-35.18-4.32-46-.14l-1.89.73-1.91-.7c-10.9-4.27-34.38-9.72-46.1-.12-.72.59-1.41,1.21-2.06,1.86-10.24,10.19-15.23,32.64-3.28,59.82,2,4.57,3.5,7.89,4.63,10.38,3.5,7.75,3.86,8.55,3.79,13.1,0,1.47-.06,3.47.17,7.09,1.82,28.26,9.65,53.24,16.76,53.46a2.42,2.42,0,0,0,2-.83c4.2-4.18,5.54-18.75,6.52-29.38.68-7.43,1.33-14.45,2.77-19.47s3-8.11,5.32-10.39c3.33-3.32,7.46-4,10.68-4.3l.44,0,.44,0c8.82.75,13.14,4.75,16,14.76,1.41,5,2,12.05,2.67,19.47.92,10.63,2.64,30.42,8.36,30.27.37,0,1.48,0,3.16-1.71,8.08-8,12.72-35.3,13.87-51.66.25-3.61.22-5.61.2-7.08-.06-4.55.31-5.36,3.85-13.1,1.14-2.48,2.66-5.8,4.69-10.36C1300.34,205.63,1302.6,177.68,1286.3,164.18Z"/><path d="M1784.92,164.18c-11.68-9.67-35.19-4.32-46-.14l-1.88.73-1.92-.7c-10.89-4.27-34.38-9.72-46.1-.12-.71.59-1.4,1.21-2.06,1.86-10.24,10.19-15.22,32.64-3.28,59.82,2,4.57,3.51,7.89,4.64,10.38,3.49,7.75,3.86,8.55,3.78,13.1,0,1.47-.06,3.47.18,7.09,1.82,28.26,9.65,53.24,16.76,53.46a2.39,2.39,0,0,0,2-.83c4.2-4.18,5.55-18.75,6.52-29.38.69-7.43,1.33-14.45,2.77-19.47s3-8.11,5.33-10.39c3.33-3.32,7.46-4,10.68-4.3l.44,0,.44,0c8.82.75,13.14,4.75,16,14.76,1.42,5,2,12.05,2.67,19.47.93,10.63,2.65,30.42,8.36,30.27.37,0,1.48,0,3.16-1.71,8.08-8,12.72-35.3,13.87-51.66.25-3.61.22-5.61.2-7.08-.06-4.55.31-5.36,3.86-13.1,1.13-2.48,2.65-5.8,4.68-10.36C1799,205.63,1801.21,177.68,1784.92,164.18Z"/><path d="M289.07,662.79c-11.68-9.66-35.18-4.31-46-.14l-1.89.73-1.91-.69c-10.9-4.27-34.38-9.73-46.1-.12-.72.59-1.41,1.21-2.06,1.86-10.24,10.19-15.23,32.64-3.28,59.81,2,4.57,3.51,7.9,4.63,10.39,3.5,7.74,3.86,8.55,3.79,13.1,0,1.46-.06,3.47.17,7.09,1.82,28.26,9.65,53.23,16.76,53.46a2.45,2.45,0,0,0,2-.83c4.2-4.19,5.54-18.75,6.52-29.39.68-7.43,1.33-14.44,2.77-19.47s3-8.11,5.32-10.38c3.33-3.32,7.46-4,10.68-4.3l.44,0,.44,0c8.82.75,13.14,4.75,16,14.76,1.41,5,2,12,2.67,19.46.92,10.64,2.64,30.43,8.36,30.28.36,0,1.48,0,3.16-1.71,8.08-8.05,12.72-35.3,13.87-51.66.25-3.61.22-5.62.2-7.08-.06-4.56.31-5.37,3.85-13.1,1.14-2.49,2.66-5.81,4.69-10.36C303.11,704.25,305.37,676.3,289.07,662.79Z"/><path d="M787.69,662.79c-11.68-9.66-35.19-4.31-46-.14l-1.88.73-1.92-.69c-10.9-4.27-34.38-9.73-46.1-.12-.71.59-1.4,1.21-2.06,1.86-10.24,10.19-15.22,32.64-3.28,59.81,2,4.57,3.51,7.9,4.64,10.39,3.49,7.74,3.86,8.55,3.78,13.1,0,1.46-.06,3.47.18,7.09,1.82,28.26,9.65,53.23,16.76,53.46a2.43,2.43,0,0,0,2-.83c4.2-4.19,5.54-18.75,6.52-29.39.69-7.43,1.33-14.44,2.77-19.47s3-8.11,5.32-10.38c3.34-3.32,7.47-4,10.69-4.3l.44,0,.44,0c8.81.75,13.14,4.75,15.95,14.76,1.42,5,2,12,2.67,19.46.93,10.64,2.65,30.43,8.36,30.28.37,0,1.48,0,3.16-1.71,8.08-8.05,12.72-35.3,13.87-51.66.25-3.61.22-5.62.2-7.08-.06-4.56.31-5.37,3.85-13.1,1.14-2.49,2.66-5.81,4.69-10.36C801.72,704.25,804,676.3,787.69,662.79Z"/><path d="M1286.3,662.79c-11.68-9.66-35.18-4.31-46-.14l-1.89.73-1.91-.69c-10.9-4.27-34.38-9.73-46.1-.12-.72.59-1.41,1.21-2.06,1.86-10.24,10.19-15.23,32.64-3.28,59.81,2,4.57,3.5,7.9,4.63,10.39,3.5,7.74,3.86,8.55,3.79,13.1,0,1.46-.06,3.47.17,7.09,1.82,28.26,9.65,53.23,16.76,53.46a2.45,2.45,0,0,0,2-.83c4.2-4.19,5.54-18.75,6.52-29.39.68-7.43,1.33-14.44,2.77-19.47s3-8.11,5.32-10.38c3.33-3.32,7.46-4,10.68-4.3l.44,0,.44,0c8.82.75,13.14,4.75,16,14.76,1.41,5,2,12,2.67,19.46.92,10.64,2.64,30.43,8.36,30.28.37,0,1.48,0,3.16-1.71,8.08-8.05,12.72-35.3,13.87-51.66.25-3.61.22-5.62.2-7.08-.06-4.56.31-5.37,3.85-13.1,1.14-2.49,2.66-5.81,4.69-10.36C1300.34,704.25,1302.6,676.3,1286.3,662.79Z"/><path d="M1784.92,662.79c-11.68-9.66-35.19-4.31-46-.14l-1.88.73-1.92-.69c-10.89-4.27-34.38-9.73-46.1-.12-.71.59-1.4,1.21-2.06,1.86-10.24,10.19-15.22,32.64-3.28,59.81,2,4.57,3.51,7.9,4.64,10.39,3.49,7.74,3.86,8.55,3.78,13.1,0,1.46-.06,3.47.18,7.09,1.82,28.26,9.65,53.23,16.76,53.46a2.42,2.42,0,0,0,2-.83c4.2-4.19,5.55-18.75,6.52-29.39.69-7.43,1.33-14.44,2.77-19.47s3-8.11,5.33-10.38c3.33-3.32,7.46-4,10.68-4.3l.44,0,.44,0c8.82.75,13.14,4.75,16,14.76,1.42,5,2,12,2.67,19.46.93,10.64,2.65,30.43,8.36,30.28.37,0,1.48,0,3.16-1.71,8.08-8.05,12.72-35.3,13.87-51.66.25-3.61.22-5.62.2-7.08-.06-4.56.31-5.37,3.86-13.1,1.13-2.49,2.65-5.81,4.68-10.36C1799,704.25,1801.21,676.3,1784.92,662.79Z"/><path d="M289.07,1158.89c-11.68-9.66-35.18-4.32-46-.14l-1.89.73-1.91-.69c-10.9-4.27-34.38-9.73-46.1-.12a26,26,0,0,0-2.06,1.86c-10.24,10.19-15.23,32.63-3.28,59.81,2,4.57,3.51,7.9,4.63,10.39,3.5,7.74,3.86,8.55,3.79,13.1,0,1.46-.06,3.46.17,7.09,1.82,28.25,9.65,53.23,16.76,53.45a2.42,2.42,0,0,0,2-.83c4.2-4.18,5.54-18.75,6.52-29.38.68-7.43,1.33-14.44,2.77-19.47s3-8.11,5.32-10.39c3.33-3.32,7.46-4,10.68-4.3l.44,0,.44,0c8.82.74,13.14,4.75,16,14.75,1.41,5,2,12,2.67,19.47.92,10.63,2.64,30.43,8.36,30.27.36,0,1.48,0,3.16-1.71,8.08-8,12.72-35.3,13.87-51.66.25-3.61.22-5.61.2-7.07-.06-4.56.31-5.37,3.85-13.1,1.14-2.49,2.66-5.81,4.69-10.37C303.11,1200.34,305.37,1172.39,289.07,1158.89Z"/><path d="M787.69,1158.89c-11.68-9.66-35.19-4.32-46-.14l-1.88.73-1.92-.69c-10.9-4.27-34.38-9.73-46.1-.12-.71.58-1.4,1.21-2.06,1.86-10.24,10.19-15.22,32.63-3.28,59.81,2,4.57,3.51,7.9,4.64,10.39,3.49,7.74,3.86,8.55,3.78,13.1,0,1.46-.06,3.46.18,7.09,1.82,28.25,9.65,53.23,16.76,53.45a2.4,2.4,0,0,0,2-.83c4.2-4.18,5.54-18.75,6.52-29.38.69-7.43,1.33-14.44,2.77-19.47s3-8.11,5.32-10.39c3.34-3.32,7.47-4,10.69-4.3l.44,0,.44,0c8.81.74,13.14,4.75,15.95,14.75,1.42,5,2,12,2.67,19.47.93,10.63,2.65,30.43,8.36,30.27.37,0,1.48,0,3.16-1.71,8.08-8,12.72-35.3,13.87-51.66.25-3.61.22-5.61.2-7.07-.06-4.56.31-5.37,3.85-13.1,1.14-2.49,2.66-5.81,4.69-10.37C801.72,1200.34,804,1172.39,787.69,1158.89Z"/><path d="M1286.3,1158.89c-11.68-9.66-35.18-4.32-46-.14l-1.89.73-1.91-.69c-10.9-4.27-34.38-9.73-46.1-.12a26,26,0,0,0-2.06,1.86c-10.24,10.19-15.23,32.63-3.28,59.81,2,4.57,3.5,7.9,4.63,10.39,3.5,7.74,3.86,8.55,3.79,13.1,0,1.46-.06,3.46.17,7.09,1.82,28.25,9.65,53.23,16.76,53.45a2.42,2.42,0,0,0,2-.83c4.2-4.18,5.54-18.75,6.52-29.38.68-7.43,1.33-14.44,2.77-19.47s3-8.11,5.32-10.39c3.33-3.32,7.46-4,10.68-4.3l.44,0,.44,0c8.82.74,13.14,4.75,16,14.75,1.41,5,2,12,2.67,19.47.92,10.63,2.64,30.43,8.36,30.27.37,0,1.48,0,3.16-1.71,8.08-8,12.72-35.3,13.87-51.66.25-3.61.22-5.61.2-7.07-.06-4.56.31-5.37,3.85-13.1,1.14-2.49,2.66-5.81,4.69-10.37C1300.34,1200.34,1302.6,1172.39,1286.3,1158.89Z"/><path d="M1784.92,1158.89c-11.68-9.66-35.19-4.32-46-.14l-1.88.73-1.92-.69c-10.89-4.27-34.38-9.73-46.1-.12-.71.58-1.4,1.21-2.06,1.86-10.24,10.19-15.22,32.63-3.28,59.81,2,4.57,3.51,7.9,4.64,10.39,3.49,7.74,3.86,8.55,3.78,13.1,0,1.46-.06,3.46.18,7.09,1.82,28.25,9.65,53.23,16.76,53.45a2.39,2.39,0,0,0,2-.83c4.2-4.18,5.55-18.75,6.52-29.38.69-7.43,1.33-14.44,2.77-19.47s3-8.11,5.33-10.39c3.33-3.32,7.46-4,10.68-4.3l.44,0,.44,0c8.82.74,13.14,4.75,16,14.75,1.42,5,2,12,2.67,19.47.93,10.63,2.65,30.43,8.36,30.27.37,0,1.48,0,3.16-1.71,8.08-8,12.72-35.3,13.87-51.66.25-3.61.22-5.61.2-7.07-.06-4.56.31-5.37,3.86-13.1,1.13-2.49,2.65-5.81,4.68-10.37C1799,1200.34,1801.21,1172.39,1784.92,1158.89Z"/><path d="M289.07,1655c-11.68-9.67-35.18-4.32-46-.14l-1.89.73-1.91-.7c-10.9-4.27-34.38-9.72-46.1-.12-.72.59-1.41,1.21-2.06,1.86-10.24,10.19-15.23,32.64-3.28,59.81,2,4.57,3.51,7.9,4.63,10.39,3.5,7.74,3.86,8.55,3.79,13.1,0,1.47-.06,3.47.17,7.09,1.82,28.26,9.65,53.24,16.76,53.46a2.42,2.42,0,0,0,2-.83c4.2-4.18,5.54-18.75,6.52-29.39.68-7.42,1.33-14.44,2.77-19.47s3-8.1,5.32-10.38c3.33-3.32,7.46-4,10.68-4.3l.44,0,.44,0c8.82.75,13.14,4.75,16,14.76,1.41,5,2,12.05,2.67,19.47.92,10.63,2.64,30.42,8.36,30.27.36,0,1.48,0,3.16-1.71,8.08-8,12.72-35.3,13.87-51.66.25-3.61.22-5.61.2-7.08-.06-4.55.31-5.36,3.85-13.1,1.14-2.48,2.66-5.8,4.69-10.36C303.11,1696.44,305.37,1668.49,289.07,1655Z"/><path d="M787.69,1655c-11.68-9.67-35.19-4.32-46-.14l-1.88.73-1.92-.7c-10.9-4.27-34.38-9.72-46.1-.12-.71.59-1.4,1.21-2.06,1.86-10.24,10.19-15.22,32.64-3.28,59.81,2,4.57,3.51,7.9,4.64,10.39,3.49,7.74,3.86,8.55,3.78,13.1,0,1.47-.06,3.47.18,7.09,1.82,28.26,9.65,53.24,16.76,53.46a2.4,2.4,0,0,0,2-.83c4.2-4.18,5.54-18.75,6.52-29.39.69-7.42,1.33-14.44,2.77-19.47s3-8.1,5.32-10.38c3.34-3.32,7.47-4,10.69-4.3l.44,0,.44,0c8.81.75,13.14,4.75,15.95,14.76,1.42,5,2,12.05,2.67,19.47.93,10.63,2.65,30.42,8.36,30.27.37,0,1.48,0,3.16-1.71,8.08-8,12.72-35.3,13.87-51.66.25-3.61.22-5.61.2-7.08-.06-4.55.31-5.36,3.85-13.1,1.14-2.48,2.66-5.8,4.69-10.36C801.72,1696.44,804,1668.49,787.69,1655Z"/><path d="M1286.3,1655c-11.68-9.67-35.18-4.32-46-.14l-1.89.73-1.91-.7c-10.9-4.27-34.38-9.72-46.1-.12-.72.59-1.41,1.21-2.06,1.86-10.24,10.19-15.23,32.64-3.28,59.81,2,4.57,3.5,7.9,4.63,10.39,3.5,7.74,3.86,8.55,3.79,13.1,0,1.47-.06,3.47.17,7.09,1.82,28.26,9.65,53.24,16.76,53.46a2.42,2.42,0,0,0,2-.83c4.2-4.18,5.54-18.75,6.52-29.39.68-7.42,1.33-14.44,2.77-19.47s3-8.1,5.32-10.38c3.33-3.32,7.46-4,10.68-4.3l.44,0,.44,0c8.82.75,13.14,4.75,16,14.76,1.41,5,2,12.05,2.67,19.47.92,10.63,2.64,30.42,8.36,30.27.37,0,1.48,0,3.16-1.71,8.08-8,12.72-35.3,13.87-51.66.25-3.61.22-5.61.2-7.08-.06-4.55.31-5.36,3.85-13.1,1.14-2.48,2.66-5.8,4.69-10.36C1300.34,1696.44,1302.6,1668.49,1286.3,1655Z"/><path d="M1784.92,1655c-11.68-9.67-35.19-4.32-46-.14l-1.88.73-1.92-.7c-10.89-4.27-34.38-9.72-46.1-.12-.71.59-1.4,1.21-2.06,1.86-10.24,10.19-15.22,32.64-3.28,59.81,2,4.57,3.51,7.9,4.64,10.39,3.49,7.74,3.86,8.55,3.78,13.1,0,1.47-.06,3.47.18,7.09,1.82,28.26,9.65,53.24,16.76,53.46a2.39,2.39,0,0,0,2-.83c4.2-4.18,5.55-18.75,6.52-29.39.69-7.42,1.33-14.44,2.77-19.47s3-8.1,5.33-10.38c3.33-3.32,7.46-4,10.68-4.3l.44,0,.44,0c8.82.75,13.14,4.75,16,14.76,1.42,5,2,12.05,2.67,19.47.93,10.63,2.65,30.42,8.36,30.27.37,0,1.48,0,3.16-1.71,8.08-8,12.72-35.3,13.87-51.66.25-3.61.22-5.61.2-7.08-.06-4.55.31-5.36,3.86-13.1,1.13-2.48,2.65-5.8,4.68-10.36C1799,1696.44,1801.21,1668.49,1784.92,1655Z"/></g></svg>