<svg xmlns="http://www.w3.org/2000/svg" width="557.237" height="640.188" viewBox="0 0 557.237 640.188"><path d="M238.559.153c-.518-.02-.995-.152-1.513-.152a36.587 36.587 0 1 0 0 73.175c.1 0 .193-.031.294-.031v.152c136.37.02 246.924 110.585 246.924 246.965S373.701 567.216 237.31 567.216a246.155 246.155 0 0 1-174.43-72.16 36.532 36.532 0 0 0-62.881 25.36 36.438 36.438 0 0 0 10.923 26.05h-.01a319.052 319.052 0 0 0 226.285 93.722c176.754 0 320.038-143.284 320.038-320.038C557.237 143.853 414.684.883 238.559.153Z" fill="#333"/></svg>