<svg xmlns="http://www.w3.org/2000/svg" xmlns:xlink="http://www.w3.org/1999/xlink" viewBox="0 0 418.46 475.09"><defs><linearGradient id="linear-gradient" x1="70.61" y1="330.22" x2="429.71" y2="8.39" gradientTransform="translate(-28.42 19.49) rotate(-5.82)" gradientUnits="userSpaceOnUse"><stop offset="0" stop-color="#36459B"/><stop offset="0.85" stop-color="#00abc4"/></linearGradient></defs><title>Asset 1</title><g id="Layer_2" data-name="Layer 2"><g id="Layer_1-2" data-name="Layer 1"><path d="M143.3,391.53C64.74,320.32-11.54,212.46,1.46,109.94,6.81,67.75,35,23.34,77.51,11.6c45.8-12.65,81.56,9.87,127.88,10,51,.11,99.23-34,152.49-16.65C458.61,37.74,412.21,170.22,372,228.05c-10.63,15.3-44.76,63.1-48.29,40.44-9.23-59.24-26.68-67.61-57.52-75.23-32.68-8.07-80.24,8.61-92.4,39.25-26.47,66.76,31,137.89,64.57,191.19.89,1.42,38.8,48.72,31,50.86-21.12,5.77-69.06-37.36-84.67-48.95C171.14,415.55,157.18,404.11,143.3,391.53Z" style="fill:url(#linear-gradient)"/></g></g></svg>