<?xml version="1.0" ?><svg id="Layer_1" style="enable-background:new 0 0 52 52;" version="1.1" viewBox="0 0 52 52" xml:space="preserve" xmlns="http://www.w3.org/2000/svg" xmlns:xlink="http://www.w3.org/1999/xlink"><style type="text/css">
	.st0{fill:#231F20;}
</style><g><g><path class="st0" d="M4.2829294,3.0241461c7.3880577-0.0600739,14.7761164-0.1201477,22.1641731-0.1802216    c3.5334187-0.0287309,7.0668392-0.057462,10.600256-0.0861928c2.6946182-0.0219104,8.5319443-1.1367966,10.7622604,0.5523293    c1.6370697,1.2398329,1.1283493,2.5626864,1.1311226,4.5557055c0.0027313,1.9625092,0.0054626,3.9250193,0.008194,5.8875284    c0.0054626,3.9250193,0.0109215,7.8500376,0.0163841,11.7750578c0.0045547,3.2708492,0.0091057,6.5416965,0.0136566,9.8125477    c0.0027313,1.9625092,0.0054626,3.9250183,0.008194,5.8875275c0.0016937,1.2178917,0.4818878,4.7777176,0.008194,5.8875275    c-1.368618,3.2065277-8.1601295,1.859951-10.8919754,1.840271c-3.6650543-0.0264091-7.3301086-0.0528145-10.995163-0.0792236    c-3.6650543-0.0264053-7.3301086-0.0528145-10.995163-0.0792198c-2.7635107-0.0199127-8.4062853,0.978878-10.9951649-0.0792236    c-3.2740164-1.3381195-1.8140328-8.3420143-1.8395097-11.3436584c-0.0281301-3.3142242-0.0562601-6.6284466-0.0843899-9.9426708    c-0.033756-3.9770699-0.067512-7.9541378-0.1012681-11.9312077C3.0829453,14.3480511,2.3453448,2.3677468,4.5947113,2.74774    c1.4163365,0.2392669,2.0250726-1.928571,0.5981393-2.1696277c-6.6229224-1.1188333-4.3886442,10.3839397-4.3585582,13.9286423    c0.047821,5.634181,0.095642,11.268363,0.1434629,16.9025421c0.044359,5.2262917-0.7082777,11.2056198,0.1622748,16.34832    c0.2767262,1.6347351,0.7026128,2.4878311,2.4177022,3.0503578c1.9132059,0.6275063,4.5688324,0.1822624,6.5579681,0.1965942    c2.9986811,0.0216064,5.9973631,0.0432129,8.9960432,0.0648193c5.3309879,0.0384102,10.6619778,0.0768204,15.9929657,0.1152306    c4.6962929,0.0338364,10.4549065,0.9502068,15.0496902-0.1147652c0.3827629-0.0887146,0.6776009-0.4196014,0.7857437-0.7857437    c0.9937134-3.3644257,0.2991714-7.5149956,0.2942963-11.0181923c-0.0063744-4.5791893-0.0127449-9.1583767-0.0191193-13.737566    c-0.0063705-4.5791893-0.0127449-9.1583786-0.0191154-13.7375669c-0.0034256-2.4614973,1.0083351-7.3886719-0.3648186-9.5322342    c-1.1946678-1.8649331-3.0971031-1.7880936-5.1110878-1.8213416c-4.4917793-0.0741531-8.9987984,0.0731711-13.4912376,0.1097001    C22.9136848,0.6226556,13.5983067,0.6984009,4.2829294,0.7741462C2.8357646,0.7859133,2.8323507,3.0359411,4.2829294,3.0241461    L4.2829294,3.0241461z"/></g><g><path class="st0" d="M2.6992586,14.7025928c15.583334,0.0003719,31.166666,0.0007448,46.75,0.0011177    c1.4477692,0.0000343,1.4501648-2.2499657,0-2.25c-15.5833321-0.0003729-31.1666641-0.0007458-46.75-0.0011177    C1.2514895,12.4525576,1.2490945,14.7025576,2.6992586,14.7025928L2.6992586,14.7025928z"/></g><g><path class="st0" d="M16.3659248,8.8420286c1.4477673,0,1.4501648-2.2499995,0-2.2499995    C14.9181566,6.5920291,14.9157581,8.8420286,16.3659248,8.8420286L16.3659248,8.8420286z"/></g><g><path class="st0" d="M11.6159239,8.8420286c1.4477673,0,1.4501657-2.2499995,0-2.2499995    C10.1681566,6.5920291,10.1657581,8.8420286,11.6159239,8.8420286L11.6159239,8.8420286z"/></g><g><path class="st0" d="M7.2825904,9.0086956c1.4477677,0,1.4501662-2.25,0-2.25    C5.8348231,6.7586956,5.8324251,9.0086956,7.2825904,9.0086956L7.2825904,9.0086956z"/></g><g><path class="st0" d="M30.6888733,24.2009449c3.2067528,2.7438774,2.0931396,9.9577312-1.2449989,12.0384235    c-4.4292259,2.7607803-10.2296467,1.7115288-12.7147522-3.0636406c-1.5291204-2.9382286-0.8708935-7.6719971,1.2955933-10.0654449    c3.5242519-3.8934479,10.0892506-2.4133892,13.014555,1.3656693c0.8851318,1.1434574,2.466959-0.4593716,1.5909901-1.5909901    c-1.8895035-2.440958-3.8144646-4.0060692-6.9089279-4.1487236c-2.8447628-0.1311417-6.5000172-0.2943935-8.6437016,1.9144402    c-1.7386045,1.7914429-3.1232719,3.6317635-3.254652,6.1184692c-0.1753988,3.3198795-0.2017603,5.9191952,1.7658081,8.6345539    c3.8304024,5.28619,10.9668388,6.2741203,16.188736,1.9995728c3.7849197-3.0982666,4.2961044-11.5471611,0.5023384-14.7933197    C31.1852074,21.6733055,29.5864735,23.2576714,30.6888733,24.2009449L30.6888733,24.2009449z"/></g><g><path class="st0" d="M28.1992569,26.4253616c1.4477673,0,1.4501667-2.25,0-2.25    C26.7514896,24.1753616,26.7490921,26.4253616,28.1992569,26.4253616L28.1992569,26.4253616z"/></g><g><path class="st0" d="M25.4494915,22.762207c-2.8365669-0.0095406-6.49226-0.5632229-7.4441757,2.9159279    c-0.3826523,1.3985577,1.7873516,1.9953213,2.1696281,0.5981407c0.2842636-1.0389519,1.0069923-1.2612171,1.9758854-1.2751637    c1.0988884-0.0158176,2.1996994,0.0073986,3.2986622,0.011095C26.8974533,25.0170765,26.8994293,22.7670822,25.4494915,22.762207    L25.4494915,22.762207z"/></g><g><path class="st0" d="M32.0062447,35.6787949c1.2224541,0.9164391,2.6473656,1.7790833,3.7619858,2.824337    c0.6649132,0.6235313,2.3794518,3.7579536,0.7293663,4.4792671c-1.0249176,0.4480286-2.7893715-1.3465614-3.3727074-1.9498329    c-1.0872879-1.1244431-2.0616856-2.3495941-2.9648895-3.6248474c-0.8302078-1.1721916-2.7821674-0.0494919-1.9428082,1.1356163    c1.6359177,2.3097916,6.6234837,9.2852364,10.0758305,5.9044151c1.4955978-1.4646149,1.1426544-3.9449234,0.4325027-5.6930237    c-0.9154816-2.2535324-3.7196388-3.6213379-5.5836601-5.0187416    C31.9829025,32.8671417,30.8601646,34.8196068,32.0062447,35.6787949L32.0062447,35.6787949z"/></g></g></svg>