<?xml version="1.0" ?><svg id="Layer_1" style="enable-background:new 0 0 52 52;" version="1.1" viewBox="0 0 52 52" xml:space="preserve" xmlns="http://www.w3.org/2000/svg" xmlns:xlink="http://www.w3.org/1999/xlink"><style type="text/css">
	.st0{fill:#231F20;}
</style><g><g><path class="st0" d="M25.2156906,29.1487713c0.2593994,0.1804123-0.111166,1.8453751-0.1883545,2.0905743    c-0.2150478,0.6831207-0.6240597,1.5010452-1.3080177,1.8143883c-1.2082691,0.5535507-4.2975864,0.1625443-4.825779-1.0231094    c-0.4524975-1.0157375-0.4236107-3.5055523,0.261652-4.428175c0.6774483-0.9120998,1.7329121-0.7028522,2.7029533-0.6856365    c1.0468616,0.0185795,2.7101593-0.2626839,2.7355099,1.2509651c0.0242233,1.4463177,2.2742996,1.4508076,2.25,0    c-0.0243912-1.4562836-0.7885742-2.822731-2.2456837-3.2875099c-1.4856625-0.4738884-4.0104141-0.4962959-5.4869652,0.0236664    c-3.0742798,1.0825977-3.2222204,5.8597469-2.1736298,8.4090424c0.6216011,1.5112152,1.9590168,1.8091812,3.4481258,1.9825783    c1.4691563,0.1710739,3.5240784,0.3866272,4.8299217-0.4797821c2.0243816-1.3431511,3.4664211-5.9889164,1.1358852-7.6098118    C25.1598568,26.3773022,24.0339031,28.3268337,25.2156906,29.1487713L25.2156906,29.1487713z"/></g><g><path class="st0" d="M31.9418983,35.4653282c-3.2202911,3.3501091-11.8838425,5.0138168-15.6209164,1.2939453    c-3.065836-3.0517235-5.3089628-8.2479134-2.9691019-12.2925053c6.3221579-10.9282341,23.936058,0.9000874,18.4141083,11.2262478    c-0.682642,1.2765541,1.258997,2.41436,1.9428082,1.1356163C40.3165245,24.472044,20.9463978,10.5316334,12.12959,22.3038807    c-3.9762726,5.3091393-1.3727007,12.1949787,3.0071917,16.4547596c4.5021191,4.3786545,14.3937778,2.4613533,18.3961086-1.7023201    C34.5365868,36.0121613,32.9477158,34.4189644,31.9418983,35.4653282z"/></g><g><path class="st0" d="M39.2215805,25.3520107c1.3881111,6.4315815,0.6566963,11.6068439-3.7500534,16.5520954    c-3.2856255,3.68713-7.8282261,6.4804153-12.889555,6.6010475c-4.9504166,0.1179924-11.4238644-2.7076797-14.3554144-6.7736893    c-2.1122355-2.9296341-3.5635567-7.7763824-4.4475799-11.3021107c-1.3151164-5.2450466,2.1085577-7.3660297,4.8611808-11.0027771    c2.9446163-3.8904066,5.7096376-6.5399561,10.6674948-7.4026442c8.8423347-1.5386038,18.6227894,5.0294008,20.3141994,14.0788393    c0.2656937,1.4215126,2.4345932,0.8194809,2.1696281-0.5981388C39.8652306,15.1987381,28.7422085,7.9962363,18.7095127,9.8543043    c-5.5819893,1.0337925-8.8465967,4.0205717-12.0121632,8.4366541c-3.356133,4.6819305-6.8493052,6.4010372-5.0879989,12.7365341    c1.3348914,4.8016624,3.1600366,11.2325935,7.1150904,14.5383377c4.1804829,3.4941635,10.2721319,5.7607193,15.7247477,5.0306091    c5.6053925-0.7505684,10.3744812-4.1765022,13.804985-8.5402374c4.4030037-5.6007919,4.5955391-10.5445938,3.1370316-17.30233    C41.0858803,23.3391933,38.9163666,23.9378567,39.2215805,25.3520107L39.2215805,25.3520107z"/></g><g><path class="st0" d="M21.1576443,8.5602427c0.0148716,1.210947-0.0352325,2.4173269-0.150465,3.6228514    c-0.0578957,0.6056786,0.5585003,1.125,1.125,1.125c0.6565857,0,1.0669403-0.5175934,1.125-1.125    c0.1152325-1.2055426,0.1653366-2.4119234,0.150465-3.6228514C23.3898754,7.1134591,21.1398277,7.1095266,21.1576443,8.5602427    L21.1576443,8.5602427z"/></g><g><path class="st0" d="M22.154211,13.5602999c1.4477673,0,1.4501648-2.25,0-2.25    C20.7064438,11.3102999,20.7040443,13.5602999,22.154211,13.5602999L22.154211,13.5602999z"/></g><g><path class="st0" d="M0.2792423,30.5616093c1.5072525-0.0278816,3.0062764,0.0439873,4.5039144,0.2159252    c1.4360018,0.1648617,1.4242058-2.0864925,0-2.25c-1.4976726-0.1719437-2.9966967-0.2438068-4.5039144-0.2159252    C-1.1668766,28.3383598-1.171585,30.5884457,0.2792423,30.5616093L0.2792423,30.5616093z"/></g><g><path class="st0" d="M20.8926792,47.0608673c0.0603924,1.3784561,0.0334587,2.7523117-0.0809059,4.1273155    c-0.1200199,1.4429741,2.1306419,1.4350281,2.25,0c0.1143665-1.3750343,0.1412964-2.7488861,0.0809059-4.1273155    C23.0794926,45.6185989,20.8291492,45.6107407,20.8926792,47.0608673L20.8926792,47.0608673z"/></g><g><path class="st0" d="M38.9022141,30.7552299c1.2929916,0.0368958,2.5859833,0.0737915,3.8789749,0.1106853    c1.4483719,0.0413303,1.4472008-2.208704,0-2.25c-1.2929916-0.0368938-2.5859833-0.0737896-3.8789749-0.1106853    C37.453846,28.4639015,37.4550133,30.7139359,38.9022141,30.7552299L38.9022141,30.7552299z"/></g><g><path class="st0" d="M44.0928001,1.1345907c0.3445053,1.4493264,0.6295242,2.9008603,0.8586235,4.3725514    c0.0800629,0.5143299,0.6298103,0.7839503,1.0848122,0.8259301c1.8893661,0.1743178,3.7787285,0.3486352,5.6680908,0.522953    c-0.3616028-0.47469-0.7232094-0.9493799-1.0848122-1.4240699c-0.243782,1.6993451-2.9870758,2.8316689-3.9907341,4.1604958    c-0.442337,0.5856466-0.8291283,1.5399466-1.3817902,2.0062037c-0.6633377,0.5596294-3.2332916,0.7870474-4.1323624,0.4604931    c-0.4825821,0.6774406-0.6274643,0.4919395-0.4346466-0.5565014c-0.0248528-0.636076-0.0497055-1.2721529-0.0745583-1.9082298    c-0.0325966-0.8342104-0.2378845-1.8132477-0.0886421-2.6264329c0.4299583-2.3426948,3.3852921-3.7782235,5.2584381-4.8758469    c1.2486076-0.731657,0.1175537-2.6771405-1.1356201-1.942809c-2.1247749,1.2450721-5.6953354,3.1513598-6.2721367,5.8091369    c-0.3775444,1.7396507-0.0277824,3.7787323,0.0625191,5.5441818c0.0525627,1.0276423-0.0346985,1.9807405,0.9256172,2.5690575    c1.0628815,0.6511488,3.3479881,0.3630676,4.5363159,0.2836208c1.2726135-0.0850821,2.2868805-0.4739342,3.1608353-1.422019    c0.4562302-0.4949293,0.7411728-1.0998774,1.1300659-1.6417294c0.7421341-1.0340195,1.6221199-1.6339722,2.6050415-2.4196405    c0.9924088-0.7932472,1.8136673-1.5340118,2.0012856-2.8418412c0.1101532-0.7678547-0.2902985-1.3507657-1.084816-1.4240694    c-1.8893623-0.1743178-3.7787247-0.3486352-5.6680908-0.522953c0.3616066,0.27531,0.7232094,0.5506206,1.084816,0.8259306    c-0.2291451-1.4719796-0.5141869-2.9235086-0.8586235-4.372551C45.9277191-0.8716762,43.7576218-0.2755113,44.0928001,1.1345907    L44.0928001,1.1345907z"/></g><g><path class="st0" d="M39.0843925,12.2234011c-6.7591171,4.855895-11.242878,12.0528536-17.8117371,17.1097031    c-1.1314011,0.8709793-0.0121593,2.8263931,1.1356182,1.9428101c6.5683002-5.0564194,11.0716305-12.2674675,17.8117352-17.1097031    C41.3855286,13.3288774,40.2634354,11.3763533,39.0843925,12.2234011L39.0843925,12.2234011z"/></g></g></svg>