<?xml version="1.0" ?><svg id="Layer_1" style="enable-background:new 0 0 52 52;" version="1.1" viewBox="0 0 52 52" xml:space="preserve" xmlns="http://www.w3.org/2000/svg" xmlns:xlink="http://www.w3.org/1999/xlink"><style type="text/css">
	.st0{fill:#231F20;}
</style><g><g><path class="st0" d="M47.5236473,9.5082855c1.1354179,5.6164875,1.9289627,11.2904053,1.9109993,17.0298576    c-0.0101471,3.2419434-0.2492485,6.4966125-0.8448334,9.6872292c-0.4171181,2.2345428-2.3299751,10.3910103-5.5334702,3.3177223    c-1.0531082-2.3252487-0.8671494-6.063015-1.077095-8.62887c-0.2360573-2.8849964-0.3761711-5.7777328-0.4127274-8.672287    c-0.0324821-2.5720043,0.011425-5.1474972,0.139389-7.7165861c0.0745735-1.4972401,0.1210976-3.0163364,0.4180489-4.4906864    c0.0500984-0.8136616,0.2634506-1.5817194,0.6400566-2.3041749c0.6365013-2.6159978,2.1171799-1.8526516,4.4420395,2.2900395    c-0.0141068,1.4482374,2.2358818,1.4494181,2.25,0c0.0593376-6.0919466-6.089653-10.1421633-8.8910942-3.0663362    c-1.7084618,4.3151946-1.2756805,9.7974377-1.253231,14.3228817c0.028717,5.7881508,0.3462105,11.6750431,1.2990646,17.3913441    c0.8714867,5.2281609,5.9946175,10.7525635,8.8394661,3.4713974c3.9968414-10.2296028,2.35355-22.7896461,0.2430153-33.2296677    C49.4065781,7.4919729,47.2373772,8.0922194,47.5236473,9.5082855L47.5236473,9.5082855z"/></g><g><g><path class="st0" d="M41.9207916,4.4606996c-4.3006554,2.0724459-7.7640228,5.3724399-11.9333477,7.5002131     c-4.9470634,2.5246859-11.6499252,2.7810822-17.0809517,2.6720572     c-6.0594988-0.1216412-13.0421429,1.6323519-12.7911396,9.2761126c0.2445361,7.4468002,7.196033,9.3770123,13.3157358,9.4644909     c3.2378387,0.0462837,6.1550407,0.2772255,9.1777191,1.4909821c2.7545261,1.1060791,4.5628796,2.9219131,6.9991817,4.5102806     c3.7927227,2.4726982,8.6182652,3.4627533,13.013052,4.1715088c1.4165115,0.2284431,2.0261574-1.9393272,0.5981407-2.1696281     c-4.7980118-0.7737808-9.6388626-1.8676453-13.5219841-4.9118843c-1.9872856-1.5579643-4.0199547-2.8481674-6.3892078-3.7779694     c-3.0243778-1.1869011-5.8158455-1.5367279-9.0476322-1.5659199c-2.679924-0.0242081-5.6772623,0.2549286-8.1195774-1.1686974     c-3.1720841-1.8490105-4.7851734-5.9820271-2.9827323-9.4501514c2.3933511-4.6051073,8.2064371-3.5021,12.4341326-3.6144371     c3.6675644-0.097456,7.3664837-0.5654182,10.9370728-1.4130363c6.3242283-1.5013027,10.7329617-6.278945,16.5271549-9.0711117     C44.3604164,5.7751203,43.2206078,3.8343303,41.9207916,4.4606996L41.9207916,4.4606996z"/></g><g><path class="st0" d="M17.4036083,16.2188187c-0.2176533,2.4376984,1.0745029,4.6762142,1.2527351,7.1122818     c0.1952972,2.6693134,0.1684723,5.3733559,0.2001591,8.0485668c0.0171375,1.446825,2.2671833,1.4507046,2.25,0     c-0.0317421-2.6798916-0.0398293-5.3726063-0.2001591-8.0485668c-0.1436672-2.3978596-1.4628811-4.7586632-1.2527351-7.1122818     C19.7823467,14.7769766,17.5315704,14.7856693,17.4036083,16.2188187L17.4036083,16.2188187z"/></g><g><path class="st0" d="M18.9608002,30.8790531c0,0.583334,0,1.166666,0,1.7500019c0,1.4477654,2.25,1.4501648,2.25,0     c0-0.5833359,0-1.1666679,0-1.7500019C21.2108002,29.4312859,18.9608002,29.4288883,18.9608002,30.8790531L18.9608002,30.8790531     z"/></g><g><path class="st0" d="M12.3044186,33.3690567c2.4508953,1.5616608,2.5014296,4.3578224,2.5494633,6.9539261     c0.0170479,0.9213638,0.125556,1.9960289,0.031024,2.912262c-0.0022011,0.2553825-0.0044031,0.5107689-0.0066042,0.7661514     c-0.4695835,2.2593155-1.4331903,2.6666451-2.8908205,1.2219849c-1.8577509-0.9808884-1.6972551-0.9347115-2.0338221-2.8178139     c-0.223073-1.2481041-0.3286552-2.5227814-0.3906946-3.7874489c-0.1060266-2.1613121-0.0413628-4.3253517,0.0202913-6.4869461     c0.0413103-1.4483681-2.2087226-1.4472027-2.25,0c-0.107532,3.7700958-0.9458137,20.4435501,7.3782673,15.873703     c2.9373589-1.6125832,2.454216-4.7615623,2.3923588-7.6818924c-0.074749-3.5289917-0.474596-6.8646088-3.6638451-8.8967342     C12.2152805,30.6458588,11.0854349,32.5923462,12.3044186,33.3690567L12.3044186,33.3690567z"/></g></g></g></svg>