<svg version="1.1" viewBox="0 0 256 256" xml:space="preserve" xmlns="http://www.w3.org/2000/svg" xmlns:xlink="http://www.w3.org/1999/xlink">
    <path d="M131,53.5c-3-4.6-9.6-6.1-14.2-3.2c-4,2.5-5.7,7.5-4.2,12c0.1,0.4,0.3,0.9,0.5,1.3l5,25.3c-5.4,1.2-13.6,3-13.9,3.1   c-2.8,0.7-5.2,2.5-6.6,5c-1.8,3.3-1.7,7.3,0.3,10.5l27.2,42.9c1.5,2.3,3.8,3.9,6.4,4.5c0.8,0.2,1.5,0.3,2.3,0.3   c1.9,0,3.8-0.5,5.5-1.6c3.8-2.4,5.6-6.9,4.5-11c-0.2-1.1-2.4-15.7-4.3-27.5c5.9-1.5,12.7-3.3,13.4-3.5c2.4-0.8,4.4-2.5,5.6-4.8l0,0   c0.8-1.5,1.3-3.2,1.3-4.9c0-2-0.6-3.9-1.6-5.5L131,53.5z M149.6,102.1c-2.1,0.6-17.1,4.4-17.1,4.4l-4.5,1.1l0.7,4.5   c4.9,32,5,32.4,4.8,32.8l-27.1-43.2c0.8-0.2,18.6-4.1,18.6-4.1l4.8-1.1l-7.1-35.8l0.1-1.1l-0.5-0.8l27.2,43   C149.6,102,149.6,102,149.6,102.1L149.6,102.1z"/>
    <path d="M214.5,76.1C214.5,76.1,214.5,76.1,214.5,76.1c-0.7-4-1.4-7-2.2-9.3c-12-35.7-45.2-59.9-82.7-60.2H129c-0.3,0-0.7,0-1,0   c-0.3,0-0.7,0-1,0h-0.7C88.9,7,55.7,31.1,43.7,66.8c-0.8,2.4-1.5,5.4-2.2,9.3c-2.6,14.9-1,29.9,4.9,43.4c0.2,0.5,0.4,1,0.6,1.4   c4.7,10.3,11.5,22.2,18.2,33.8c7.2,12.5,14.6,25.5,18.8,35.5c1.8,4.4,6.1,7.2,10.9,7.2h66.5c4.8,0,9-2.8,10.9-7.2   c4.2-10.1,11.6-23,18.8-35.5c6.6-11.5,13.5-23.5,18.1-33.7c0.2-0.5,0.4-1,0.6-1.4C215.5,106,217.2,91,214.5,76.1z M200.3,115.6   c-0.1,0.3-0.3,0.7-0.5,1.1c-4.5,9.9-11.2,21.6-17.7,32.9c-7.3,12.8-14.9,26-19.4,36.7c-0.2,0.6-0.8,1-1.5,1H94.8   c-0.7,0-1.3-0.4-1.5-1c-4.4-10.7-12-23.9-19.4-36.7c-6.5-11.3-13.2-23.1-17.8-33c-0.2-0.3-0.3-0.7-0.5-1   c-5.1-11.7-6.5-24.7-4.2-37.6c0.6-3.3,1.2-6,1.8-7.8c10.6-31.6,40-53,73.1-53.3h0.7c0.2,0,0.5,0,0.7,0c0.2,0,0.4,0,0.6,0   c0.2,0,0.5,0,0.7,0h0.6c33.1,0.3,62.5,21.7,73.1,53.3c0.6,1.8,1.2,4.4,1.8,7.8C206.8,90.8,205.4,103.8,200.3,115.6z"/>
    <path d="M164.4,207.8c-2.8-0.5-5.4,1.3-5.9,4l-2.8,14.7h-5.6c-1.8,0-3.5,1-4.4,2.5c-3.7,6.3-10.5,10.1-17.7,10.1   c-7.2,0-14-3.9-17.7-10.1c-0.9-1.5-2.6-2.5-4.4-2.5h-5.6l-2.8-14.7c-0.5-2.7-3.1-4.6-5.9-4c-2.8,0.5-4.6,3.2-4,5.9l3.1,16.5   c0.7,3.8,4,6.5,7.8,6.5h4.7c5.7,7.9,15,12.6,24.8,12.6c9.8,0,19.1-4.8,24.8-12.6h4.7c3.8,0,7.1-2.7,7.8-6.5l3.1-16.5   C169,211,167.2,208.3,164.4,207.8z"/>
</svg>