<?xml version="1.0" encoding="utf-8"?>
<svg version="1.1" id="Capa_1" xmlns="http://www.w3.org/2000/svg" xmlns:xlink="http://www.w3.org/1999/xlink" x="0px" y="0px"
	 viewBox="0 0 463 463" style="enable-background:new 0 0 463 463;" xml:space="preserve">
	<path d="M423,219.5V211h16.5c4.14,0,7.5-3.36,7.5-7.5V179h8.5c4.14,0,7.5-3.36,7.5-7.5v-24c0-2.69-1.44-5.18-3.78-6.51l-224-128
		c-2.31-1.32-5.14-1.32-7.44,0l-224,128C1.44,142.32,0,144.81,0,147.5v24c0,4.14,3.36,7.5,7.5,7.5H16v24.5c0,4.14,3.36,7.5,7.5,7.5
		H40v8.5c0,5.83,3.24,10.91,8,13.55V372H23.5c-4.14,0-7.5,3.36-7.5,7.5V404H7.5c-4.14,0-7.5,3.36-7.5,7.5v32c0,4.14,3.36,7.5,7.5,7.5
		h448c4.14,0,7.5-3.36,7.5-7.5v-32c0-4.14-3.36-7.5-7.5-7.5H447v-24.5c0-4.14-3.36-7.5-7.5-7.5H415V233.05
		C419.77,230.41,423,225.33,423,219.5z M408,219.5c0,0.28-0.22,0.5-0.5,0.5h-32c-0.28,0-0.5-0.22-0.5-0.5V211h33V219.5z M335,372
		V233.05c4.77-2.65,8-7.73,8-13.55V211h17v8.5c0,5.83,3.23,10.91,8,13.55V372H335z M303,372V235h17v137H303z M255,372V233.05
		c4.77-2.65,8-7.73,8-13.55V211h17v8.5c0,5.83,3.23,10.91,8,13.55V372H255z M223,372V235h17v137H223z M175,372V233.05
		c4.76-2.65,8-7.73,8-13.55V211h17v8.5c0,5.83,3.24,10.91,8,13.55V372H175z M143,372V235h17v137H143z M95,372V233.05
		c4.76-2.65,8-7.73,8-13.55V211h17v8.5c0,5.83,3.24,10.91,8,13.55V372H95z M168,211v8.5c0,0.28-0.22,0.5-0.5,0.5h-32
		c-0.28,0-0.5-0.22-0.5-0.5V211H168z M248,211v8.5c0,0.28-0.22,0.5-0.5,0.5h-32c-0.28,0-0.5-0.22-0.5-0.5V211H248z M328,211v8.5
		c0,0.28-0.22,0.5-0.5,0.5h-32c-0.28,0-0.5-0.22-0.5-0.5V211H328z M15,151.85L231.5,28.14L448,151.85V164H15V151.85z M31,179h401v17
		H31V179z M88,211v8.5c0,0.28-0.22,0.5-0.5,0.5h-32c-0.28,0-0.5-0.22-0.5-0.5V211H88z M63,235h17v137H63V235z M448,436H15v-17h433
		V436z M432,404H31v-17h401V404z M383,372V235h17v137H383z"/>
</svg>
