<?xml version="1.0" encoding="utf-8"?>
<svg version="1.1" id="Layer_1" xmlns="http://www.w3.org/2000/svg" xmlns:xlink="http://www.w3.org/1999/xlink" x="0px" y="0px"
	 viewBox="0 0 35.06 37.35" style="enable-background:new 0 0 35.06 37.35;" xml:space="preserve">
	<path fill="none" stroke="#000000" stroke-width="1.44" stroke-linecap="round" stroke-linejoin="round" stroke-miterlimit="22.9256" d="M20.58,3.59c0.95,0.17,1.86,0.43,2.74,0.76c0.88,0.33,1.71,0.74,2.5,1.22c0.79,0.48,1.53,1.03,2.21,1.63
		c0.69,0.61,1.31,1.27,1.88,1.99c0.57,0.72,1.07,1.49,1.5,2.29c0.43,0.81,0.79,1.66,1.08,2.55c0.28,0.89,0.49,1.8,0.6,2.75"/>
	<path fill="none" stroke="#000000" stroke-width="1.44" stroke-linecap="round" stroke-linejoin="round" stroke-miterlimit="22.9256" d="M14.27,33.76c-0.95-0.17-1.86-0.43-2.74-0.76c-0.88-0.33-1.71-0.74-2.5-1.22c-0.79-0.48-1.53-1.03-2.21-1.63
		c-0.68-0.61-1.31-1.27-1.88-1.99c-0.57-0.72-1.07-1.49-1.5-2.29c-0.43-0.81-0.79-1.66-1.08-2.55c-0.28-0.89-0.49-1.8-0.6-2.75"/>
	<polyline fill="none" stroke="#000000" stroke-width="1.44" stroke-linecap="round" stroke-linejoin="round" stroke-miterlimit="22.9256" points="12.57,30.27 14.86,33.6 11.53,35.89 "/>
	<polyline fill="none" stroke="#000000" stroke-width="1.44" stroke-linecap="round" stroke-linejoin="round" stroke-miterlimit="22.9256" points="22.3,7.08 20.01,3.75 23.33,1.46 "/>
	<path fill="none" stroke="#000000" stroke-width="1.44" stroke-linecap="round" stroke-linejoin="round" stroke-miterlimit="22.9256" d="M10.02,2.52c4.79,0,8.67,3.88,8.67,8.67c0,4.79-3.88,8.67-8.67,8.67c-4.79,0-8.67-3.88-8.67-8.67
		C1.35,6.41,5.23,2.52,10.02,2.52L10.02,2.52z"/>
	<line fill="none" stroke="#000000" stroke-width="1.44" stroke-linecap="round" stroke-linejoin="round" stroke-miterlimit="22.9256" x1="5.28" y1="9.73" x2="11.96" y2="9.73"/>
	<line fill="none" stroke="#000000" stroke-width="1.44" stroke-linecap="round" stroke-linejoin="round" stroke-miterlimit="22.9256" x1="4.81" y1="12.68" x2="11.49" y2="12.68"/>
	<path fill="none" stroke="#000000" stroke-width="1.44" stroke-linecap="round" stroke-linejoin="round" stroke-miterlimit="22.9256" d="M13.49,14.48c-0.34,0.42-0.75,0.76-1.21,1c-0.45,0.24-0.95,0.37-1.48,0.37c-0.52,0-1.02-0.13-1.48-0.37
		c-0.45-0.24-0.86-0.58-1.21-1C7.78,14.06,7.5,13.56,7.31,13c-0.19-0.56-0.3-1.17-0.3-1.81c0-0.64,0.11-1.26,0.3-1.81
		C7.5,8.82,7.78,8.32,8.13,7.9c0.34-0.42,0.75-0.76,1.21-1c0.45-0.24,0.95-0.37,1.48-0.37c0.52,0,1.02,0.13,1.48,0.37
		c0.45,0.24,0.86,0.58,1.21,1"/>
	<line fill="none" stroke="#000000" stroke-width="1.44" stroke-linecap="round" stroke-linejoin="round" stroke-miterlimit="22.9256" x1="24.84" y1="20.25" x2="24.84" y2="22.11"/>
	<line fill="none" stroke="#000000" stroke-width="1.44" stroke-linecap="round" stroke-linejoin="round" stroke-miterlimit="22.9256" x1="24.84" y1="30.22" x2="24.84" y2="32.07"/>
	<path fill="none" stroke="#000000" stroke-width="1.44" stroke-linecap="round" stroke-linejoin="round" stroke-miterlimit="22.9256" d="M24.84,17.5c4.78,0,8.66,3.88,8.66,8.66c0,4.78-3.88,8.66-8.66,8.66s-8.66-3.88-8.66-8.66
		C16.18,21.38,20.06,17.5,24.84,17.5L24.84,17.5z"/>
	<path fill="none" stroke="#000000" stroke-width="1.44" stroke-linecap="round" stroke-linejoin="round" stroke-miterlimit="22.9256" d="M27.53,23.08c-0.86-0.29-1.63-0.55-2.4-0.64c-4.18-0.47-4.71,3.74-0.27,3.72c4.32-0.01,3.91,4.2-0.27,3.72
		c-0.77-0.09-1.55-0.36-2.4-0.64"/>
</svg>
