<?xml version="1.0" encoding="utf-8"?>
<svg version="1.1" xmlns="http://www.w3.org/2000/svg" xmlns:xlink="http://www.w3.org/1999/xlink" x="0px" y="0px"
	 viewBox="0 0 164.79 146.11" style="enable-background:new 0 0 164.79 146.11;" xml:space="preserve">
	<path fill="#000000" d="M12.4,125.74c-4.95,0-8.99-4.02-9.02-8.98c0-0.67,0-16.18,0.19-20.71c0.25-5.74,2.58-8.69,9.91-17.14
		c0.2-0.23,20.45-22.72,27.42-23.55c4.91-0.72,45.49-6.59,56.01-4.23c6.38,1.43,11.7,9.1,17.33,17.22
		c4.37,6.29,9.31,13.43,13.24,14.49c1.99,0.54,4.39,1.05,6.94,1.59c10.83,2.3,24.31,5.16,25.63,14.73
		c1.75,12.83,1.63,21.38-4.32,24.38c-3.6,1.82-9.5,1.9-15.35,1.72c-1.66-0.05-2.96-1.44-2.91-3.09c0.05-1.66,1.49-2.96,3.09-2.91
		c2.66,0.08,9.73,0.3,12.46-1.08c3.33-1.68,1.64-14.13,1.08-18.21c-0.74-5.39-12.41-7.87-20.93-9.68
		c-2.63-0.56-5.11-1.08-7.27-1.67c-6.04-1.64-11.17-9.04-16.6-16.86c-4.51-6.5-9.62-13.87-13.72-14.79
		c-8.02-1.8-41.62,2.51-53.88,4.32c-0.07,0.01-0.13,0.02-0.2,0.02c-2.8,0.9-15.3,12.05-23.5,21.51
		c-7.27,8.38-8.3,10.02-8.45,13.47c-0.19,4.4-0.19,20.28-0.19,20.44c0.01,1.65,1.36,3,3.02,3c0,0,0.01,0,0.01,0l13.02-0.05
		c0,0,0.01,0,0.01,0c1.65,0,2.99,1.34,3,2.99c0.01,1.66-1.33,3-2.99,3.01l-13.02,0.05C12.42,125.74,12.41,125.74,12.4,125.74z
		 M64.9,125.56c-1.65,0-2.99-1.33-3-2.99c-0.01-1.66,1.33-3.01,2.99-3.01l37.57-0.15c0,0,0.01,0,0.01,0c1.65,0,2.99,1.33,3,2.99
		c0.01,1.66-1.33,3.01-2.99,3.01l-37.57,0.15C64.91,125.56,64.91,125.56,64.9,125.56z"/>
	<path fill="#000000" d="M121.54,142.02c-11.72,0-21.26-9.54-21.26-21.26c0-11.72,9.54-21.26,21.26-21.26
		c11.72,0,21.26,9.54,21.26,21.26C142.8,132.48,133.26,142.02,121.54,142.02z M121.54,105.5c-8.41,0-15.26,6.84-15.26,15.26
		c0,8.41,6.85,15.26,15.26,15.26c8.41,0,15.26-6.84,15.26-15.26C136.8,112.35,129.95,105.5,121.54,105.5z"/>
	<path fill="#000000" d="M43.88,142.02c-11.72,0-21.26-9.54-21.26-21.26c0-11.72,9.54-21.26,21.26-21.26
			c11.72,0,21.26,9.54,21.26,21.26C65.14,132.48,55.61,142.02,43.88,142.02z M43.88,105.5c-8.41,0-15.26,6.84-15.26,15.26
			c0,8.41,6.84,15.26,15.26,15.26c8.41,0,15.26-6.84,15.26-15.26C59.14,112.35,52.3,105.5,43.88,105.5z"/>
	<path fill="#000000" d="M107.05,87.95H32.33c-1.17,0-2.24-0.68-2.73-1.75c-0.49-1.06-0.31-2.32,0.45-3.21l0.59-0.69
		c0.14-0.16,14.3-16.1,19.84-16.95l0,0c0.94-0.14,23.13-3.41,34.52-3.41c2.35,0,4.1,0.14,5.36,0.42
		c4.84,1.09,8.69,6.66,12.76,12.55c2.02,2.93,4.12,5.96,6.06,7.93c0.85,0.86,1.1,2.15,0.64,3.27
		C109.35,87.22,108.26,87.95,107.05,87.95z M39.13,81.95h61.6c-0.86-1.19-1.71-2.41-2.55-3.62c-2.94-4.25-6.59-9.53-9.14-10.11
		c-0.56-0.13-1.72-0.28-4.04-0.28c-10.95,0-33.41,3.31-33.64,3.35c-0.02,0-0.04,0.01-0.05,0.01C49.64,72,44.08,76.85,39.13,81.95z"
		/>
	<path fill="#000000" d="M49.32,120.76c0,3-2.43,5.43-5.43,5.43c-3,0-5.43-2.43-5.43-5.43c0-3,2.43-5.43,5.43-5.43
		C46.88,115.33,49.32,117.76,49.32,120.76z"/>
	<path fill="#000000" d="M126.97,120.76c0,3-2.43,5.43-5.43,5.43c-3,0-5.43-2.43-5.43-5.43c0-3,2.43-5.43,5.43-5.43
		C124.53,115.33,126.97,117.76,126.97,120.76z"/>
	<path fill="#000000" d="M55.88,56.82c-1.66,0-3-1.34-3-3c0-12.9,7.28-23,16.58-23c8.7,0,15.8,9.04,16.52,21.03
		c0.1,1.65-1.16,3.08-2.81,3.17c-1.66,0.08-3.08-1.16-3.17-2.81c-0.52-8.63-5.14-15.39-10.53-15.39c-5.73,0-10.58,7.79-10.58,17
		C58.88,55.48,57.54,56.82,55.88,56.82z"/>
	<path fill="#000000" d="M30.23,49.2c-1.48,0-2.76-1.09-2.97-2.6c-0.22-1.64,0.93-3.15,2.57-3.38l12.88-1.75
		c1.64-0.22,3.15,0.93,3.38,2.57c0.22,1.64-0.93,3.15-2.57,3.38l-12.88,1.75C30.5,49.19,30.36,49.2,30.23,49.2z"/>
	<path fill="#000000" d="M107.12,45.7c-0.13,0-0.27-0.01-0.41-0.03l-12.88-1.75c-1.64-0.22-2.79-1.73-2.57-3.38
		c0.22-1.64,1.74-2.79,3.38-2.57l12.88,1.75c1.64,0.22,2.79,1.73,2.57,3.38C109.88,44.6,108.6,45.7,107.12,45.7z"/>
	<path fill="#000000" d="M49.53,28.19c-0.5,0-1-0.12-1.46-0.38l-10.22-5.73c-1.45-0.81-1.96-2.64-1.15-4.08
		c0.81-1.44,2.64-1.96,4.08-1.15L51,22.57c1.45,0.81,1.96,2.64,1.15,4.08C51.6,27.63,50.58,28.19,49.53,28.19z"/>
	<path fill="#000000" d="M85.32,28.19c-1.05,0-2.07-0.55-2.62-1.53c-0.81-1.44-0.3-3.27,1.15-4.08l10.22-5.73
		c1.45-0.81,3.27-0.3,4.08,1.15c0.81,1.44,0.3,3.27-1.15,4.08L86.78,27.8C86.32,28.06,85.81,28.19,85.32,28.19z"/>
	<path fill="#000000" d="M67.67,21.32c-1.66,0-3-1.34-3-3V6.82c0-1.66,1.34-3,3-3c1.66,0,3,1.34,3,3v11.5
		C70.67,19.98,69.33,21.32,67.67,21.32z"/>
</svg>
