<?xml version="1.0" encoding="utf-8"?>
<svg version="1.1" id="Layer_1" xmlns="http://www.w3.org/2000/svg" xmlns:xlink="http://www.w3.org/1999/xlink" x="0px" y="0px"
	 viewBox="0 0 147 138" style="enable-background:new 0 0 147 138;" xml:space="preserve">
	<path fill="#000000" d="M12.46,81.12L12.46,81.12c-1.66,0-3-1.34-3-3v-8.04c0-0.02,0-0.05,0-0.07
		c0.04-11.31,7.43-21.12,18.26-24.68v-2.15c-2.68-1.81-4.9-4.42-6.46-7.57c-3.67-0.77-6.37-4.62-6.37-9.4
		c0-4.27,2.2-7.83,5.3-9.07C22.9,9.37,29.25,4.28,36.47,4.28c5.69,0,11.06,3.27,14.35,8.76c0.85,1.42,0.39,3.26-1.03,4.12
		c-1.42,0.85-3.26,0.39-4.12-1.03c-2.23-3.72-5.58-5.85-9.2-5.85c-4.99,0-9.41,4.08-11,10.14c-0.34,1.3-1.5,2.21-2.85,2.24
		c-0.61,0.01-1.72,1.36-1.72,3.54c0,2.2,1.12,3.54,1.73,3.54c0.02,0,0.05-0.01,0.08-0.02c1.42-0.27,2.83,0.52,3.35,1.87
		c1.27,3.28,3.42,5.84,6.06,7.22c0.99,0.52,1.61,1.54,1.61,2.66v6.12c0,1.39-0.96,2.6-2.31,2.92
		c-9.39,2.22-15.95,10.24-15.95,19.51v8.1C15.46,79.77,14.12,81.12,12.46,81.12z"/>
	<path fill="#000000" d="M134.81,78.1h-3V69.9c0-0.05,0-0.11,0-0.16c0-9.27-6.62-17.37-16.11-19.61c-1.35-0.32-2.31-1.53-2.31-2.92
		v-6.23c0-1.14,0.64-2.18,1.66-2.69c1.5-0.74,2.85-0.43,4.04-0.15c1.11,0.26,2.49,0.58,4.93,0.45c1.54-0.08,2.79-0.51,3.74-1
		c-1.89-2.57-4.32-6.94-4.89-12.89c-0.66-6.98-5.54-14.51-12.28-14.51c-4.23,0-8.15,3-10.5,8.02c-0.11,0.24-0.22,0.48-0.32,0.73
			c-0.64,1.53-2.39,2.26-3.92,1.62c-1.53-0.64-2.26-2.39-1.62-3.92c0.14-0.33,0.28-0.65,0.43-0.97
			C98.04,8.48,104,4.19,110.61,4.19c10.24,0,17.32,10.14,18.25,19.95c0.7,7.41,5.22,11.64,5.27,11.68
			c1.19,1.09,1.32,2.95,0.26,4.18c-0.15,0.17-3.74,4.29-10.07,4.6c-2.11,0.1-3.73-0.06-4.94-0.26v0.62
			c10.96,3.59,18.42,13.51,18.42,24.88c0,0.03,0,0.07,0,0.11l0,8.16L134.81,78.1z"/>
	<path fill="#000000" d="M45.3,81.4C45.3,81.4,45.3,81.4,45.3,81.4c-1.66,0-3-1.34-3-3v-1.64c0-0.01,0-0.02,0-0.03
		c0-0.01,0-0.02,0-0.03c0-12.38,8.17-23.17,20.14-27v-2.76c-3.01-1.99-5.5-4.91-7.22-8.46c-3.97-0.75-6.93-4.91-6.93-10.09
		c0-4.64,2.41-8.5,5.79-9.77c2.9-8.5,9.82-14.09,17.68-14.09c7.87,0,14.79,5.59,17.69,14.09c3.38,1.27,5.79,5.13,5.79,9.77
		c0,5.18-2.95,9.35-6.93,10.09c-1.72,3.54-4.21,6.46-7.22,8.45v2.76c11.97,3.84,20.14,14.63,20.14,27c0,0.04,0,0.1,0,0.14l0,1.56
		l-6,0v-1.63c0-0.04,0-0.08,0-0.12c0-10.31-7.33-19.28-17.83-21.76c-1.35-0.32-2.31-1.53-2.31-2.92v-6.75
		c0-1.12,0.62-2.14,1.61-2.66c2.98-1.56,5.4-4.44,6.83-8.12c0.52-1.35,1.92-2.13,3.35-1.87c0.05,0.01,0.1,0.02,0.16,0.02
		c0.88,0,2.21-1.68,2.21-4.21c0-2.54-1.3-4.19-2.2-4.21c-1.34-0.02-2.51-0.94-2.85-2.24c-1.79-6.83-6.78-11.41-12.42-11.41
		c-5.64,0-10.63,4.59-12.42,11.41c-0.34,1.3-1.5,2.22-2.85,2.24c-0.9,0.02-2.2,1.66-2.2,4.21c0,2.53,1.33,4.21,2.21,4.21
		c0.05,0,0.1-0.01,0.15-0.02c1.42-0.26,2.83,0.52,3.35,1.87c1.42,3.68,3.85,6.57,6.83,8.13c0.99,0.52,1.61,1.54,1.61,2.66v6.75
		c0,1.39-0.96,2.6-2.31,2.92C55.65,57.37,48.32,66.31,48.3,76.65c0,0.04,0,0.08,0,0.11l0,1.65C48.3,80.06,46.96,81.4,45.3,81.4z"
		/>
	<path fill="#000000" d="M141.73,89.22H5.55c-1.66,0-3-1.34-3-3c0-1.66,1.34-3,3-3h136.18c1.66,0,3,1.34,3,3
		C144.73,87.88,143.38,89.22,141.73,89.22z"/>
	<path fill="#000000" d="M141.73,100.25H5.55c-1.66,0-3-1.34-3-3s1.34-3,3-3h136.18c1.66,0,3,1.34,3,3S143.38,100.25,141.73,100.25z"
		/>
	<path fill="#000000" d="M13.5,134.17c-1.66,0-3-1.34-3-3V98.52c0-1.66,1.34-3,3-3c1.66,0,3,1.34,3,3v32.65
		C16.5,132.83,15.16,134.17,13.5,134.17z"/>
	<path fill="#000000" d="M23.69,134.17c-1.66,0-3-1.34-3-3V98.52c0-1.66,1.34-3,3-3c1.66,0,3,1.34,3,3v32.65
		C26.69,132.83,25.35,134.17,23.69,134.17z"/>
	<path fill="#000000" d="M70.58,134.6c-1.66,0-3-1.34-3-3V98.95c0-1.66,1.34-3,3-3c1.66,0,3,1.34,3,3v32.65
		C73.58,133.25,72.24,134.6,70.58,134.6z"/>
	<path fill="#000000" d="M80.77,134.6c-1.66,0-3-1.34-3-3V98.95c0-1.66,1.34-3,3-3c1.66,0,3,1.34,3,3v32.65
		C83.77,133.25,82.43,134.6,80.77,134.6z"/>
	<path fill="#000000" d="M123.58,135.02c-1.66,0-3-1.34-3-3V99.37c0-1.66,1.34-3,3-3c1.66,0,3,1.34,3,3v32.65
		C126.58,133.68,125.24,135.02,123.58,135.02z"/>
	<path fill="#000000" d="M133.78,135.02c-1.66,0-3-1.34-3-3V99.37c0-1.66,1.34-3,3-3c1.66,0,3,1.34,3,3v32.65
		C136.78,133.68,135.43,135.02,133.78,135.02z"/>
</svg>
