<?xml version="1.0" encoding="utf-8"?>
<svg version="1.1" id="Layer_1" xmlns="http://www.w3.org/2000/svg" xmlns:xlink="http://www.w3.org/1999/xlink" x="0px" y="0px"
	 viewBox="0 0 37.92 35.09" style="enable-background:new 0 0 37.92 35.09;" xml:space="preserve">
	<path fill="none" stroke="#000000" stoke-width="1.44" stroke-linecap="round" stroke-linejoin="round" stroke-miterlimit="22.9256" d="M32.2,20.33l2.22-2.21c3.82-3.81,1.93-8.97-1.15-12.28C32.26,4.74,31.1,3.8,29.9,3.12
		c-1.56-0.88-6.46-2.16-9.67,0.96l-6.65,6.62c-1.8,1.79,2.74,3.52,5.03,1.26l1.67-1.65c2.48-2.25,5.59,2.25,9.46-0.81"/>
	<path fill="none" stroke="#000000" stoke-width="1.44" stroke-linecap="round" stroke-linejoin="round" stroke-miterlimit="22.9256" d="M6.31,19.28l-2.21-2.21C-3.28,9.7,9.49-2.94,16.98,4.35l1.49,1.48"/>
	<path fill="none" stroke="#000000" stoke-width="1.44" stroke-linecap="round" stroke-linejoin="round" stroke-miterlimit="22.9256" d="M23.82,11.91l8.57,8.98c1.75,1.83-0.85,5.32-3.09,3.01l-4.02-4.14"/>
	<path fill="none" stroke="#000000" stoke-width="1.44" stroke-linecap="round" stroke-linejoin="round" stroke-miterlimit="22.9256" d="M21.78,22.55l4.41,4.53c1.77,1.81,5.34-0.87,3.1-3.18l-4.31-4.45"/>
	<path fill="none" stroke="#000000" stoke-width="1.44" stroke-linecap="round" stroke-linejoin="round" stroke-miterlimit="22.9256" d="M20.44,27.56l2.2,2.22c1.78,1.8,5.25-0.77,3.02-3.1"/>
	<path fill="none" stroke="#000000" stoke-width="1.44" stroke-miterlimit="22.9256" d="M11.56,17.46l0.24,0.24c0.8,0.8,0.79,2.1,0,2.9l-3.05,3.05c-0.79,0.79-2.1,0.79-2.9,0l-0.24-0.24
		c-0.79-0.79-0.8-2.1,0-2.9l3.05-3.05C9.46,16.66,10.77,16.66,11.56,17.46L11.56,17.46z M16.69,18.85l0.24,0.24
		c0.8,0.8,0.79,2.1,0,2.9l-4.86,4.86c-0.8,0.79-2.1,0.79-2.9,0l-0.24-0.24c-0.79-0.79-0.8-2.1,0-2.9l4.86-4.86
		C14.59,18.06,15.9,18.06,16.69,18.85L16.69,18.85z M18.68,23.39l0.24,0.24c0.8,0.8,0.79,2.1,0,2.9l-3.33,3.33
		c-0.79,0.8-2.1,0.8-2.9,0l-0.24-0.24c-0.8-0.8-0.8-2.1,0-2.9l3.33-3.33C16.58,22.6,17.88,22.6,18.68,23.39L18.68,23.39z
		 M20.82,27.73l0.24,0.24c0.8,0.8,0.79,2.1,0,2.9l-2.05,2.05c-0.79,0.79-2.1,0.79-2.9,0l-0.24-0.24c-0.8-0.8-0.8-2.1,0-2.9l2.04-2.05
		C18.72,26.93,20.02,26.93,20.82,27.73L20.82,27.73z"/>
</svg>
