<?xml version="1.0" encoding="utf-8"?>
<svg version="1.1" id="Layer_1" xmlns="http://www.w3.org/2000/svg" xmlns:xlink="http://www.w3.org/1999/xlink" x="0px" y="0px"
	 viewBox="0 0 35.54 35.49" style="enable-background:new 0 0 35.54 35.49;" xml:space="preserve">
	<polygon fill="none" stroke="#000000" stroke-width="1.44" stroke-linecap="round" stroke-linejoin="round" stroke-miterlimit="22.9256" points="33.64,30.82 30.54,33.92 22.58,25.96 25.73,22.91 33.64,30.82 "/>
	<path fill="none" stroke="#000000" stroke-width="1.44" stroke-linecap="round" stroke-linejoin="round" stroke-miterlimit="22.9256" d="M14.74,1.85c7.28,0,13.19,5.9,13.19,13.19c0,7.28-5.9,13.19-13.19,13.19c-7.28,0-13.19-5.9-13.19-13.19
		C1.55,7.75,7.46,1.85,14.74,1.85L14.74,1.85z"/>
	<path fill="none" stroke="#000000" stroke-width="1.44" stroke-linecap="round" stroke-linejoin="round" stroke-miterlimit="22.9256" d="M14.6,4.44c5.91,0,10.7,4.79,10.7,10.7"/>
	<line fill="none" stroke="#000000" stroke-width="1.44" stroke-linecap="round" stroke-linejoin="round" stroke-miterlimit="22.9256" x1="14.39" y1="9.34" x2="14.39" y2="11.43"/>
	<line fill="none" stroke="#000000" stroke-width="1.44" stroke-linecap="round" stroke-linejoin="round" stroke-miterlimit="22.9256" x1="14.39" y1="20.56" x2="14.39" y2="22.65"/>
	<path fill="none" stroke="#000000" stroke-width="1.44" stroke-linecap="round" stroke-linejoin="round" stroke-miterlimit="22.9256" d="M17.42,12.53c-0.96-0.32-1.83-0.62-2.7-0.72c-4.7-0.53-5.3,4.2-0.3,4.19c4.86-0.01,4.4,4.72-0.31,4.19
		c-0.87-0.1-1.74-0.4-2.7-0.72"/>
</svg>
