<?xml version="1.0" ?><svg viewBox="0 0 24 24" xmlns="http://www.w3.org/2000/svg"><defs><style>.cls-1{fill:#231f20;}</style></defs><title/><g id="Card"><path class="cls-1" d="M21,2H9A1,1,0,0,0,8,3V5H3A1,1,0,0,0,2,6V21a1,1,0,0,0,1,1H21a1,1,0,0,0,1-1V3A1,1,0,0,0,21,2ZM4,11H8v2H4ZM8,7V9H4V7ZM4,15H8v5H4Zm10,5V18h2v2Zm6,0H18V17a1,1,0,0,0-1-1H13a1,1,0,0,0-1,1v3H10V4H20Z"/><rect class="cls-1" height="2" width="2" x="12" y="5"/><rect class="cls-1" height="2" width="2" x="16" y="5"/><rect class="cls-1" height="2" width="2" x="12" y="9"/><rect class="cls-1" height="2" width="2" x="16" y="9"/><rect class="cls-1" height="2" width="2" x="12" y="13"/><rect class="cls-1" height="2" width="2" x="16" y="13"/></g></svg>