<?xml version="1.0" ?><svg data-name="Material Expand" id="Material_Expand" viewBox="0 0 64 64" xmlns="http://www.w3.org/2000/svg"><rect height="4" width="4" x="20" y="50"/><rect height="4" width="16" x="28" y="50"/><path d="M32,38a8,8,0,1,0-8-8A8.009,8.009,0,0,0,32,38Zm0-12a4,4,0,1,1-4,4A4,4,0,0,1,32,26Z"/><path d="M6,62H58a2,2,0,0,0,2-2V15a2,2,0,0,0-.586-1.414l-11-11A2,2,0,0,0,47,2H6A2,2,0,0,0,4,4V60A2,2,0,0,0,6,62Zm42-4H16V46H48ZM16,6H31v4h4V6h4v8H16ZM8,6h4V16a2,2,0,0,0,2,2H41a2,2,0,0,0,2-2V6h3.172L56,15.829V58H52V44a2,2,0,0,0-2-2H14a2,2,0,0,0-2,2V58H8Z"/></svg>