<?xml version="1.0" ?><svg data-name="Material Expand" id="Material_Expand" viewBox="0 0 64 64" xmlns="http://www.w3.org/2000/svg"><path d="M2.323,28.09A2,2,0,0,0,4,29H33a2,2,0,0,0,1.748-2.972L30,17.482V4a2,2,0,0,0-2-2H8A2,2,0,0,0,6,4V17.576L2.173,26.188A2,2,0,0,0,2.323,28.09ZM7.077,25,9.3,20H26.823L29.6,25ZM10,6H26V16H10Z"/><path d="M33,36V49.576l-3.827,8.612A2,2,0,0,0,31,61H60a2,2,0,0,0,1.748-2.972L57,49.482V36a2,2,0,0,0-2-2H35A2,2,0,0,0,33,36Zm1.077,21L36.3,52H53.823L56.6,57ZM37,38H53V48H37Z"/><rect height="4" width="4" x="13" y="33"/><rect height="4" width="4" x="13" y="41"/><rect height="4" width="4" x="13" y="49"/><rect height="4" width="4" x="21" y="49"/><rect height="4" width="4" x="43" y="26"/><rect height="4" width="4" x="43" y="18"/><rect height="4" width="4" x="43" y="10"/><rect height="4" width="4" x="35" y="10"/></svg>