<svg xmlns="http://www.w3.org/2000/svg" viewBox="0 0 33.53 33.51"><defs><style>.cls-1{fill:none;stroke:#000;stroke-linecap:round;stroke-linejoin:round;stroke-width:1.44px;}</style></defs><title>Asset 2</title><g id="Layer_2" data-name="Layer 2"><g id="Layer_1-2" data-name="Layer 1"><polygon class="cls-1" points="32.8 29.7 29.7 32.8 21.75 24.84 24.9 21.79 32.8 29.7 32.8 29.7"/><path class="cls-1" d="M13.91.72A13.19,13.19,0,1,1,.72,13.91,13.18,13.18,0,0,1,13.91.72Z"/><path class="cls-1" d="M13.77,3.31A10.7,10.7,0,0,1,24.47,14"/><line class="cls-1" x1="13.56" y1="8.22" x2="13.56" y2="10.31"/><line class="cls-1" x1="13.56" y1="19.43" x2="13.56" y2="21.52"/><path class="cls-1" d="M16.59,11.4a13.76,13.76,0,0,0-2.7-.72c-4.7-.53-5.3,4.2-.3,4.19s4.4,4.72-.31,4.19a13.76,13.76,0,0,1-2.7-.72"/></g></g></svg>