<svg xmlns="http://www.w3.org/2000/svg" viewBox="0 0 33.59 35.87"><defs><style>.cls-1{fill:none;stroke:#222529;stroke-linecap:round;stroke-linejoin:round;stroke-width:1.7px;}</style></defs><title>capital-law</title><g id="Layer_2" data-name="Layer 2"><g id="Layer_1-2" data-name="Layer 1"><path class="cls-1" d="M20,2.85a14.59,14.59,0,0,1,2.74.76A15.25,15.25,0,0,1,27.4,6.46a14.72,14.72,0,0,1,1.88,2,16,16,0,0,1,1.51,2.3,15.09,15.09,0,0,1,1.07,2.55A15.55,15.55,0,0,1,32.47,16"/><path class="cls-1" d="M13.65,33a14.59,14.59,0,0,1-2.74-.76A15.25,15.25,0,0,1,6.2,29.41a14.72,14.72,0,0,1-1.88-2,16,16,0,0,1-1.51-2.3,15.09,15.09,0,0,1-1.07-2.55,15.55,15.55,0,0,1-.61-2.74"/><polyline class="cls-1" points="11.94 29.53 14.23 32.86 10.91 35.15"/><polyline class="cls-1" points="21.67 6.34 19.38 3.01 22.7 0.72"/><path class="cls-1" d="M9.39,1.78A8.67,8.67,0,1,1,.72,10.45,8.67,8.67,0,0,1,9.39,1.78Z"/><line class="cls-1" x1="4.65" y1="8.99" x2="11.34" y2="8.99"/><line class="cls-1" x1="4.18" y1="11.94" x2="10.86" y2="11.94"/><path class="cls-1" d="M12.87,13.74a4.09,4.09,0,0,1-1.21,1,3.24,3.24,0,0,1-1.48.37,3.18,3.18,0,0,1-1.48-.37,3.8,3.8,0,0,1-1.2-1,4.83,4.83,0,0,1-.82-1.48,5.79,5.79,0,0,1,0-3.62A4.83,4.83,0,0,1,7.5,7.16a3.94,3.94,0,0,1,1.2-1,3.3,3.3,0,0,1,1.48-.36,3.24,3.24,0,0,1,1.48.36,4.09,4.09,0,0,1,1.21,1"/><line class="cls-1" x1="24.21" y1="19.51" x2="24.21" y2="21.37"/><line class="cls-1" x1="24.21" y1="29.47" x2="24.21" y2="31.33"/><path class="cls-1" d="M24.21,16.76a8.66,8.66,0,1,1-8.66,8.66,8.66,8.66,0,0,1,8.66-8.66Z"/><path class="cls-1" d="M26.91,22.34a11.38,11.38,0,0,0-2.41-.64c-4.17-.47-4.71,3.73-.26,3.72s3.91,4.2-.28,3.72a12,12,0,0,1-2.4-.63"/></g></g></svg>