<?xml version="1.0" encoding="iso-8859-1"?>
<!-- Generator: Adobe Illustrator 19.0.0, SVG Export Plug-In . SVG Version: 6.00 Build 0)  -->
<svg version="1.1" id="Capa_1" xmlns="http://www.w3.org/2000/svg" xmlns:xlink="http://www.w3.org/1999/xlink" x="0px" y="0px"
	 viewBox="0 0 512 512" style="enable-background:new 0 0 512 512;" xml:space="preserve">
<g>
	<g>
		<path d="M262,120.01c-5.53,0-9.99,4.452-9.99,9.99c0,5.535,4.454,9.988,9.99,9.988c5.535,0,9.99-4.452,9.99-9.988
			C271.99,124.47,267.538,120.01,262,120.01z"/>
	</g>
</g>
<g>
	<g>
		<path d="M130,252.01c-5.53,0-9.99,4.452-9.99,9.99c0,5.535,4.454,9.988,9.99,9.988c5.535,0,9.99-4.452,9.99-9.988
			C139.99,256.47,135.538,252.01,130,252.01z"/>
	</g>
</g>
<g>
	<g>
		<path d="M382,0c-48.395,0-91.987,26.694-114.457,68.304l-47.969,11.995C215.123,81.412,212,85.412,212,90v13.013
			C152.139,103.55,103.55,152.139,103.013,212H90c-4.589,0-8.588,3.123-9.701,7.574l-11.994,47.969C26.727,289.993,0,333.566,0,382
			c0,71.682,58.317,130,130,130s130-58.318,130-130c0-48.407-26.704-91.994-68.305-114.457l-11.994-47.969
			C178.588,215.123,174.589,212,170,212h-6.976c0.254-12.977,5.413-25.147,14.614-34.356c9.214-9.207,21.385-14.366,34.361-14.62
			V170c0,4.588,3.123,8.588,7.574,9.701l47.969,11.995C289.994,233.271,333.566,260,382,260c71.683,0,130-58.318,130-130
			S453.683,0,382,0z M60,382c0-38.598,31.402-70,70-70s70,31.402,70,70c0,38.598-31.402,70-70,70S60,420.598,60,382z
			 M173.389,276.776c0.712,2.848,2.64,5.239,5.271,6.539C216.496,302.013,240,339.827,240,382c0,57.283-44.015,104.471-100,109.541
			v-20.099c44.937-4.991,80-43.196,80-89.441c0-49.626-40.374-90-90-90c-49.626,0-90,40.374-90,90c0,46.246,35.063,84.451,80,89.441
			v20.099C64.015,486.471,20,439.283,20,382c0-42.173,23.504-79.987,61.341-98.685c2.631-1.3,4.559-3.691,5.271-6.539L97.808,232
			h64.385L173.389,276.776z M211.999,143.025c-18.315,0.255-35.505,7.491-48.503,20.477c-12.98,12.992-20.216,30.182-20.472,48.498
			h-20.012c0.535-48.833,40.155-88.452,88.987-88.987V143.025z M382,240c-42.172,0-79.986-23.504-98.686-61.341
			c-1.301-2.631-3.691-4.559-6.539-5.271L232,162.192V97.808l44.775-11.196c2.848-0.712,5.238-2.639,6.539-5.271
			C302.014,43.504,339.828,20,382,20c57.283,0,104.471,44.015,109.541,100h-20.099C466.451,75.063,428.246,40,382,40
			c-49.626,0-90,40.374-90,90s40.374,90,90,90c46.246,0,84.451-35.163,89.441-80.1h20.099C486.471,195.885,439.283,240,382,240z
			 M452,130c0,38.598-31.402,70-70,70c-38.598,0-70-31.402-70-70c0-38.598,31.402-70,70-70C420.598,60,452,91.402,452,130z"/>
	</g>
</g>
<g>
</g>
<g>
</g>
<g>
</g>
<g>
</g>
<g>
</g>
<g>
</g>
<g>
</g>
<g>
</g>
<g>
</g>
<g>
</g>
<g>
</g>
<g>
</g>
<g>
</g>
<g>
</g>
<g>
</g>
</svg>
