<svg xmlns="http://www.w3.org/2000/svg" viewBox="0 0 142.18 130.83"><defs><style>.cls-1{fill:#222529;}</style></defs><title>divorce-law</title><g id="Layer_2" data-name="Layer 2"><g id="Layer_1-2" data-name="Layer 1"><path class="cls-1" d="M9.92,76.92h0a3,3,0,0,1-3-3V65.81A26.14,26.14,0,0,1,25.18,41.13V39a19.49,19.49,0,0,1-6.46-7.57c-3.66-.78-6.37-4.63-6.37-9.41,0-4.27,2.2-7.83,5.31-9.07C20.35,5.18,26.7.08,33.92.08c5.69,0,11,3.28,14.35,8.77a3,3,0,0,1-5.15,3.08c-2.23-3.71-5.58-5.85-9.2-5.85-5,0-9.41,4.08-11,10.15a3,3,0,0,1-2.85,2.24c-.6,0-1.72,1.36-1.72,3.53s1.12,3.55,1.73,3.55l.08,0a3,3,0,0,1,3.35,1.87,13.44,13.44,0,0,0,6.06,7.22,3,3,0,0,1,1.61,2.66V43.4a3,3,0,0,1-2.31,2.92A20.24,20.24,0,0,0,12.92,65.83v8.09A3,3,0,0,1,9.92,76.92Z"/><path class="cls-1" d="M132.26,73.9h-3V65.55c0-9.27-6.62-17.37-16.1-19.61A3,3,0,0,1,110.85,43V36.79a3,3,0,0,1,1.66-2.69,5.65,5.65,0,0,1,4-.15,15.76,15.76,0,0,0,4.93.46,9.13,9.13,0,0,0,3.74-1,25.86,25.86,0,0,1-4.89-12.89C119.68,13.53,114.8,6,108.06,6c-4.22,0-8.15,3-10.5,8l-.33.73a3,3,0,0,1-5.54-2.3c.14-.33.28-.65.43-1C95.49,4.29,101.45,0,108.06,0c10.25,0,17.33,10.14,18.26,20a19.41,19.41,0,0,0,5.26,11.68,3,3,0,0,1,.27,4.17,14.83,14.83,0,0,1-10.07,4.6,23.06,23.06,0,0,1-4.93-.26v.61a26.31,26.31,0,0,1,18.41,24.89V73.9Z"/><path class="cls-1" d="M42.75,77.21h0a3,3,0,0,1-3-3v-1.7a28.49,28.49,0,0,1,20.14-27V42.74a21.16,21.16,0,0,1-7.22-8.45c-4-.75-6.92-4.92-6.92-10.1,0-4.64,2.4-8.5,5.78-9.77C54.43,5.92,61.35.33,69.22.33S84,5.92,86.9,14.42c3.38,1.27,5.79,5.13,5.79,9.77,0,5.18-3,9.35-6.93,10.1a21.08,21.08,0,0,1-7.22,8.45V45.5a28.49,28.49,0,0,1,20.14,27v1.7h-6V72.46c0-10.32-7.33-19.28-17.83-21.76a3,3,0,0,1-2.31-2.92V41a3,3,0,0,1,1.61-2.65A15.14,15.14,0,0,0,81,30.25a3,3,0,0,1,3.34-1.87l.16,0c.87,0,2.21-1.68,2.21-4.21S85.38,20,84.49,20a3,3,0,0,1-2.85-2.24C79.85,10.92,74.86,6.33,69.22,6.33S58.58,10.92,56.79,17.74A3,3,0,0,1,54,20c-.9,0-2.2,1.67-2.2,4.21S53.08,28.4,54,28.4l.15,0a3,3,0,0,1,3.35,1.87,15.13,15.13,0,0,0,6.82,8.13A3,3,0,0,1,65.89,41v6.75a3,3,0,0,1-2.31,2.92C53.1,53.17,45.77,62.12,45.75,72.46c0,0,0,.08,0,.11v1.64A3,3,0,0,1,42.75,77.21Z"/><path class="cls-1" d="M139.18,85H3a3,3,0,0,1,0-6H139.18a3,3,0,0,1,0,6Z"/><path class="cls-1" d="M139.18,96.06H3a3,3,0,0,1,0-6H139.18a3,3,0,0,1,0,6Z"/><path class="cls-1" d="M11,130a3,3,0,0,1-3-3V94.33a3,3,0,0,1,6,0V127A3,3,0,0,1,11,130Z"/><path class="cls-1" d="M21.14,130a3,3,0,0,1-3-3V94.33a3,3,0,0,1,6,0V127A3,3,0,0,1,21.14,130Z"/><path class="cls-1" d="M68,130.4a3,3,0,0,1-3-3V94.75a3,3,0,0,1,6,0V127.4A3,3,0,0,1,68,130.4Z"/><path class="cls-1" d="M78.23,130.4a3,3,0,0,1-3-3V94.75a3,3,0,0,1,6,0V127.4A3,3,0,0,1,78.23,130.4Z"/><path class="cls-1" d="M121,130.83a3,3,0,0,1-3-3V95.18a3,3,0,0,1,6,0v32.65A3,3,0,0,1,121,130.83Z"/><path class="cls-1" d="M131.23,130.83a3,3,0,0,1-3-3V95.18a3,3,0,0,1,6,0v32.65A3,3,0,0,1,131.23,130.83Z"/></g></g></svg>