<svg xmlns="http://www.w3.org/2000/svg" viewBox="0 0 36.11 32.84"><defs><style>.cls-1,.cls-2{fill:none;stroke:#000;stroke-width:1.44px;}.cls-1{stroke-linecap:round;stroke-linejoin:round;}.cls-2{stroke-miterlimit:22.93;}</style></defs><title>health-law</title><g id="Layer_2" data-name="Layer 2"><g id="Layer_1-2" data-name="Layer 1"><path class="cls-1" d="M31,18.94l2.22-2.21c3.82-3.82,1.93-9-1.15-12.28a14,14,0,0,0-3.37-2.71c-1.56-.88-6.46-2.16-9.67,1L12.42,9.32c-1.8,1.79,2.73,3.52,5,1.26l1.67-1.66c2.48-2.24,5.59,2.26,9.47-.8"/><path class="cls-1" d="M5.15,17.89l-2.21-2.2C-4.44,8.32,8.34-4.32,15.82,3l1.49,1.49"/><path class="cls-1" d="M22.66,10.53l8.57,9c1.75,1.83-.85,5.32-3.09,3l-4-4.14"/><path class="cls-1" d="M20.62,21.17,25,25.7c1.76,1.82,5.34-.87,3.1-3.18l-4.32-4.45"/><path class="cls-1" d="M19.28,26.18l2.21,2.22c1.78,1.8,5.24-.77,3-3.11"/><path class="cls-2" d="M10.4,16.07l.24.24a2.06,2.06,0,0,1,0,2.9L7.59,22.26a2.07,2.07,0,0,1-2.9,0L4.46,22a2.05,2.05,0,0,1,0-2.9l3.05-3.05a2.06,2.06,0,0,1,2.89,0Zm5.14,1.4.23.23a2.05,2.05,0,0,1,0,2.9l-4.86,4.86a2.05,2.05,0,0,1-2.9,0l-.23-.23a2.05,2.05,0,0,1,0-2.9l4.86-4.86a2.05,2.05,0,0,1,2.9,0Zm2,4.54.24.24a2.06,2.06,0,0,1,0,2.89l-3.33,3.33a2.05,2.05,0,0,1-2.9,0l-.24-.23a2.07,2.07,0,0,1,0-2.9L14.62,22a2.05,2.05,0,0,1,2.9,0Zm2.14,4.33.24.24a2.06,2.06,0,0,1,0,2.89l-2,2.05a2.06,2.06,0,0,1-2.89,0l-.24-.23a2.06,2.06,0,0,1,0-2.9l2-2.05a2,2,0,0,1,2.89,0Z"/></g></g></svg>