<?xml version="1.0" ?><svg id="Layer_1_1_" style="enable-background:new 0 0 64 64;" version="1.1" viewBox="0 0 64 64" xml:space="preserve" xmlns="http://www.w3.org/2000/svg" xmlns:xlink="http://www.w3.org/1999/xlink"><g><path d="M40.987,34.239l-1.125-1.654C37.54,34.165,34.821,35,32,35c-7.72,0-14-6.28-14-14S24.28,7,32,7   s14,6.28,14,14c0,4.023-1.734,7.856-4.757,10.516l1.321,1.502C46.019,29.979,48,25.598,48,21c0-8.822-7.178-16-16-16   s-16,7.178-16,16s7.178,16,16,16C35.224,37,38.332,36.045,40.987,34.239z"/><path d="M35.287,11.553l0.658-1.889C34.68,9.224,33.353,9,32,9c-6.617,0-12,5.383-12,12s5.383,12,12,12   s12-5.383,12-12c0-4.332-2.349-8.344-6.129-10.469l-0.979,1.744C40.042,14.046,42,17.39,42,21c0,2.652-1.045,5.059-2.735,6.851   l-1.412-1.412C39.235,24.955,40,23.042,40,21c0-4.411-3.589-8-8-8v-2C33.128,11,34.234,11.186,35.287,11.553z M38,21   c0,1.507-0.555,2.92-1.56,4.026l-1.519-1.519C35.604,22.773,36,21.826,36,20.8c0-2.206-1.794-4-4-4V15C35.309,15,38,17.691,38,21z    M32,18.8c1.103,0,2,0.897,2,2c0,0.487-0.175,0.942-0.485,1.302L32,20.586V18.8z M37.752,29.166C36.123,30.317,34.142,31,32,31   c-5.514,0-10-4.486-10-10c0-4.829,3.441-8.869,8-9.798v10.212L37.752,29.166z"/><path d="M58,23c-2.757,0-5,2.243-5,5c0,1.592,0.762,2.997,1.925,3.913l-3.205,6.411   C51.181,38.125,50.607,38,50,38c-1.049,0-2.02,0.327-2.825,0.881l-2.867-2.15C48.981,33.067,52,27.385,52,21   C52,9.972,43.028,1,32,1S12,9.972,12,21c0,4.718,1.651,9.052,4.394,12.476l-2.049,2.732C13.914,36.086,13.469,36,13,36   c-2.757,0-5,2.243-5,5c0,1.58,0.751,2.974,1.899,3.891l-2.078,3.464C7.255,48.132,6.644,48,6,48c-2.757,0-5,2.243-5,5s2.243,5,5,5   s5-2.243,5-5c0-1.393-0.575-2.652-1.498-3.56l2.183-3.638C12.107,45.918,12.542,46,13,46c2.757,0,5-2.243,5-5   c0-1.561-0.734-2.939-1.858-3.857l1.604-2.138c2.27,2.31,5.092,4.076,8.254,5.073V43h-2v2h2v13c0,2.757,2.243,5,5,5h2   c2.757,0,5-2.243,5-5V45h2v-2h-2v-2.922c1.631-0.514,3.162-1.247,4.585-2.139l3.199,2.399C45.294,41.11,45,42.019,45,43   c0,2.757,2.243,5,5,5s5-2.243,5-5c0-1.427-0.609-2.709-1.571-3.621l3.284-6.568C57.126,32.922,57.552,33,58,33c2.757,0,5-2.243,5-5   S60.757,23,58,23z M6,56c-1.654,0-3-1.346-3-3s1.346-3,3-3s3,1.346,3,3S7.654,56,6,56z M13,44c-1.654,0-3-1.346-3-3s1.346-3,3-3   s3,1.346,3,3S14.654,44,13,44z M14,21c0-9.925,8.075-18,18-18s18,8.075,18,18s-8.075,18-18,18S14,30.925,14,21z M36,58   c0,1.654-1.346,3-3,3h-2c-1.654,0-3-1.346-3-3V45h8V58z M36,43h-8v-2.403C29.293,40.86,30.63,41,32,41s2.707-0.14,4-0.403V43z    M50,46c-1.654,0-3-1.346-3-3s1.346-3,3-3s3,1.346,3,3S51.654,46,50,46z M58,31c-1.654,0-3-1.346-3-3s1.346-3,3-3s3,1.346,3,3   S59.654,31,58,31z"/></g></svg>