<?xml version="1.0" ?><svg id="Layer_1_1_" style="enable-background:new 0 0 64 64;" version="1.1" viewBox="0 0 64 64" xml:space="preserve" xmlns="http://www.w3.org/2000/svg" xmlns:xlink="http://www.w3.org/1999/xlink"><g><path d="M35,19c0,5.514,4.486,10,10,10c1.988,0,3.91-0.583,5.557-1.685l-1.112-1.662   C48.128,26.534,46.591,27,45,27c-4.411,0-8-3.589-8-8s3.589-8,8-8s8,3.589,8,8c0,1.972-0.724,3.866-2.037,5.333l1.49,1.334   C54.096,23.832,55,21.464,55,19c0-5.514-4.486-10-10-10S35,13.486,35,19z"/><path d="M45,1c-9.925,0-18,8.075-18,18c0,1.391,0.162,2.767,0.475,4.108C21.577,23.861,17,28.901,17,35   c0,6.617,5.383,12,12,12c6.099,0,11.139-4.577,11.892-10.475C42.233,36.838,43.61,37,45,37c9.925,0,18-8.075,18-18S54.925,1,45,1z    M29,45c-5.514,0-10-4.486-10-10s4.486-10,10-10s10,4.486,10,10S34.514,45,29,45z M45,35c-1.367,0-2.717-0.182-4.026-0.522   c-0.032-0.748-0.129-1.478-0.293-2.184C42.072,32.744,43.53,33,45,33c7.72,0,14-6.28,14-14c0-6.496-4.405-12.094-10.713-13.612   l-0.468,1.944C53.225,8.634,57,13.432,57,19c0,6.617-5.383,12-12,12c-1.83,0-3.575-0.414-5.202-1.201   c-1.18-2.44-3.157-4.417-5.597-5.597C33.414,22.575,33,20.83,33,19c0-6.617,5.383-12,12-12c0.311,0,0.619,0.012,0.923,0.035   l0.153-1.994C45.721,5.014,45.362,5,45,5c-7.72,0-14,6.28-14,14c0,1.47,0.256,2.928,0.706,4.319   c-0.707-0.164-1.437-0.26-2.184-0.293C29.182,21.717,29,20.368,29,19c0-8.822,7.178-16,16-16s16,7.178,16,16S53.822,35,45,35z"/><path d="M45,13c-3.309,0-6,2.691-6,6s2.691,6,6,6s6-2.691,6-6S48.309,13,45,13z M45,23c-2.206,0-4-1.794-4-4   s1.794-4,4-4s4,1.794,4,4S47.206,23,45,23z"/><path d="M31.5,29H30v-2h-2v2h-1.5c-1.93,0-3.5,1.57-3.5,3.5s1.57,3.5,3.5,3.5h5c0.827,0,1.5,0.673,1.5,1.5   S32.327,39,31.5,39h-5c-0.827,0-1.5-0.673-1.5-1.5V37h-2v0.5c0,1.93,1.57,3.5,3.5,3.5H28v2h2v-2h1.5c1.93,0,3.5-1.57,3.5-3.5   S33.43,34,31.5,34h-5c-0.827,0-1.5-0.673-1.5-1.5s0.673-1.5,1.5-1.5h5c0.827,0,1.5,0.673,1.5,1.5V33h2v-0.5   C35,30.57,33.43,29,31.5,29z"/><rect height="2" transform="matrix(0.7071 -0.7071 0.7071 0.7071 -41.7548 20.1949)" width="4.243" x="1.379" y="59.5"/><rect height="2" transform="matrix(0.7071 -0.7071 0.7071 0.7071 -32.2548 24.1299)" width="16.971" x="4.515" y="50"/><rect height="2" transform="matrix(0.7071 -0.7071 0.7071 0.7071 -40.2904 23.7304)" width="4.243" x="6.379" y="59.5"/><rect height="2" transform="matrix(0.7071 -0.7071 0.7071 0.7071 -33.7904 26.4228)" width="8.485" x="10.757" y="53"/><rect height="2" transform="matrix(0.7071 -0.7071 0.7071 0.7071 -27.7904 28.9081)" width="2.828" x="19.586" y="47"/><rect height="2" transform="matrix(0.7071 -0.7071 0.7071 0.7071 -38.7193 18.5233)" width="2.828" x="1.586" y="55"/><rect height="2" transform="matrix(0.7071 -0.7071 0.7071 0.7071 -34.2193 20.3873)" width="4.243" x="5.379" y="50.5"/><rect height="2" transform="matrix(0.7071 -0.7071 0.7071 0.7071 -27.7193 23.0797)" width="8.485" x="9.757" y="44"/></g></svg>