<?xml version="1.0" ?><svg id="Layer_1_1_" style="enable-background:new 0 0 64 64;" version="1.1" viewBox="0 0 64 64" xml:space="preserve" xmlns="http://www.w3.org/2000/svg" xmlns:xlink="http://www.w3.org/1999/xlink"><path d="M56.166,37H60c1.654,0,3-1.346,3-3s-1.346-3-3-3H44h-0.031C45.194,30.088,46,28.641,46,27  c0-2.757-2.243-5-5-5v-9.387L30.442,1H1v50h20v-0.026C21.838,51.609,22.87,52,24,52h7c2.757,0,5-2.243,5-5v-1h-1.434l-5.4-9H38v19  h-5c-2.757,0-5,2.243-5,5v2h26v-2c0-2.757-2.243-5-5-5h-5V37h9.779l-6.3,9H46v1c0,2.757,2.243,5,5,5h7c2.757,0,5-2.243,5-5v-1  h-1.434L56.166,37z M44,27c0,1.654-1.346,3-3,3s-3-1.346-3-3s1.346-3,3-3S44,25.346,44,27z M37,24.031V14h2v8.424  C38.199,22.776,37.517,23.337,37,24.031z M31,12V4.587L37.739,12H31z M32,16c0,1.103-0.897,2-2,2s-2-0.897-2-2s0.897-2,2-2  S32,14.897,32,16z M29,12.142c-1.721,0.447-3,1.999-3,3.858c0,0.661,0.176,1.275,0.461,1.824L25.2,18.665  C24.568,18.247,23.813,18,23,18c-0.696,0-1.341,0.195-1.912,0.508l-3.1-3.875C18.61,13.928,19,13.013,19,12c0-2.206-1.794-4-4-4  s-4,1.794-4,4c0,1.405,0.731,2.637,1.829,3.351l-0.575,1.724C10.404,17.426,9,19.049,9,21c0,2.206,1.794,4,4,4s4-1.794,4-4  c0-1.746-1.13-3.217-2.692-3.762l0.422-1.265C14.821,15.979,14.907,16,15,16c0.467,0,0.908-0.095,1.324-0.243l3.297,4.122  C19.234,20.495,19,21.219,19,22c0,2.206,1.794,4,4,4s4-1.794,4-4c0-0.661-0.176-1.275-0.461-1.824l1.261-0.841  C28.432,19.753,29.187,20,30,20c2.206,0,4-1.794,4-4c0-0.732-0.212-1.409-0.556-2H35v13H7V7h22V12.142z M23,20c1.103,0,2,0.897,2,2  s-0.897,2-2,2s-2-0.897-2-2S21.897,20,23,20z M13,19c1.103,0,2,0.897,2,2s-0.897,2-2,2s-2-0.897-2-2S11.897,19,13,19z M13,12  c0-1.103,0.897-2,2-2s2,0.897,2,2s-0.897,2-2,2S13,13.103,13,12z M31,50h-7c-1.304,0-2.416-0.836-2.829-2h12.658  C33.416,49.164,32.304,50,31,50z M22.921,46l5.015-7.164L32.234,46H22.921z M20.479,46H19v1c0,0.712,0.154,1.386,0.424,2H3V3h26v2H5  v24h31.424c0.352,0.801,0.913,1.483,1.607,2H38H22c-1.654,0-3,1.346-3,3s1.346,3,3,3h4.779L20.479,46z M22,35c-0.552,0-1-0.448-1-1  s0.448-1,1-1h16v2H22z M49,58c1.654,0,3,1.346,3,3H30c0-1.654,1.346-3,3-3h5h6H49z M40,56V31.899C40.323,31.965,40.658,32,41,32  s0.677-0.035,1-0.101V56H40z M44,33h16c0.552,0,1,0.448,1,1s-0.448,1-1,1H44V33z M54.936,38.836L59.234,46h-9.313L54.936,38.836z   M58,50h-7c-1.304,0-2.416-0.836-2.829-2h12.658C60.416,49.164,59.304,50,58,50z"/></svg>