<svg xmlns="http://www.w3.org/2000/svg" xmlns:xlink="http://www.w3.org/1999/xlink" x="0px" y="0px" viewBox="0 0 74 74" xml:space="preserve">
	<path fill="#212121" d="M71,64.6h-3V17.4c0-2.6-2.1-4.6-4.6-4.6h-6.9c-2.6,0-4.6,2.1-4.6,4.6v47.3h-6.4V38.8c0-2.6-2.1-4.6-4.6-4.6H34
		c-2.6,0-4.6,2.1-4.6,4.6v25.9H23V52.5c0-2.6-2.1-4.6-4.6-4.6h-6.9c-2.6,0-4.6,2.1-4.6,4.6v12.1H3c-1.1,0-2,0.9-2,2s0.9,2,2,2h68
		c1.1,0,2-0.9,2-2S72.1,64.6,71,64.6z M55.8,17.4c0-0.4,0.3-0.6,0.6-0.6h6.9c0.4,0,0.6,0.3,0.6,0.6v47.3h-8.2V17.4H55.8z M33.3,38.8
		c0-0.4,0.3-0.6,0.6-0.6h6.9c0.4,0,0.6,0.3,0.6,0.6v25.9h-8.2V38.8H33.3z M10.7,52.5c0-0.4,0.3-0.6,0.6-0.6h6.9
		c0.4,0,0.6,0.3,0.6,0.6v12.1h-8.2L10.7,52.5L10.7,52.5z"/>
	<path fill="#212121" d="M11.6,40c0.5,0,1-0.2,1.4-0.6l27.2-27.2v6.1c0,1.1,0.9,2,2,2s2-0.9,2-2v-11c0-1.1-0.9-2-2-2h-11
		c-1.1,0-2,0.9-2,2s0.9,2,2,2h6.1L10.2,36.6c-0.8,0.8-0.8,2,0,2.8C10.6,39.8,11.1,40,11.6,40z"/>
</svg>
