<?xml version="1.0" encoding="utf-8"?>
<svg version="1.1" xmlns="http://www.w3.org/2000/svg" xmlns:xlink="http://www.w3.org/1999/xlink" x="0px" y="0px" viewBox="0 0 419 420" style="enable-background:new 0 0 419 420;" xml:space="preserve">
	<path d="M303.7,411.1c-15.6-0.1-31.2-2.1-46.4-5.9c-52.4-12.6-106.4-44.7-152-90.4s-77.7-99.6-90.4-152
		C1.7,107.8,11.2,60.6,41.7,30.1l8.7-8.7c16.5-16.4,43.1-16.4,59.6,0l50.1,50.1c16.5,16.5,16.5,43.2,0,59.6l-29.6,29.6
		c14.2,24.9,33.5,49.8,56.3,72.6s47.8,42.1,72.6,56.3l29.6-29.6c16.5-16.5,43.1-16.5,59.6,0c0,0,0,0,0,0l50.1,50.1
		c16.5,16.5,16.5,43.1,0,59.6l-8.7,8.7C368.5,400,338.7,411.1,303.7,411.1z M80.2,39c-3.2,0-6.3,1.3-8.6,3.6l-8.7,8.7
		c-22.9,22.9-29.6,60-18.8,104.5c11.4,47.1,40.6,96.1,82.4,137.9s90.7,71,137.9,82.4c44.5,10.7,81.6,4.1,104.5-18.8l8.7-8.7
		c4.7-4.7,4.7-12.4,0-17.2l-50.1-50.1c-4.7-4.7-12.4-4.7-17.2,0l-37.5,37.5c-4.6,4.6-11.7,5.7-17.5,2.7c-30.8-15.9-61.8-39-89.6-67
		s-51-58.9-66.9-89.6c-3-5.8-1.9-12.9,2.7-17.5l37.5-37.5c4.7-4.7,4.7-12.4,0-17.2L88.8,42.6C86.5,40.3,83.4,39,80.2,39z"/>
	<path d="M319.8,230.7c-8.3,0-15-6.7-15-15l0,0c-0.1-54.8-44.5-99.2-99.3-99.3c-8.3,0-15-6.7-15-15s6.7-15,15-15l0,0
		c71.3,0,129.3,58,129.3,129.3C334.8,224,328,230.7,319.8,230.7C319.8,230.7,319.8,230.7,319.8,230.7z"/>
	<path d="M383.1,230.7c-8.3,0-15-6.7-15-15l0,0c0-89.7-73-162.7-162.6-162.7c-8.3,0-15-6.7-15-15s6.7-15,15-15l0,0
		c106.2,0,192.6,86.4,192.6,192.7C398.1,224,391.4,230.7,383.1,230.7L383.1,230.7z"/>
</svg>