<?xml version="1.0" encoding="utf-8"?>
<svg version="1.1" id="Layer_1" xmlns="http://www.w3.org/2000/svg" xmlns:xlink="http://www.w3.org/1999/xlink" x="0px" y="0px" viewBox="0 0 74 74" style="enable-background:new 0 0 74 74;" xml:space="preserve">
	<path fill="#2B3033" d="M72.9,46.2L62,17.7h3.3c1.1,0,2-0.9,2-2s-0.9-2-2-2h-22c-0.6-2-2.3-3.6-4.3-4.3v-5c0-1.1-0.9-2-2-2s-2,0.9-2,2
		v5c-2,0.6-3.6,2.3-4.3,4.3h-22c-1.1,0-2,0.9-2,2s0.9,2,2,2H12L1.1,46.2C1,46.4,1,46.7,1,46.9c0,5.2,1,8.6,3,10.6s4.7,2.2,7.4,2.2
		c0.6,0,1.1,0,1.7,0c1.2,0,2.4,0,3.6,0c3.3,0.1,6.7,0.1,9.1-2.2c2-2,3-5.4,3-10.6c0-0.2,0-0.5-0.1-0.7L17.8,17.7h12.9
		c0.6,2,2.3,3.6,4.3,4.3v45.7H20.8c-1.1,0-2,0.9-2,2s0.9,2,2,2h32.4c1.1,0,2-0.9,2-2s-0.9-2-2-2H39V22c2-0.6,3.6-2.3,4.3-4.3h12.9
		L45.4,46.2c-0.1,0.2-0.1,0.5-0.1,0.7c0,5.2,1,8.6,3,10.6s4.7,2.2,7.4,2.2c0.6,0,1.1,0,1.7,0c1.2,0,2.4,0,3.6,0
		c3.3,0.1,6.7,0.1,9.1-2.2c2-2,3-5.4,3-10.6C73,46.7,73,46.4,72.9,46.2z M14.9,21.3l9,23.6h-18L14.9,21.3z M16.8,55.8
		c-1.2,0-2.6,0-3.8,0c-3.1,0.1-5,0-6.2-1.1c-1-1-1.5-2.9-1.7-5.8h19.6c-0.2,2.9-0.8,4.8-1.7,5.8C21.8,55.8,19.9,55.8,16.8,55.8z
		 M37,18.3c-1.4,0-2.6-1.2-2.6-2.6s1.2-2.6,2.6-2.6l0,0l0,0c1.4,0,2.6,1.2,2.6,2.6S38.4,18.3,37,18.3z M59.1,21.3l9,23.6H50.2
		L59.1,21.3z M61,55.8c-1.2,0-2.6,0-3.8,0c-3.1,0.1-5,0-6.2-1.1c-1-1-1.5-2.9-1.7-5.8h19.6c-0.2,2.9-0.8,4.8-1.7,5.8
		C66.1,55.8,64.1,55.8,61,55.8z"/>
</svg>