<?xml version="1.0" ?><!DOCTYPE svg  PUBLIC '-//W3C//DTD SVG 1.1//EN'  'http://www.w3.org/Graphics/SVG/1.1/DTD/svg11.dtd'><svg height="100%" style="fill-rule:evenodd;clip-rule:evenodd;stroke-linejoin:round;stroke-miterlimit:2;" version="1.1" viewBox="0 0 24 24" width="100%" xml:space="preserve" xmlns="http://www.w3.org/2000/svg" xmlns:serif="http://www.serif.com/" xmlns:xlink="http://www.w3.org/1999/xlink"><g id="Icon"><path d="M13.434,2.653c-0.88,-0.537 -1.988,-0.537 -2.868,0c-0.584,0.357 -1.269,0.776 -1.654,1.011c-0.125,0.077 -0.263,0.131 -0.407,0.16c-0.622,0.124 -1.962,0.392 -3.044,0.608c-1.286,0.258 -2.211,1.386 -2.211,2.697c-0,0.973 -0,2.288 -0,3.689c0,5.147 3.503,9.633 8.496,10.881l0.001,0c0.166,0.042 0.34,0.042 0.506,0c0.001,0 0.001,0 0.001,-0c4.993,-1.248 8.496,-5.734 8.496,-10.881c-0,-1.401 -0,-2.716 -0,-3.689c0,-1.311 -0.925,-2.439 -2.211,-2.697c-1.082,-0.216 -2.422,-0.484 -3.044,-0.608c-0.144,-0.029 -0.282,-0.083 -0.407,-0.16c-0.385,-0.235 -1.07,-0.654 -1.654,-1.011Zm-1.434,17.562c4.267,-1.119 7.25,-4.977 7.25,-9.397c-0,-1.401 -0,-2.716 -0,-3.689c0,-0.596 -0.421,-1.109 -1.005,-1.226c-1.082,-0.216 -2.422,-0.484 -3.044,-0.609c-0.317,-0.063 -0.619,-0.181 -0.895,-0.35c-0.385,-0.235 -1.071,-0.654 -1.654,-1.011c-0.4,-0.244 -0.904,-0.244 -1.304,0c-0.583,0.357 -1.269,0.776 -1.654,1.011c-0.276,0.169 -0.578,0.287 -0.895,0.35c-0.622,0.125 -1.962,0.393 -3.044,0.609c-0.584,0.117 -1.005,0.63 -1.005,1.226c-0,0.973 -0,2.288 -0,3.689c0,4.42 2.983,8.278 7.25,9.397Z"/><path d="M11,12.939l3.47,-3.469c0.292,-0.293 0.768,-0.293 1.06,-0c0.293,0.292 0.293,0.768 0,1.06l-4,4c-0.293,0.293 -0.767,0.293 -1.06,0l-1.5,-1.5c-0.293,-0.292 -0.293,-0.768 -0,-1.06c0.292,-0.293 0.768,-0.293 1.06,-0l0.97,0.969Z"/></g></svg>