<?xml version="1.0" ?><svg data-name="Layer 1" id="Layer_1" viewBox="0 0 32 32" xmlns="http://www.w3.org/2000/svg"><title/><path d="M26.61,2H10.74a2.9,2.9,0,0,0-.6.07A7.14,7.14,0,0,0,9.21,2,6.62,6.62,0,0,0,7.94,15.12V27.2a2.81,2.81,0,0,0,2.8,2.8H26.61a2.8,2.8,0,0,0,2.8-2.8V4.8A2.8,2.8,0,0,0,26.61,2ZM4.46,8.62a4.76,4.76,0,1,1,4.75,4.76A4.75,4.75,0,0,1,4.46,8.62ZM27.54,27.2a.93.93,0,0,1-.93.93H10.74a.93.93,0,0,1-.93-.93v-12a6.61,6.61,0,0,0,4-11.34h12.8a.93.93,0,0,1,.93.93Z"/><path d="M12.2,6.41a.92.92,0,0,0-1.32,0L8.44,8.86,7.54,8A.93.93,0,1,0,6.22,9.28l1.56,1.56a.93.93,0,0,0,.66.27,1,1,0,0,0,.66-.27l3.1-3.11A.92.92,0,0,0,12.2,6.41Z"/></svg>