<svg xmlns="http://www.w3.org/2000/svg" viewBox="0 0 37.08 33.53"><defs><style>.cls-1{fill:none;stroke:#000;stroke-linecap:round;stroke-linejoin:round;stroke-width:1.44px;}</style></defs><title>icon-pre-construction</title><g id="Layer_2" data-name="Layer 2"><g id="Layer_1-2" data-name="Layer 1"><path class="cls-1" d="M31.17,22.43A5.19,5.19,0,1,1,26,27.62a5.19,5.19,0,0,1,5.19-5.19Z"/><path class="cls-1" d="M6.37,15.73l3.8.6,2.4,12a.76.76,0,0,0,.15.4.82.82,0,0,0,1.14.17h0l5.47-3.48L31,27.67"/><path class="cls-1" d="M13.11,9.7H33.94c.44,0,.53.45.27.81L25.72,22.12c-.26.36-.37.87-.81.81L14.67,21.36a.91.91,0,0,1-.8-.8l-1.57-10a.77.77,0,0,1,.81-.81Z"/><path class="cls-1" d="M1.87,13.45l3.64.5a.91.91,0,0,1,.76,1l-.14,1a.9.9,0,0,1-1,.76l-3.64-.5a.89.89,0,0,1-.76-1l.13-1a.91.91,0,0,1,1-.77Z"/><path class="cls-1" d="M14.37,9.19,22.47,1A1.06,1.06,0,0,1,24,1l8.1,8.16"/></g></g></svg>