<svg xmlns="http://www.w3.org/2000/svg" viewBox="0 0 31.97 35.46"><defs><style>.cls-1,.cls-2,.cls-3{fill:none;stroke:#000;stroke-linecap:round;stroke-linejoin:round;}.cls-1{stroke-width:1.44px;}.cls-2{stroke-width:1.44px;}.cls-3{stroke-width:1.44px;}</style></defs><title>icon-plumbing</title><g id="Layer_2" data-name="Layer 2"><g id="Layer_1-2" data-name="Layer 1"><line class="cls-1" x1="15.12" y1="6.37" x2="15.12" y2="3.91"/><path class="cls-2" d="M15.12.72a1.6,1.6,0,1,1-1.6,1.6,1.59,1.59,0,0,1,1.6-1.6Z"/><path class="cls-2" d="M22.27,2.32H16.93m-3.63,0H8"/><path class="cls-1" d="M27.7,26.76c-1.3,3.59-2.59,4.93-2.59,6a2.24,2.24,0,0,0,2.44,2,2.24,2.24,0,0,0,2.43-2c0-1.09-2.44-2.63-2.28-6Z"/><path class="cls-3" d="M.72,13.81V20m.88-5.41h9.24a1.19,1.19,0,0,0,.8-.76V10.29M10.3,9.46H20m-1.34.83V13.8a1.15,1.15,0,0,0,.8.76c6.18,0,9.21.5,10.15,5.5A29.09,29.09,0,0,1,30,23.88m-4.53,0a13.05,13.05,0,0,0-.17-3.08c-.33-1.2-1.16-1.75-2.92-1.78-2.15,0-2.69,2.55-7.18,2.55S10.2,19.1,8,19.1H1.6M12.8,8.67V7.16a.8.8,0,0,1,.79-.79h2.72m0,0h.43a.79.79,0,0,1,.79.79V8.67M24.15,24.8h7.1"/></g></g></svg>