<?xml version="1.0" encoding="utf-8"?>
<svg version="1.1" xmlns="http://www.w3.org/2000/svg" xmlns:xlink="http://www.w3.org/1999/xlink" x="0px" y="0px"
	 viewBox="0 0 34.87 38.41" style="enable-background:new 0 0 34.87 38.41;" xml:space="preserve">
	<line x1="16.75" y1="8.39" x2="16.75" y2="5.92"/>
	<path fill="none" stroke-width="1.4" d="M16.75,2.73c0.88,0,1.6,0.71,1.6,1.6c0,0.88-0.71,1.59-1.6,1.59c-0.88,0-1.59-0.71-1.59-1.59
		C15.15,3.45,15.87,2.73,16.75,2.73L16.75,2.73z"/>
	<path fill="none" stroke-width="1.4" d="M23.89,4.33h-5.33 M14.93,4.33H9.6"/>
	<path fill="none" stroke-width="1.4" d="M29.33,28.77c-1.3,3.6-2.59,4.94-2.59,6.02c0,1.08,1.09,1.96,2.43,1.96c1.34,0,2.43-0.88,2.43-1.96
		C31.61,33.71,29.17,32.16,29.33,28.77L29.33,28.77z"/>
	<path fill="none" stroke-width="1.4" d="M2.35,15.82v6.16 M3.23,16.57h9.24c0.38-0.1,0.68-0.39,0.8-0.76V12.3 M11.92,11.47h9.74 M20.33,12.3v3.52
		c0.12,0.37,0.42,0.65,0.8,0.75c6.18,0,9.21,0.5,10.16,5.5c0.17,0.92,0.28,2.56,0.32,3.82 M27.07,25.89
		c0.04-1.04,0.01-2.43-0.17-3.07c-0.33-1.21-1.16-1.75-2.92-1.78c-2.15-0.04-2.69,2.55-7.18,2.55c-4.5,0-4.97-2.47-7.14-2.47H3.23
		M14.43,10.69V9.17c0-0.43,0.36-0.79,0.79-0.79h0.43h2.28 M17.93,8.39h0.43c0.43,0,0.79,0.36,0.79,0.79v1.51 M25.77,26.81h7.1"/>
</svg>
