<?xml version="1.0" encoding="utf-8"?>
<svg version="1.1" xmlns="http://www.w3.org/2000/svg" xmlns:xlink="http://www.w3.org/1999/xlink" x="0px" y="0px"
	 viewBox="0 0 38.41 38.27" style="enable-background:new 0 0 38.41 38.27;" xml:space="preserve">
<path fill="none" stroke-width="1.4" d="M20.21,28.87L8.81,17.47l-2.16,2.16l2.03,2.03c0.96,0.96,1.44,1.9-0.04,4.09c-1.48,2.19-3.77,1.61-5.32,3.16
	c-1.51,1.51-1.51,3.96,0,5.46c1.51,1.51,3.95,1.51,5.46,0c0.44-0.44,0.76-0.97,0.94-1.53c0.85-2.61,0.2-2.49,2.22-3.79
	c2.02-1.3,3.13-1,4.09-0.04l2.03,2.03L20.21,28.87L20.21,28.87z M10.43,15.65l11.6,11.6"/>
<path fill="none" stroke-width="1.4" d="M11.58,13.35L24.33,26.1 M24.33,24.74l9.57-8.38c1.55-1.35-2.99-5.76-3.82-6.76c-3.69-4.51-8.57-9.5-9.67-5.12
	l-7.58,8.78 M20.4,4.47c0.52,0.58,2.15,2.14,1.32,2.76c-2.29,1.41-2.99,2.63-2.17,3.65c0.59,0.74,2.1,1.39,3,0.19
	c1.19-1.59,5.63-3.2,4.03-0.02c-0.7,1.39,0.91,2.39,2.27,1.35c0.88-0.67,2.55,2.58,3.62,4.83"/>
<path fill="none" stroke-width="1.4" d="M33.59,20.7c-1.29,3.6-2.59,4.94-2.59,6.02c0,1.08,1.09,1.96,2.43,1.96c1.34,0,2.43-0.88,2.43-1.96
	C35.87,25.64,33.43,24.09,33.59,20.7L33.59,20.7z"/>
</svg>
