<?xml version="1.0" encoding="utf-8"?>
<svg version="1.1" xmlns="http://www.w3.org/2000/svg" xmlns:xlink="http://www.w3.org/1999/xlink" x="0px" y="0px"
	 viewBox="0 0 39.69 36.07" style="enable-background:new 0 0 39.69 36.07;" xml:space="preserve">
<path fill="none" stroke-width="1.4" d="M32.35,23.6c2.87,0,5.19,2.32,5.19,5.19s-2.32,5.19-5.19,5.19s-5.19-2.32-5.19-5.19S29.48,23.6,32.35,23.6
	L32.35,23.6z"/>
<path fill="none" stroke-width="1.4" d="M7.55,16.9l3.8,0.6l2.4,12.04c0.01,0.14,0.07,0.28,0.15,0.4c0.27,0.36,0.78,0.44,1.14,0.17l0,0l5.47-3.48
	l11.65,2.21"/>
<path fill="none" stroke-width="1.4" d="M14.29,10.88h20.83c0.44,0,0.54,0.45,0.28,0.8L26.9,23.3c-0.26,0.35-0.37,0.87-0.8,0.8l-10.24-1.57
	c-0.43-0.07-0.74-0.37-0.8-0.8l-1.57-10.05C13.41,11.25,13.84,10.88,14.29,10.88L14.29,10.88z"/>
<path fill="none" stroke-width="1.4" d="M3.05,14.63l3.64,0.5c0.48,0.07,0.83,0.52,0.76,1l-0.14,0.99c-0.07,0.49-0.52,0.83-1,0.76l-3.64-0.5
	c-0.49-0.07-0.83-0.52-0.76-1l0.14-0.99C2.11,14.9,2.56,14.56,3.05,14.63L3.05,14.63z"/>
<path fill="none" stroke-width="1.4" d="M15.55,10.36l8.09-8.16c0.41-0.41,1.08-0.41,1.5,0l8.09,8.16"/>
</svg>
