<?xml version="1.0" encoding="utf-8"?>
<svg version="1.1" xmlns="http://www.w3.org/2000/svg" xmlns:xlink="http://www.w3.org/1999/xlink" x="0px" y="0px"
	 viewBox="0 0 29.13 39.64" style="enable-background:new 0 0 29.13 39.64;" xml:space="preserve">
    <polygon fill="none" stroke-width="1.4" points="7.18,5.39 14.69,5.39 22.19,5.39 27.64,10.45 21.16,24.67 14.69,24.67 8.21,24.67 1.74,10.45 
        7.18,5.39 "/>
    <path fill="none" stroke-width="1.4" d="M19.58,33.08c0,1.26-0.55,2.4-1.43,3.23c-0.88,0.83-2.11,1.34-3.46,1.34c-1.35,0-2.57-0.51-3.46-1.34
        c-0.88-0.83-1.43-1.97-1.43-3.23c0-1.26,0.45-2.51,1.43-3.23c2.66-1.93,3.49-1.74,3.46-3.26v-1.92"/>
    <line stroke-width="1.4" x1="10.71" y1="5.39" x2="10.71" y2="2.2"/>
    <line stroke-width="1.4" x1="18.67" y1="5.39" x2="18.67" y2="2.2"/>
    <line stroke-width="1.4" x1="12.93" y1="5.39" x2="3.87" y2="13.84"/>
    <line stroke-width="1.4" x1="18.54" y1="5.4" x2="5.72" y2="17.36"/>
    <line stroke-width="1.4" x1="23.2" y1="6.29" x2="7.32" y2="21.1"/>
    <line stroke-width="1.4" x1="25.9" y1="9" x2="9.17" y2="24.62"/>
    <line stroke-width="1.4" x1="25.88" y1="14.31" x2="15.02" y2="24.4"/>
</svg>