<svg xmlns="http://www.w3.org/2000/svg" viewBox="0 0 365.67 386.14"><title>Asset 23)</title><g id="Layer_2" data-name="Layer 2"><g id="Layer_1-2" data-name="Layer 1"><path d="M365.67,293.38c0-15.56-11.4-29.84-33-41.31a170.09,170.09,0,0,0-34.4-13.2,19,19,0,0,0-.24-18,135,135,0,0,0,31.32-24.4c20.22-21.38,31.36-48.42,31.36-76.1C360.75,54,298.27,0,221.47,0c-30.41,0-59.31,8.31-83.55,24-20.53,13.31-36.57,31.54-46,52.05L37.07,13.26C30.59,5.57,22.77,1.17,15.61,1.17A15,15,0,0,0,6.24,4.33c-8.55,6.74-8.3,18.31.66,31L7,35.5,133.9,219.38A97,97,0,0,0,136,240.83c-38.56,12-60.56,31-60.56,52.55a26.37,26.37,0,0,0,.13,2.67,5.41,5.41,0,0,0-.13,1.21v10.37c0,21.69,15.6,41.77,43.92,56.55,27.12,14.16,63.06,22,101.18,22s74.07-7.8,101.2-22c28.31-14.78,43.91-34.86,43.91-56.55V296.94a6.74,6.74,0,0,0-.1-1.11C365.63,295,365.67,294.2,365.67,293.38Zm-76.81-63.31a7.38,7.38,0,0,1-2.79,5.79c-5-1.09-10.12-2.06-15.37-2.9a150.56,150.56,0,0,0,17.06-6.76A7.37,7.37,0,0,1,288.86,230.07Zm-78.13,72a80.87,80.87,0,0,0,2.08,8.75,45.34,45.34,0,0,1-6.14.41h0c-12.7,0-24.17-5.31-31.45-14.54-.22-.28-.43-.58-.65-.87a5.56,5.56,0,0,0-.53-.65c-21.78-28.68-29-57.52-28.53-76l19.42-15.3c5.46,2.57,24.55,11.78,35.16,19.82a5.87,5.87,0,0,0,3.5,1.17,5.8,5.8,0,0,0,3.5-10.42c-9.2-7-23.57-14.41-32-18.56l1.84-1.46,3-2.37c17.87,3.79,43.52,16.89,65.74,43.12a6.07,6.07,0,0,0,1.05,1.26c.24.29.49.58.73.88a5,5,0,0,0,.44.59l.32.38c.15.17.3.34.42.5,6.79,8.61,9.43,19.69,7.45,31.21a49.57,49.57,0,0,1-18.49,30.3,51.4,51.4,0,0,1-6.64,4.42c-6-3.54-8.86-6-10.18-7.45a5.79,5.79,0,0,0-10,4.81ZM171,184.29l-4.21,3.31-26.39,20.8L123,183.23a6,6,0,0,0,1.79.28,5.75,5.75,0,0,0,3.58-1.24l24.2-19.07ZM144.23,33.77c22.36-14.51,49.07-22.18,77.24-22.18,70.41,0,127.68,48.79,127.68,108.77,0,25.07-9.75,48.63-28.19,68.14a124.75,124.75,0,0,1-33.78,25.08,6,6,0,0,0-1.75.88,139.94,139.94,0,0,1-32.54,11.33c-20-22.81-45.81-39.51-69.4-44.84l-83.1-95.17C108.48,65.3,123.92,46.94,144.23,33.77Zm-127.72-5C14.07,25.39,8.85,17,13.42,13.43a3.29,3.29,0,0,1,2.19-.67c2.72,0,7.66,2.1,12.63,8l.07.07L88.13,89.36a5.74,5.74,0,0,0,2.81,3.21l54,61.89-23.74,18.7a5.8,5.8,0,0,0-2.19,4.26L16.74,29.17A2.64,2.64,0,0,0,16.51,28.82ZM138.89,252.09a162.11,162.11,0,0,0,26.32,50.62l.32.39c.17.23.35.47.55.72,9.51,12.07,24.31,19,40.58,19h0a59.06,59.06,0,0,0,15.12-2,5.79,5.79,0,0,0,3.65-2.89,5.87,5.87,0,0,0,.67-2.64c.61.36,1.25.71,1.9,1.07a5.77,5.77,0,0,0,5.36.14,64,64,0,0,0,11.38-7.12A61.08,61.08,0,0,0,267.49,272a51.87,51.87,0,0,0-2.75-28.18c24.56,3.53,46.47,10,62.53,18.54,17.29,9.19,26.81,20.23,26.81,31.07,0,12.94-13.58,26.06-37.25,36C291.21,340.12,257,346,220.56,346s-70.64-5.92-96.26-16.67c-23.67-9.93-37.25-23.05-37.25-36C87.05,277.79,106.78,262.19,138.89,252.09Zm177.5,101.82c-25.49,13.31-59.53,20.64-95.83,20.64s-70.32-7.33-95.82-20.64c-17.2-9-28.92-19.84-34.31-31.5,7.3,6.56,17.17,12.52,29.38,17.65,27,11.33,62.79,17.57,100.75,17.57s73.75-6.24,100.76-17.57c12.21-5.13,22.08-11.09,29.38-17.65C345.31,334.07,333.59,344.93,316.39,353.91Z" style="fill:#231f20"/><path d="M185.1,157.29,237.82,84a5.8,5.8,0,1,0-9.41-6.77l-52.72,73.27a5.8,5.8,0,0,0,9.41,6.77Z" style="fill:#231f20"/><path d="M237.83,107l-28.45,42.1a5.8,5.8,0,0,0,9.61,6.49l28.45-42.11a5.8,5.8,0,0,0-9.61-6.48Z" style="fill:#231f20"/></g></g></svg>