<svg xmlns="http://www.w3.org/2000/svg" viewBox="0 0 370.44 406.01"><title>Asset 2</title><g id="Layer_2" data-name="Layer 2"><g id="Layer_1-2" data-name="Layer 1"><path d="M99.86,331.51H59.27a5.8,5.8,0,1,0,0,11.6H99.86a5.8,5.8,0,0,0,0-11.6Z" style="fill:#231f20"/><path d="M367.65,363.09,296.07,227.77a23.06,23.06,0,0,0-6.91-7.82L253,194.3A23.93,23.93,0,0,0,239.06,190a25.29,25.29,0,0,0-4.35.37L87.39,25.81a5.82,5.82,0,0,0-1.82-1.37L35.63.57a5.79,5.79,0,0,0-8.1,6.71l14.2,53.5a5.74,5.74,0,0,0,1,2L69.05,97.16a47.63,47.63,0,0,0-37,46.37V158.6C11.91,172.91,0,195.42,0,219.43v179.3a5.8,5.8,0,1,0,11.59,0V219.43A62.66,62.66,0,0,1,32,173.52v59.06a47.56,47.56,0,0,0,95.11,0V174.05c10.93,11,20.42,27.62,20.42,45.38v179.3a5.8,5.8,0,1,0,11.59,0V219.43c0-1.68-.07-3.36-.2-5l18.16,23.7a24.33,24.33,0,0,0,.51,18.67L196.1,297.1a23.06,23.06,0,0,0,6.43,8.28l119.62,95.36A24,24,0,0,0,337.26,406a26.43,26.43,0,0,0,16.82-6.15l6.76-5.6C370.3,386.42,373.16,373.3,367.65,363.09ZM42,16.44l37.58,18L223.46,195.14c-.41.31-.82.62-1.22,1l-37.18,30.82c-.4.34-.78.69-1.16,1L55.76,60.76l12.72-9.38A5.8,5.8,0,1,0,61.6,42L50.86,50Zm37.61,252.1a36,36,0,0,1-36-36V143.53a36,36,0,0,1,33.51-35.86l38.41,50.12v74.79A36,36,0,0,1,79.56,268.54ZM353.44,385.33l-6.76,5.61a14.85,14.85,0,0,1-9.42,3.47,12.28,12.28,0,0,1-7.85-2.7L209.79,296.34a11.49,11.49,0,0,1-3.16-4.08L188.13,252c-2.45-5.35-.67-12,4.33-16.11L229.63,205a14.83,14.83,0,0,1,9.43-3.48,12.43,12.43,0,0,1,7.21,2.22l36.18,25.65a11.23,11.23,0,0,1,3.4,3.83l71.57,135.31C360.34,374,358.67,381,353.44,385.33Z" style="fill:#231f20"/></g></g></svg>