<?xml version="1.0" ?><svg height="32" id="svg2" version="1.1" viewBox="0 0 32 32" width="32" xml:space="preserve" xmlns="http://www.w3.org/2000/svg" xmlns:cc="http://creativecommons.org/ns#" xmlns:dc="http://purl.org/dc/elements/1.1/" xmlns:inkscape="http://www.inkscape.org/namespaces/inkscape" xmlns:rdf="http://www.w3.org/1999/02/22-rdf-syntax-ns#" xmlns:sodipodi="http://sodipodi.sourceforge.net/DTD/sodipodi-0.dtd" xmlns:svg="http://www.w3.org/2000/svg"><defs id="defs6"/><g id="g10" transform="matrix(1.3333333,0,0,-1.3333333,0,32)"><path d="m 3.5501416,17.706879 c -0.23205,0 -0.41751,-0.292618 -0.41887,-0.656076 l -0.022,-5.873744 c -0.002,-0.363461 0.18684,-0.658606 0.41886,-0.656034 l 3.96709,0.04398 c 0.34614,-0.263118 -0.1378,-1.9655387 -1.40394,-2.6213777 -1.07513,-0.556904 -0.0491,-1.667102 -0.10137,-1.855371 1.76649,0.433182 2.42587,1.117058 2.8824004,1.44642 0.72537,0.59245 1.85568,2.139772 2.13777,3.2912657 v 0 c 0.0415,0.101872 0.0303,0.22083 0.0308,0.351135 l 0.022,5.873744 c 0.002,0.363458 -0.18682,0.656076 -0.41891,0.656076 z" id="path1228" style="opacity:1;fill:none;fill-opacity:1;fill-rule:nonzero;stroke:#333333;stroke-width:0.83120376;stroke-linecap:round;stroke-linejoin:round;stroke-miterlimit:4;stroke-dasharray:none;stroke-dashoffset:0;stroke-opacity:1;paint-order:markers fill stroke"/><path d="m 13.490642,17.706879 c -0.23205,0 -0.41751,-0.292618 -0.41887,-0.656076 l -0.022,-5.873744 c -0.002,-0.363461 0.18684,-0.658606 0.41886,-0.656034 l 3.96709,0.04398 c 0.34614,-0.263118 -0.1378,-1.9655387 -1.40394,-2.6213777 -1.07513,-0.556904 -0.0491,-1.667102 -0.10137,-1.855371 1.76649,0.433182 2.42587,1.117058 2.8824,1.44642 0.72537,0.59245 1.85568,2.139772 2.13777,3.2912657 v 0 c 0.0415,0.101872 0.0303,0.22083 0.0308,0.351135 l 0.022,5.873744 c 0.002,0.363458 -0.18682,0.656076 -0.41891,0.656076 z" id="path1232" style="opacity:1;fill:none;fill-opacity:1;fill-rule:nonzero;stroke:#333333;stroke-width:0.83120376;stroke-linecap:round;stroke-linejoin:round;stroke-miterlimit:4;stroke-dasharray:none;stroke-dashoffset:0;stroke-opacity:1;paint-order:markers fill stroke"/></g></svg>