<svg xmlns="http://www.w3.org/2000/svg" viewBox="0 0 351.14 351.76"><g id="Layer_2" data-name="Layer 2"><g id="Layer_1-2" data-name="Layer 1"><polyline points="104.1 24.37 7 24.37 7 344.76 344.14 344.76 344.14 24.37 245.34 24.37" style="fill:none;stroke:#FFF;stroke-linecap:round;stroke-linejoin:round;stroke-width:14.000029563903809px"/><path d="M224.63,7H126.51c-9.45,0-17.17,8.5-17.17,18.89v5c0,10.39,7.72,18.89,17.17,18.89h98.12c9.44,0,17.17-8.5,17.17-18.89v-5C241.8,15.5,234.07,7,224.63,7Z" style="fill:none;stroke:#FFF;stroke-linecap:round;stroke-linejoin:round;stroke-width:14.000029563903809px"/><path d="M162.57,118.74c20.68-.45,53.71-25.18,78.46-13.21,50.41,24.39-2.94,90.35-2.85,107.33.12,23.64-.21,60.71-16.36,78.28-11.42,12.42-19.58,2.45-17.8-14,1.37-12.54,5.06-28.2-1.66-41.06-7.83-15-20.46-17.79-35.57-12.51-34.65,12.13-4.38,61.81-19,73.19-32-2.46-30.71-56.49-31.14-82.29-.16-9.5-12.39-24.26-16.42-36-10.91-31.7-22-61.49,16.62-73.36,13.62-4.17,26.52-1,37.13,6.76,3.93,2.89,8.33,7,14.08,10.63a53.8,53.8,0,0,0,19.57,7.77" style="fill:none;stroke:#FFFFFF;stroke-linecap:round;stroke-linejoin:round;stroke-width:14.000029563903809px"/></g></g></svg>