<svg xmlns="http://www.w3.org/2000/svg" viewBox="0 0 351.14 362.86"><title>root</title><g id="Layer_2" data-name="Layer 2"><g id="Layer_1-2" data-name="Layer 1"><path d="M260.82,9.31l46.06,46.07h0a7.36,7.36,0,0,1,2,3.62l5.9,36.24h0a7.46,7.46,0,0,1-2.28,7.87l-13.82,13.81h0a5,5,0,0,1-.41.39l-13.83,13.83v0a7.46,7.46,0,0,1-8,1.65l-34-8.14,0,0a7.34,7.34,0,0,1-3.18-2L193.2,76.66h0a7.43,7.43,0,0,1,0-10.52l.13-.13L250.17,9.18h0a7.42,7.42,0,0,1,10.51,0l.14.13Z" style="fill:none;stroke:#FFF;stroke-linecap:round;stroke-linejoin:round;stroke-width:14.000029563903809px"/><line x1="300.1" y1="118.32" x2="344.14" y2="162.36" style="fill:none;stroke:#FFF;stroke-linecap:round;stroke-linejoin:round;stroke-width:14.000029563903809px"/><line x1="301.72" y1="55.24" x2="238.96" y2="117.99" style="fill:none;stroke:#FFF;stroke-linecap:round;stroke-linejoin:round;stroke-width:14.000029563903809px"/><path d="M239.73,347.44c-40-19.12-82.31-12.25-119.56-3.7-30.87,7.08-58.26,15.31-78,10.86-28.59-6.46-39.5-44.51-18.84-65.41" style="fill:none;stroke:#FFF;stroke-linecap:round;stroke-linejoin:round;stroke-width:14.000029563903809px"/><path d="M219.74,112.65,176.66,188.5,71.88,293.28c-9,9-12,14.75-23.29,8.82A95.92,95.92,0,0,1,9,262.52c-5.93-11.31,2.29-16.75,11.34-25.8L125.12,131.94l73.33-40.58" style="fill:none;stroke:#FFF;stroke-linecap:round;stroke-linejoin:round;stroke-width:14.000029563903809px"/></g></g></svg>