<svg xmlns="http://www.w3.org/2000/svg" viewBox="0 0 368.58 349.07"><title>sirur</title><g id="Layer_2" data-name="Layer 2"><g id="Layer_1-2" data-name="Layer 1"><line x1="248.54" y1="151.21" x2="354.48" y2="151.21" style="fill:none;stroke:#FFF;stroke-linecap:round;stroke-linejoin:round;stroke-width:14.000029563903809px"/><polyline points="246.18 285.44 246.18 342.07 142.42 342.07 142.42 280.24" style="fill:none;stroke:#FFF;stroke-linecap:round;stroke-linejoin:round;stroke-width:14.000029563903809px"/><path d="M244.37,233.6l1.81-201.77c0-2.95-2.14-6.44-5.21-9.39-3.27-3.14-7.24-5.29-10.57-5.29H164.58c13.67,20.09,2.57,39.8-9.43,50.46L110.58,19.88A39.36,39.36,0,0,1,139.23,7a36.91,36.91,0,0,1,26,10.14" style="fill:none;stroke:#FFF;stroke-linecap:round;stroke-linejoin:round;stroke-width:14.000029563903809px"/><path d="M44,116.84a21.69,21.69,0,0,0-30.67,30.67l122,122h0a21.59,21.59,0,0,0,15.33,6.36h84.48l99.13,27.44a21.66,21.66,0,0,0,11.19-41.86L244.71,233.6a21.49,21.49,0,0,0-6.78-1.09H159.7L44,116.84Z" style="fill:none;stroke:#FFF;stroke-linecap:round;stroke-linejoin:round;stroke-width:14.000029563903809px"/></g></g></svg>