<?xml version="1.0" ?><svg viewBox="0 0 512 512" xmlns="http://www.w3.org/2000/svg"><title/><g data-name="1" id="_1"><path d="M157.14,331.32a82.24,82.24,0,1,1,58.17-24.06A82,82,0,0,1,157.14,331.32Zm0-134.49a52.26,52.26,0,1,0,37,15.29A52.13,52.13,0,0,0,157.14,196.83Z"/><path d="M363,212.72A82.28,82.28,0,1,1,421.16,72.27h0A82.28,82.28,0,0,1,363,212.72Zm0-134.55a52.28,52.28,0,1,0,37,15.31A51.94,51.94,0,0,0,363,78.17Z"/><path d="M363,450a82.28,82.28,0,1,1,82.28-82.27A82.37,82.37,0,0,1,363,450Zm0-134.55a52.28,52.28,0,1,0,52.28,52.28A52.33,52.33,0,0,0,363,315.45Z"/><path d="M215.45,230.49a15,15,0,0,1-7.51-28l89.25-51.44a15,15,0,0,1,15,26l-89.25,51.44A15,15,0,0,1,215.45,230.49Z"/><path d="M304.68,349.13a15,15,0,0,1-7.48-2l-89.26-51.44a15,15,0,0,1,15-26l89.25,51.44a15,15,0,0,1-7.5,28Z"/></g></svg>