<svg xmlns="http://www.w3.org/2000/svg" viewBox="0 0 352.3 337.63"><title>clean</title><g id="Layer_2" data-name="Layer 2"><g id="Layer_1-2" data-name="Layer 1"><path d="M267.58,237.1C314,217,345.3,178.91,345.3,135.2c0-22.4-.26-44.84-.26-67.26-7,8.18-21,13.78-37.11,13.78-19.32,0-35.57-8-40.35-18.88-4.79,10.88-21,18.88-40.35,18.88-16.15,0-30.15-5.6-37.11-13.78,0,22.42-.27,44.86-.27,67.26,0,43.71,31.33,81.82,77.73,101.9Z" style="fill:none;stroke:#FFF;stroke-linecap:round;stroke-linejoin:round;stroke-width:14.000029563903809px"/><polyline points="236.04 147.63 266.14 182.49 308.69 117.45" style="fill:none;stroke:#FFF;stroke-linecap:round;stroke-linejoin:round;stroke-width:14.000029563903809px"/><path d="M128,34.41c34.41-.75,89.36-41.88,130.52-22,32.85,15.89,39.22,36.77,34.81,64.83" style="fill:none;stroke:#FFF;stroke-linecap:round;stroke-linejoin:round;stroke-width:14.000029563903809px"/><path d="M252.74,230.69c-2.13,31.91-8.39,71.16-26.19,90.52-19,20.66-32.57,4.08-29.6-23.23,2.27-20.86,8.42-46.91-2.77-68.3-13-24.9-34-29.6-59.17-20.81C77.37,229,127.73,311.7,103.32,330.63c-53.23-4.09-51.09-94-51.81-136.9-.27-15.8-20.61-40.36-27.32-59.83C6,81.15-12.47,31.6,51.86,11.86,74.5,4.91,96,10.13,113.62,23.1,126.08,32.25,135.7,48.53,164,53.7" style="fill:none;stroke:#FFF;stroke-linecap:round;stroke-linejoin:round;stroke-width:14.000029563903809px"/></g></g></svg>