<?xml version="1.0" encoding="utf-8"?>
<svg version="1.1" id="Layer_1" xmlns="http://www.w3.org/2000/svg" xmlns:xlink="http://www.w3.org/1999/xlink" x="0px" y="0px" viewBox="0 0 64 64" style="enable-background:new 0 0 64 64;" xml:space="preserve">
<path d="M32,60C16.5,60,4,47.5,4,32S16.5,4,32,4c15.9,0,25,8.7,25,24v1c0.2,3.4-0.6,6.8-2.3,9.7c-1.8,3.1-5.1,5.1-8.7,5
	c-4,0-8.6-2.3-8.6-8.8v-0.1L38,22.9c-0.5-0.1-1-0.2-1.5-0.3c-1.4-0.2-2.7-0.3-4.1-0.3c-2.5-0.1-5,0.8-6.7,2.7
	c-1.8,2.1-2.8,4.8-2.6,7.6c-0.1,2.2,0.5,4.3,1.7,6.1c1.1,1.3,2.7,1.9,4.3,1.8c1.2,0,2.4-0.3,3.4-0.9c0.9-0.6,2.2-0.4,2.8,0.6
	s0.4,2.2-0.6,2.8C33,44,31,44.6,29.1,44.5c-2.8,0.1-5.6-1.1-7.4-3.3c-1.8-2.1-2.6-5-2.6-8.7c-0.2-3.8,1.1-7.5,3.7-10.3
	c2.5-2.7,6-4.1,9.7-4c1.6,0,3.1,0.1,4.7,0.4c1.2,0.2,2.4,0.4,3.5,0.7l1.6,0.4L41.4,35c0,4.1,2.9,4.7,4.6,4.7c2.1,0,4.1-1.1,5.2-2.9
	c1.4-2.4,2-5.1,1.8-7.8v-1c0-12.9-7.5-20-21-20C18.7,8,8,18.7,8,32c0,13.3,10.7,24,24,24c6.2,0,12.1-2.4,16.6-6.7
	c0.8-0.8,2.1-0.7,2.8,0.1c0.8,0.8,0.7,2.1-0.1,2.8l0,0C46.2,57.2,39.2,60,32,60z"/>
</svg>