<?xml version="1.0" encoding="utf-8"?>
<!-- Generator: Adobe Illustrator 23.0.1, SVG Export Plug-In . SVG Version: 6.00 Build 0)  -->
<svg version="1.1" id="Layer_1" xmlns="http://www.w3.org/2000/svg" xmlns:xlink="http://www.w3.org/1999/xlink" x="0px" y="0px"
	 viewBox="0 0 1196.9 92" style="enable-background:new 0 0 1196.9 92;" xml:space="preserve">
<g transform="translate(0.000000,92.000000) scale(0.100000,-0.100000)">
	<path d="M1620.4,630l-290-290l-286,286c-250,249-289,285-305,276c-11-6-161-153-334-326L0,169.6l87.8-82.2l85-85L505.4,335l245,245
		l285-285c157-157,289-285,295-285c5,0,138,128,295,285l285,285l290-290l290-290l290,290l290,290l290-290l290-290l290,290l290,290
		l290-290l290-290l291,291l291,291l247-243L5983.3,0.1l85,84l84.4,85.6L5723.4,592l-333,327l-290-289l-290-290l-290,290l-290,290
		l-290-290l-290-290l-290,290l-290,290l-290-290l-290-290l-290,290l-290,290L1620.4,630z"/>
</g>
<g transform="translate(0.000000,92.000000) scale(0.100000,-0.100000)">
	<path d="M7432.8,630l-290-290l-286,286c-250,249-289,285-305,276c-11-6-161-153-334-326l-405.4-406.4l84.4-84.3l86.5-85.2
		L6317.8,335l245,245l285-285c157-157,289-285,295-285c5,0,138,128,295,285l285,285l290-290l290-290l290,290l290,290l290-290
		l290-290l290,290l290,290l290-290l290-290l291,291l291,291l247-243l343.9-338.9l85,84l88.6,81.4L11535.8,592l-333,327l-290-289
		l-290-290l-290,290l-290,290l-290-290l-290-290l-290,290l-290,290l-290-290l-290-290l-290,290l-290,290L7432.8,630z"/>
</g>
</svg>
