<?xml version="1.0" encoding="utf-8"?>
<svg version="1.1" id="Capa_1" xmlns="http://www.w3.org/2000/svg" xmlns:xlink="http://www.w3.org/1999/xlink" x="0px" y="0px" viewBox="0 0 512 512" style="enable-background:new 0 0 512 512;" xml:space="preserve">
	<path d="M432.4,328.4c22.4-33.5,35.4-73.8,35.4-117C467.9,94.8,373,0,256.4,0S45,94.8,45,211.4c0,43,12.9,83.1,35.1,116.5L0,408
		l76.5,27.5L104,512l96.7-96.7c17.8,4.9,36.5,7.5,55.8,7.5c19.1,0,37.5-2.6,55.1-7.3L408,512l27.5-76.5L512,408L432.4,328.4z
		 M54.1,395.9l44.3-44.3c6.4,7.2,13.3,14,20.7,20.3l-34.8,34.8L54.1,395.9z M116.1,457.9l-10.8-30.1l37.9-37.9
		c8.5,5.4,17.4,10.2,26.6,14.4L116.1,457.9z M74.7,211.4c0-100.2,81.5-181.7,181.7-181.7s181.7,81.5,181.7,181.7
		c0,100.2-81.5,181.7-181.7,181.7S74.7,311.6,74.7,211.4z M342.5,404.5c9.3-4.1,18.2-8.9,26.7-14.3l37.6,37.6l-10.8,30.1
		L342.5,404.5z M427.8,406.8l-34.4-34.4c7.4-6.3,14.3-13,20.7-20.3l43.8,43.8L427.8,406.8z"/>
	<path d="M256.4,59.2c-83.9,0-152.2,68.3-152.2,152.2s68.3,152.2,152.2,152.2s152.2-68.3,152.2-152.2
		C408.7,127.5,340.4,59.2,256.4,59.2L256.4,59.2z M256.4,88.9c67.6,0,122.6,55,122.6,122.6c0,24.9-7.5,48.1-20.3,67.5
		c-12-7.9-26.3-12.3-40.9-12.3h-21v-13.1c16.1-12.1,26.5-31.4,26.5-53v-42.4c0-21.5-17.5-39.1-39.1-39.1h-54.4
		c-21.5,0-39.1,17.5-39.1,39.1v42.4c0,21.1,9.9,39.9,25.3,52.1v14h-21c-14.8,0-28.9,4.3-40.9,12.3c-12.8-19.4-20.3-42.6-20.3-67.5
		C133.9,143.8,188.9,88.9,256.4,88.9L256.4,88.9z M220.4,200.5v-42.4c0-5.2,4.2-9.4,9.4-9.4h54.4c5.2,0,9.4,4.2,9.4,9.4v19.1
		c0,7.2-5.9,13.1-13.1,13.1h-18.2V220h18.2c2.7,0,5.4-0.3,7.9-0.8c-6.4,10.7-18.1,17.9-31.4,17.9
		C236.9,237.1,220.4,220.7,220.4,200.5L220.4,200.5z M173.7,301.7c6.5-3.6,13.8-5.5,21.4-5.5h50.7v-30.5c3.7,0.6,7.4,1,11.3,1
		c3.4,0,6.8-0.3,10.1-0.8v30.3h50.7c7.6,0,14.9,1.9,21.4,5.4c-21.8,20-50.9,32.2-82.7,32.2C224.6,334,195.5,321.7,173.7,301.7
		L173.7,301.7z"/>
</svg>
