<?xml version="1.0" encoding="utf-8"?>
<svg version="1.1" id="Capa_1" xmlns="http://www.w3.org/2000/svg" xmlns:xlink="http://www.w3.org/1999/xlink" x="0px" y="0px" viewBox="0 0 512 512" style="enable-background:new 0 0 512 512;" xml:space="preserve">
	<path d="M477.6,230.9c-21.5-21.9-49.9-34.5-80.4-35.8c-0.1-1.9-0.3-4.5-0.3-8.1c0-14.7,11.2-59.7,18.2-84.5l7.2-25.5h-87.6
		l-5.9,9.5c-2.3,3.8-57,93.4-57,228.5c0,66.2,53.8,120,120,120s120-53.8,120-120C512,283.4,499.8,253.5,477.6,230.9z M392,395
		c-44.1,0-80-35.9-80-80c0-99.3,32.8-172.8,45.8-198h12.1c-5.7,22.6-12.9,54-12.9,70c0,12.7,0.9,22.8,5.5,31.3
		c4.1,7.6,12.6,16.6,30.2,16.7l0.9,0c43.2,0.8,78.4,36.7,78.4,80C472,359.1,436.1,395,392,395z"/>
	<path d="M205.6,230.9c-21.5-21.9-49.9-34.5-80.4-35.8c-0.1-1.9-0.3-4.5-0.3-8.1c0-14.7,11.2-59.7,18.2-84.5l7.2-25.5H62.9L57,86.5
		C54.7,90.2,0,179.9,0,315c0,66.2,53.8,120,120,120s120-53.8,120-120C240,283.4,227.8,253.5,205.6,230.9z M120,395
		c-44.1,0-80-35.9-80-80c0-99.3,32.8-172.8,45.8-198h12.1C92.2,139.6,85,171,85,187c0,12.7,0.9,22.8,5.5,31.3
		c4.1,7.6,12.6,16.6,30.2,16.7l0.9,0c43.2,0.8,78.4,36.7,78.4,80C200,359.1,164.1,395,120,395z"/>
</svg>
