<?xml version="1.0" ?>
<svg viewBox="0 0 32 32" xmlns="http://www.w3.org/2000/svg">
	<g data-name="Layer 2" id="Layer_2">
		<rect height="2" rx="1" ry="1" width="2" x="15" y="22.77"/>
		<path d="M16,17a3,3,0,0,1-3-3V8a3,3,0,0,1,6,0v6A3,3,0,0,1,16,17ZM16,7a1,1,0,0,0-1,1v6a1,1,0,0,0,2,0V8A1,1,0,0,0,16,7Z"/>
		<path d="M17.16,31H14.84A9.86,9.86,0,0,1,5,21.16V10.84A9.86,9.86,0,0,1,14.84,1h2.31A9.86,9.86,0,0,1,27,10.84V21.16A9.86,9.86,0,0,1,17.16,31ZM14.84,3A7.85,7.85,0,0,0,7,10.84V21.16A7.85,7.85,0,0,0,14.84,29h2.31A7.85,7.85,0,0,0,25,21.16V10.84A7.85,7.85,0,0,0,17.16,3Z"/>
	</g>
</svg>