<?xml version="1.0" encoding="utf-8"?>
<svg version="1.1" id="Capa_1" xmlns="http://www.w3.org/2000/svg" xmlns:xlink="http://www.w3.org/1999/xlink" x="0px" y="0px"
	 viewBox="0 0 512 512" style="enable-background:new 0 0 512 512;" xml:space="preserve">
	<path d="M405.3,309.3c-23.6,0-42.7,19.1-42.7,42.7v42.7H85.3V352c0-23.6-19.1-42.7-42.7-42.7S0,328.4,0,352v117.3
		c0,5.9,4.8,10.7,10.7,10.7h426.7c5.9,0,10.7-4.8,10.7-10.7V352C448,328.4,428.9,309.3,405.3,309.3z M426.7,458.7H21.3V352
		c0-11.8,9.6-21.3,21.3-21.3c11.8,0,21.3,9.6,21.3,21.3v53.3c0,5.9,4.8,10.7,10.7,10.7h298.7c5.9,0,10.7-4.8,10.7-10.7V352
		c0-11.8,9.6-21.3,21.3-21.3s21.3,9.6,21.3,21.3V458.7z"/>
	<path d="M384,224H64c-17.7,0-32,14.3-32,32v64h21.3v-64c0-5.9,4.8-10.7,10.7-10.7h320c5.9,0,10.7,4.8,10.7,10.7v64H416v-64
		C416,238.3,401.7,224,384,224z"/>
	<path d="M74.7,469.3V480c0,5.9-4.8,10.7-10.7,10.7s-10.7-4.8-10.7-10.7v-10.7H32V480c0,17.7,14.3,32,32,32s32-14.3,32-32v-10.7H74.7
		z"/>
	<path d="M394.7,469.3V480c0,5.9-4.8,10.7-10.7,10.7s-10.7-4.8-10.7-10.7v-10.7H352V480c0,17.7,14.3,32,32,32s32-14.3,32-32v-10.7
		H394.7z"/>
	<path d="M480,0H266.7c-17.7,0-32,14.3-32,32v170.7H256V32c0-5.9,4.8-10.7,10.7-10.7H480c5.9,0,10.7,4.8,10.7,10.7v213.3
		c0,5.9-4.8,10.7-10.7,10.7h-42.7v21.3H480c17.7,0,32-14.3,32-32V32C512,14.3,497.7,0,480,0z"/>
	<rect x="362.7" y="10.7" width="21.3" height="192"/>
	<rect x="245.3" y="128" width="256" height="21.3"/>
	<rect x="277.3" y="42.7" width="21.3" height="21.3"/>
	<rect x="277.3" y="85.3" width="21.3" height="21.3"/>
	<rect x="405.3" y="42.7" width="21.3" height="21.3"/>
	<rect x="405.3" y="85.3" width="21.3" height="21.3"/>
	<rect x="213.3" y="234.7" width="21.3" height="138.7"/>
</svg>