<?xml version="1.0" encoding="utf-8"?>
<svg version="1.1" id="Capa_1" xmlns="http://www.w3.org/2000/svg" xmlns:xlink="http://www.w3.org/1999/xlink" x="0px" y="0px"
	 viewBox="0 0 512 512" style="enable-background:new 0 0 512 512;" xml:space="preserve">
	<path d="M373.3,0h-320c-1.7,0.1-3.5,0.1-5.2,0.2C20.4,3.6-0.3,27.3,0,55.2V384c0,23.6,19.1,42.7,42.7,42.7s42.7-19.1,42.7-42.7
		v-10.7h32v69.3c0,26.5,21.5,48,48,48c26.5,0,48-21.5,48-48v-16h32v-21.3h-42.7c-5.9,0-10.7,4.8-10.7,10.7v26.7
		c0,14.7-11.9,26.7-26.7,26.7s-26.7-11.9-26.7-26.7v-80c0-5.9-4.8-10.7-10.7-10.7H74.7c-5.9,0-10.7,4.8-10.7,10.7V384
		c0,11.8-9.6,21.3-21.3,21.3s-21.3-9.6-21.3-21.3V55.2c-0.4-16.9,12-31.4,28.8-33.7c1.1-0.1,2.1-0.1,3.2-0.1h0.5
		c7.8,0.1,15.3,3,21,8.3c6.7,6.1,10.5,14.7,10.5,23.7C85.3,59.2,90.1,64,96,64h320c5.9,0,10.7-4.8,10.7-10.7
		C426.6,23.9,402.8,0,373.3,0z M105.6,42.7c-1.6-7.7-4.9-15-9.6-21.3h277.3c13.6,0,25.6,8.6,30.2,21.3H105.6z"/>
	<path d="M416,106.7H202.7c-17.7,0-32,14.3-32,32v64c0,17.7,14.3,32,32,32H416c17.7,0,32-14.3,32-32v-64
		C448,121,433.7,106.7,416,106.7z M426.7,202.7c0,5.9-4.8,10.7-10.7,10.7H202.7c-5.9,0-10.7-4.8-10.7-10.7v-64
		c0-5.9,4.8-10.7,10.7-10.7H416c5.9,0,10.7,4.8,10.7,10.7L426.7,202.7L426.7,202.7z"/>
	<path d="M181.3,160v-21.3H160c-5.9,0-10.7,4.8-10.7,10.7V192c0,5.9,4.8,10.7,10.7,10.7h21.3v-21.3h-10.7V160L181.3,160L181.3,160z"
		/>
	<path d="M458.7,138.7h-21.3V160H448v21.3h-10.7v21.3h21.3c5.9,0,10.7-4.8,10.7-10.7v-42.7C469.3,143.4,464.6,138.7,458.7,138.7z"/>
	<path d="M480,160h-42.7v21.3H480c5.9,0,10.7,4.8,10.7,10.7v53.3c0,5.9-4.8,10.7-10.7,10.7H352c-29.4,0-53.3,23.9-53.3,53.3V352H320
		v-42.7c0-17.7,14.3-32,32-32h128c17.7,0,32-14.3,32-32V192C512,174.3,497.7,160,480,160z"/>
	<path d="M341.3,341.3h-64c-5.9,0-10.7,4.8-10.7,10.7v117.3c0,23.6,19.1,42.7,42.7,42.7s42.7-19.1,42.7-42.7V352
		C352,346.1,347.2,341.3,341.3,341.3z M330.7,469.3c0,11.8-9.6,21.3-21.3,21.3s-21.3-9.6-21.3-21.3V362.7h42.7L330.7,469.3
		L330.7,469.3z"/>
	<rect x="362.7" y="53.3" width="21.3" height="32"/>
	<rect x="192" y="256" width="21.3" height="74.7"/>
	<rect x="192" y="352" width="21.3" height="21.3"/>
	<rect x="74.7" y="128" width="21.3" height="138.7"/>
	<rect x="74.7" y="288" width="21.3" height="21.3"/>
	<rect x="384" y="170.7" width="21.3" height="21.3"/>
	<rect x="341.3" y="170.7" width="21.3" height="21.3"/>
	<rect x="277.3" y="448" width="64" height="21.3"/>
</svg>
