<?xml version="1.0" ?><svg id="Layer_1" style="enable-background:new 0 0 512 512;" version="1.1" viewBox="0 0 512 512" xml:space="preserve" xmlns="http://www.w3.org/2000/svg" xmlns:xlink="http://www.w3.org/1999/xlink"><style type="text/css">
	.st0{fill:none;stroke:#000000;stroke-width:2;stroke-linecap:round;stroke-linejoin:round;stroke-miterlimit:10;}
	.st1{stroke:#000000;stroke-width:2;stroke-linecap:round;stroke-linejoin:round;stroke-miterlimit:10;}
	.st2{fill:#FFFFFF;}
</style><g><g><path d="M490.39,399.89H21.61C10.24,399.89,1,390.64,1,379.28V56.91C1,45.55,10.24,36.3,21.61,36.3h468.78    c11.36,0,20.61,9.24,20.61,20.61v322.36C511,390.64,501.76,399.89,490.39,399.89z M21.61,51.76c-2.84,0-5.15,2.31-5.15,5.15    v322.36c0,2.84,2.31,5.16,5.15,5.16h468.78c2.84,0,5.15-2.32,5.15-5.16V56.91c0-2.84-2.31-5.15-5.15-5.15H21.61z"/></g><g><path d="M468.63,475.7H43.36C20,475.7,1,451.39,1,421.51c0-4.27,3.46-7.73,7.73-7.73h164.85c1.64,0,3.22,0.52,4.55,1.48    l21.82,15.88h94.19l29.7-16.4c1.15-0.63,2.43-0.97,3.74-0.97h175.7c4.27,0,7.73,3.46,7.73,7.73    C511,451.39,491.99,475.7,468.63,475.7z M17.02,429.24c2.57,17.44,13.59,31,26.34,31h425.26c12.76,0,23.79-13.56,26.35-31H329.57    l-29.7,16.4c-1.15,0.63-2.43,0.97-3.74,0.97h-98.7c-1.64,0-3.22-0.52-4.55-1.48l-21.82-15.88H17.02z"/></g><g><path d="M161.64,98.39H73.8c-4.27,0-7.73-3.46-7.73-7.73c0-4.27,3.46-7.73,7.73-7.73h87.84c4.27,0,7.73,3.46,7.73,7.73    C169.37,94.94,165.91,98.39,161.64,98.39z"/></g><g><path d="M117.72,141.77H73.8c-4.27,0-7.73-3.46-7.73-7.73c0-4.27,3.46-7.73,7.73-7.73h43.93c4.27,0,7.73,3.46,7.73,7.73    C125.45,138.31,122,141.77,117.72,141.77z"/></g><g><path d="M366.62,141.77H322.7c-4.27,0-7.73-3.46-7.73-7.73c0-4.27,3.46-7.73,7.73-7.73h43.92c4.27,0,7.73,3.46,7.73,7.73    C374.35,138.31,370.89,141.77,366.62,141.77z"/></g><g><path d="M271.18,141.77H169.23c-4.27,0-7.73-3.46-7.73-7.73c0-4.27,3.46-7.73,7.73-7.73h101.95c4.27,0,7.73,3.46,7.73,7.73    C278.91,138.31,275.45,141.77,271.18,141.77z"/></g><g><path d="M117.72,242.63H73.8c-4.27,0-7.73-3.46-7.73-7.73s3.46-7.73,7.73-7.73h43.93c4.27,0,7.73,3.46,7.73,7.73    S122,242.63,117.72,242.63z"/></g><g><path d="M366.62,242.63H322.7c-4.27,0-7.73-3.46-7.73-7.73s3.46-7.73,7.73-7.73h43.92c4.27,0,7.73,3.46,7.73,7.73    S370.89,242.63,366.62,242.63z"/></g><g><path d="M271.18,242.63H169.23c-4.27,0-7.73-3.46-7.73-7.73s3.46-7.73,7.73-7.73h101.95c4.27,0,7.73,3.46,7.73,7.73    S275.45,242.63,271.18,242.63z"/></g><g><path d="M117.72,343.49H73.8c-4.27,0-7.73-3.46-7.73-7.73c0-4.27,3.46-7.73,7.73-7.73h43.93c4.27,0,7.73,3.46,7.73,7.73    C125.45,340.04,122,343.49,117.72,343.49z"/></g><g><path d="M366.62,343.49H322.7c-4.27,0-7.73-3.46-7.73-7.73c0-4.27,3.46-7.73,7.73-7.73h43.92c4.27,0,7.73,3.46,7.73,7.73    C374.35,340.04,370.89,343.49,366.62,343.49z"/></g><g><path d="M271.18,343.49H169.23c-4.27,0-7.73-3.46-7.73-7.73c0-4.27,3.46-7.73,7.73-7.73h101.95c4.27,0,7.73,3.46,7.73,7.73    C278.91,340.04,275.45,343.49,271.18,343.49z"/></g><g><path d="M175.75,293.06H73.8c-4.27,0-7.73-3.46-7.73-7.73c0-4.27,3.46-7.73,7.73-7.73h101.95c4.27,0,7.73,3.46,7.73,7.73    C183.47,289.61,180.02,293.06,175.75,293.06z"/></g><g><path d="M323.27,293.06H221.33c-4.27,0-7.73-3.46-7.73-7.73c0-4.27,3.46-7.73,7.73-7.73h101.95c4.27,0,7.73,3.46,7.73,7.73    C331,289.61,327.55,293.06,323.27,293.06z"/></g><g><path d="M175.75,192.2H73.8c-4.27,0-7.73-3.46-7.73-7.73s3.46-7.73,7.73-7.73h101.95c4.27,0,7.73,3.46,7.73,7.73    S180.02,192.2,175.75,192.2z"/></g><g><path d="M323.27,192.2H221.33c-4.27,0-7.73-3.46-7.73-7.73s3.46-7.73,7.73-7.73h101.95c4.27,0,7.73,3.46,7.73,7.73    S327.55,192.2,323.27,192.2z"/></g></g></svg>