<?xml version="1.0" ?><svg id="Layer_1" style="enable-background:new 0 0 512 512;" version="1.1" viewBox="0 0 512 512" xml:space="preserve" xmlns="http://www.w3.org/2000/svg" xmlns:xlink="http://www.w3.org/1999/xlink"><style type="text/css">
	.st0{fill:none;stroke:#000000;stroke-width:2;stroke-linecap:round;stroke-linejoin:round;stroke-miterlimit:10;}
	.st1{stroke:#000000;stroke-width:2;stroke-linecap:round;stroke-linejoin:round;stroke-miterlimit:10;}
	.st2{fill:#FFFFFF;}
</style><g><g><path d="M476.25,369.29H201.33c-4.27,0-7.73-3.46-7.73-7.73c0-4.27,3.46-7.73,7.73-7.73h274.92c5.66,0,10.27-4.6,10.27-10.26    V27.14c0-5.66-4.61-10.27-10.27-10.27L35.74,16.45c-5.65,0-10.26,4.61-10.26,10.27v129.28c0,4.27-3.46,7.73-7.73,7.73    s-7.73-3.46-7.73-7.73V26.72C10.03,12.54,21.57,1,35.75,1l440.51,0.42c14.18,0,25.72,11.54,25.72,25.72v316.43    C501.98,357.75,490.44,369.29,476.25,369.29z"/></g><g><path d="M204.64,324.07c-4.26,0-7.73-3.46-7.73-7.73c0-4.27,3.46-7.73,7.73-7.73l239.74-0.05V59.09H70.93v96.84    c0,4.27-3.46,7.73-7.73,7.73s-7.73-3.46-7.73-7.73V51.37c0-4.27,3.46-7.73,7.73-7.73h388.9c4.27,0,7.73,3.46,7.73,7.73V316.3    c0,4.27-3.46,7.73-7.73,7.73L204.64,324.07z"/></g><g><path d="M201.33,511H17.75c-4.27,0-7.73-3.46-7.73-7.73V155.93c0-4.27,3.46-7.73,7.73-7.73h183.58c4.27,0,7.73,3.46,7.73,7.73    v347.34C209.06,507.54,205.6,511,201.33,511z M25.48,495.55H193.6V163.66H25.48V495.55z"/></g><g><path d="M106.67,481.51c-15.05,0-27.29-12.24-27.29-27.28c0-15.05,12.24-27.29,27.29-27.29s27.29,12.24,27.29,27.29    C133.96,469.27,121.72,481.51,106.67,481.51z M106.67,442.39c-6.53,0-11.83,5.31-11.83,11.83s5.3,11.83,11.83,11.83    c6.53,0,11.83-5.3,11.83-11.83S113.2,442.39,106.67,442.39z"/></g><g><path d="M201.33,221.76H17.75c-4.27,0-7.73-3.46-7.73-7.73c0-4.27,3.46-7.73,7.73-7.73h183.58c4.27,0,7.73,3.46,7.73,7.73    C209.06,218.3,205.6,221.76,201.33,221.76z"/></g><g><path d="M201.33,413.17H17.75c-4.27,0-7.73-3.46-7.73-7.73s3.46-7.73,7.73-7.73h183.58c4.27,0,7.73,3.46,7.73,7.73    S205.6,413.17,201.33,413.17z"/></g><g><path d="M139.02,191.58h-61.2c-4.27,0-7.73-3.46-7.73-7.73c0-4.27,3.46-7.73,7.73-7.73h61.2c4.27,0,7.73,3.46,7.73,7.73    C146.74,188.12,143.29,191.58,139.02,191.58z"/></g></g></svg>