<?xml version="1.0" ?><svg id="Capa_1" style="enable-background:new 0 0 512 512;" version="1.1" viewBox="0 0 512 512" xml:space="preserve" xmlns="http://www.w3.org/2000/svg" xmlns:xlink="http://www.w3.org/1999/xlink"><style type="text/css">
	.st0{fill:#232323;}
</style><g><path class="st0" d="M455.1,0H56.9C31.7,0,11.3,20.5,11.3,45.6v325.5c0,25.1,20.5,45.6,45.6,45.6h188v71.7h-109   c-6.2,0-11.1,5-11.1,11.1s5,11.1,11.1,11.1h240.3c6.2,0,11.1-5,11.1-11.1s-5-11.1-11.1-11.1h-109v-71.7h188   c25.1,0,45.6-20.5,45.6-45.6V45.6C500.7,20.5,480.3,0,455.1,0z M455.1,394.4H56.9c-12.9,0-23.3-10.5-23.3-23.3v-31.2h46.2   c6.2,0,11.1-5,11.1-11.1s-5-11.1-11.1-11.1H33.5V92h334.2c6.2,0,11.1-5,11.1-11.1c0-6.2-5-11.1-11.1-11.1H33.5V45.6   c0-12.9,10.5-23.3,23.3-23.3h398.3c12.9,0,23.3,10.5,23.3,23.3v24.2H439c-6.2,0-11.1,5-11.1,11.1c0,6.2,5,11.1,11.1,11.1h39.5   v225.5H149.3c-6.2,0-11.1,5-11.1,11.1s5,11.1,11.1,11.1h329.1v31.2C478.5,383.9,468,394.4,455.1,394.4z"/><path class="st0" d="M429.6,355h-61.9c-6.2,0-11.1,5-11.1,11.1c0,6.2,5,11.1,11.1,11.1h61.9c6.2,0,11.1-5,11.1-11.1   C440.7,360,435.7,355,429.6,355z"/></g></svg>