<svg xmlns="http://www.w3.org/2000/svg" viewBox="0 0 250 250"><title>asd</title><g id="Layer_2" data-name="Layer 2"><g id="Layer_1-2" data-name="Layer 1"><path d="M179.26,70.74a4.12,4.12,0,0,0,5.9,0l14.27-14.27c3.78-3.92-2-9.68-5.9-5.9L179.26,64.84A4.21,4.21,0,0,0,179.26,70.74Z" style="fill:#263238"/><path d="M233.33,116.66c-10.63.48-10.63,16.19,0,16.67C244,132.85,244,117.14,233.33,116.66Zm0-8.33A16.67,16.67,0,1,1,216.67,125,16.68,16.68,0,0,1,233.33,108.33Zm-25-75c-11.11,0-11.11,16.67,0,16.67S219.45,33.33,208.33,33.33Zm0,25A16.67,16.67,0,1,1,225,41.67,16.66,16.66,0,0,1,208.33,58.33Z" style="fill:#263238"/><path d="M8.34,125A8.33,8.33,0,1,0,25,125C24.53,114.36,8.82,114.36,8.34,125Zm25,0A16.67,16.67,0,1,1,0,125C0,102.78,33.34,102.78,33.34,125ZM200,125a4.17,4.17,0,0,0,4.17,4.16h12.5c5.55,0,5.55-8.33,0-8.33h-12.5A4.17,4.17,0,0,0,200,125Z" style="fill:#263238"/><path d="M179.56,179.55a4.23,4.23,0,0,1,5.9,0l14.29,14.28c3.76,3.91-2,9.68-5.92,5.91l-14.27-14.29A4.23,4.23,0,0,1,179.56,179.55ZM45.84,125a4.17,4.17,0,0,1-4.17,4.16H33.34c-5.56,0-5.56-8.33,0-8.33h8.33A4.17,4.17,0,0,1,45.84,125Z" style="fill:#263238"/><path d="M70.75,179.25a4.21,4.21,0,0,1,0,5.9L56.47,199.43c-3.91,3.78-9.68-2-5.9-5.9l14.28-14.28A4.13,4.13,0,0,1,70.75,179.25ZM208.33,200c-10.63.47-10.63,16.18,0,16.66C219,216.18,219,200.47,208.33,200Zm0,25A16.67,16.67,0,1,1,225,208.33,16.67,16.67,0,0,1,208.33,225Z" style="fill:#263238"/><path d="M70.75,70.74a4.12,4.12,0,0,1-5.9,0L50.57,56.47c-3.78-3.92,2-9.68,5.9-5.9L70.75,64.84A4.13,4.13,0,0,1,70.75,70.74ZM41.67,200c-11.11,0-11.11,16.66,0,16.66S52.78,200,41.67,200Zm0,25a16.67,16.67,0,1,1,16.67-16.67A16.68,16.68,0,0,1,41.67,225Z" style="fill:#263238"/><path d="M125,241.66c10.64-.48,10.64-16.19,0-16.66C113.89,225,113.89,241.66,125,241.66Zm0-25a16.67,16.67,0,1,1-16.66,16.67A16.68,16.68,0,0,1,125,216.66ZM41.67,33.33c-11.11,0-11.11,16.67,0,16.67S52.78,33.33,41.67,33.33Zm0,25A16.67,16.67,0,1,1,58.34,41.67,16.67,16.67,0,0,1,41.67,58.33Z" style="fill:#263238"/><path d="M125,8.33C113.89,8.33,113.89,25,125,25S136.11,8.33,125,8.33Zm0,25a16.67,16.67,0,1,1,16.67-16.66A16.66,16.66,0,0,1,125,33.33ZM125,200a4.17,4.17,0,0,1,4.17,4.16v12.5c0,5.56-8.33,5.56-8.33,0v-12.5A4.16,4.16,0,0,1,125,200Z" style="fill:#263238"/><path d="M125,66.67A58.33,58.33,0,1,0,183.33,125,58.39,58.39,0,0,0,125,66.67Zm0,125A66.67,66.67,0,1,1,191.67,125,66.73,66.73,0,0,1,125,191.66ZM125,50a4.17,4.17,0,0,1-4.16-4.17V33.33c0-5.55,8.33-5.55,8.33,0v12.5A4.17,4.17,0,0,1,125,50Z" style="fill:#263238"/><path d="M129.17,95.83a113.32,113.32,0,0,1-34.94-5.51c-5.29-1.73-2.69-9.63,2.61-7.94a104.82,104.82,0,0,0,70.13-2c5.16-2,8.21,5.73,3,7.78a111.7,111.7,0,0,1-40.8,7.63ZM81.51,173.52a4.16,4.16,0,0,1-1.82-7.9,113.12,113.12,0,0,1,91.84-3.17,4.17,4.17,0,1,1-3.13,7.72,105,105,0,0,0-85,3,4,4,0,0,1-1.87.43Z" style="fill:#263238"/><path d="M125,67.71a70.81,70.81,0,0,0,0,114.53,70.76,70.76,0,0,0,0-114.49Zm0,123.78a4.28,4.28,0,0,1-2.3-.69,79.13,79.13,0,0,1,0-131.6,4.1,4.1,0,0,1,4.64,0,79.1,79.1,0,0,1,0,131.6A4,4,0,0,1,125,191.49Z" style="fill:#263238"/><path d="M184,129.51H79.35c-5.56,0-5.56-8.33,0-8.33H184C189.58,121.18,189.58,129.51,184,129.51Z" style="fill:#263238"/><path d="M163.93,18c0,5.56-8.33,5.56-8.33,0s8.33-5.55,8.33,0" style="fill:#263238"/><path d="M94.4,232c0,5.56-8.33,5.56-8.33,0s8.33-5.55,8.33,0" style="fill:#263238"/><path d="M180.26,24.74c0,5.56-8.34,5.56-8.34,0s8.34-5.55,8.34,0" style="fill:#263238"/><path d="M78.08,225.25c0,5.56-8.33,5.56-8.33,0s8.33-5.55,8.33,0" style="fill:#263238"/><path d="M229.42,73.91c0,5.56-8.33,5.56-8.33,0s8.33-5.56,8.33,0" style="fill:#263238"/><path d="M28.92,176.09c0,5.55-8.34,5.55-8.34,0s8.34-5.56,8.34,0" style="fill:#263238"/><path d="M236.16,90.23c0,5.56-8.34,5.56-8.34,0s8.34-5.55,8.34,0" style="fill:#263238"/><path d="M22.18,159.76c0,5.56-8.33,5.56-8.33,0s8.33-5.55,8.33,0" style="fill:#263238"/><path d="M236.16,159.76c0,5.56-8.34,5.56-8.34,0s8.34-5.55,8.34,0" style="fill:#263238"/><path d="M22.18,90.23c0,5.56-8.33,5.56-8.33,0s8.33-5.55,8.33,0" style="fill:#263238"/><path d="M229.42,176.09c0,5.55-8.33,5.55-8.33,0s8.33-5.56,8.33,0" style="fill:#263238"/><path d="M28.92,73.91c0,5.56-8.34,5.56-8.34,0s8.34-5.56,8.34,0" style="fill:#263238"/><path d="M180.26,225.25c0,5.56-8.34,5.56-8.34,0s8.34-5.55,8.34,0" style="fill:#263238"/><path d="M78.08,24.74c0,5.56-8.33,5.56-8.33,0s8.33-5.55,8.33,0" style="fill:#263238"/><path d="M163.93,232c0,5.56-8.33,5.56-8.33,0s8.33-5.55,8.33,0" style="fill:#263238"/><path d="M94.4,18c0,5.56-8.33,5.56-8.33,0s8.33-5.55,8.33,0" style="fill:#263238"/></g></g></svg>