<?xml version="1.0" ?><svg id="Capa_1" style="enable-background:new 0 0 512 512;" version="1.1" viewBox="0 0 512 512" xml:space="preserve" xmlns="http://www.w3.org/2000/svg" xmlns:xlink="http://www.w3.org/1999/xlink"><style type="text/css">
	.st0{fill:#232323;}
</style><path class="st0" d="M341.3,209.9c57.9,0,104.9-47.1,104.9-104.9S399.2,0,341.3,0c-14.2,0-27.9,2.8-40.8,8.2  c-9.1,3.8-17.5,8.9-25.2,15.1c-4.2,3.4-4.8,9.5-1.4,13.7c3.4,4.2,9.5,4.8,13.7,1.4c6.3-5.1,13.2-9.2,20.5-12.3  c10.5-4.5,21.7-6.7,33.2-6.7c47.1,0,85.4,38.3,85.4,85.4s-38.3,85.4-85.4,85.4c-47.1,0-85.4-38.3-85.4-85.4c0-10.8,2-21.4,5.9-31.3  c2-5-0.5-10.7-5.5-12.6c-5-2-10.7,0.5-12.6,5.5c-4.8,12.3-7.3,25.2-7.3,38.5c0,24.9,8.7,47.7,23.3,65.7l-44.2,44.2  c-16.7-12.7-37.4-20.3-60-20.3c-54.9,0-99.5,44.6-99.5,99.5s44.6,99.5,99.5,99.5c23.1,0,44.3-8,61.2-21.2l30.5,30.5  c-8.1,11.3-12.9,25.1-12.9,40.1c0,38.1,31,69,69,69s69-31,69-69c0-7.7-1.3-15.2-3.7-22.4c-1.8-5.1-7.3-7.8-12.4-6.1  c-5.1,1.7-7.8,7.3-6.1,12.4c1.8,5.1,2.7,10.5,2.7,16.1c0,27.3-22.2,49.5-49.5,49.5s-49.5-22.2-49.5-49.5c0-12.8,4.9-24.4,12.9-33.2  c0.2-0.2,0.5-0.3,0.7-0.5c0.4-0.4,0.5-0.8,0.8-1.2c9-9,21.4-14.7,35.1-14.7c4.8,0,9.5,0.7,14.1,2c5.2,1.5,10.6-1.4,12.1-6.6  c1.5-5.2-1.4-10.6-6.6-12.1c-6.3-1.9-12.9-2.8-19.6-2.8c-16.1,0-30.9,5.6-42.7,14.9L230.8,359c15-17.4,24.2-40.1,24.2-64.9  c0-25.3-9.6-48.4-25.2-66l43.5-43.5C291.6,200.3,315.3,209.9,341.3,209.9z M155.5,374.1c-44.1,0-80-35.9-80-80s35.9-80,80-80  s80,35.9,80,80S199.6,374.1,155.5,374.1z"/></svg>