<?xml version="1.0" ?><svg id="Capa_1" style="enable-background:new 0 0 512 512;" version="1.1" viewBox="0 0 512 512" xml:space="preserve" xmlns="http://www.w3.org/2000/svg" xmlns:xlink="http://www.w3.org/1999/xlink"><style type="text/css">
	.st0{fill:#232323;}
</style><g><path class="st0" d="M476.9,186.2c-24.6-19.7-55.3-45.4-82.1-68v-16.6c0-19-15.4-34.4-34.4-34.4H334c-0.4-0.5-0.8-1-1.3-1.4   c-23-19.4-52.5-44.1-76.7-63.4c-3.1-2.5-7.6-2.5-10.7,0.1l-75.8,63.3c-0.5,0.4-0.9,0.9-1.3,1.4h-14.7c-19,0-34.4,15.4-34.4,34.4   v6.3l-84.3,70.4c-1.9,1.6-3,4-3,6.5l1.2,292.8c0,19,15.4,34.4,34.4,34.4h378.2c19,0,34.4-15.4,34.4-34.4V192.7   C480.1,190.2,478.9,187.8,476.9,186.2z M250.8,19.8c18.2,14.8,38.9,32,57.3,47.4h-48h-6.3h-59.7L250.8,19.8z M463.3,477.6   c0,9.7-7.9,17.6-17.6,17.6H67.5c-9.7,0-17.6-7.9-17.6-17.6l-1.2-288.9l70.5-58.9v111.4l-39.4-35.6c-3.5-3.1-8.8-2.8-11.9,0.6   c-3.1,3.4-2.8,8.8,0.6,11.9l120,108.3c1.6,1.4,3.6,2.2,5.6,2.2c2.3,0,4.6-0.9,6.2-2.8c3.1-3.4,2.8-8.8-0.6-11.9L136,256.4V101.6   c0-9.7,7.9-17.6,17.6-17.6h100.2h6.3h100.2c9.7,0,17.6,7.9,17.6,17.6v152.9l-65.8,59.4c-3.4,3.1-3.7,8.4-0.6,11.9   c1.7,1.8,3.9,2.8,6.2,2.8c2,0,4-0.7,5.6-2.2l120-108.3c3.4-3.1,3.7-8.4,0.6-11.9c-3.1-3.5-8.4-3.7-11.9-0.6l-37.4,33.8v-99.2   c22.9,19.3,47.6,39.9,68.5,56.6V477.6z"/><path class="st0" d="M261.3,311c-3.1-2.5-7.6-2.5-10.6,0.1L68.8,462.9c-3.6,3-4,8.3-1.1,11.8c1.7,2,4,3,6.5,3c1.9,0,3.8-0.6,5.4-2   l176.6-147.4c8.7,7.1,21.9,18.1,40.7,33.8c3.6,3,8.9,2.5,11.8-1c3-3.6,2.5-8.9-1-11.8C284.4,329.9,269.7,317.7,261.3,311z"/><path class="st0" d="M443.1,462.8c-13.9-11.2-48.7-40.5-85.6-71.5l-11.8-10c-3.6-3-8.9-2.5-11.8,1c-3,3.6-2.5,8.9,1,11.8l11.8,10   c36.9,31.1,71.8,60.4,85.9,71.7c1.6,1.2,3.4,1.8,5.3,1.8c2.5,0,4.9-1.1,6.6-3.1C447.3,471,446.7,465.7,443.1,462.8z"/><path class="st0" d="M324.4,149.8h15.9c4.6,0,8.4-3.8,8.4-8.4c0-4.6-3.8-8.4-8.4-8.4h-15.9c-4.6,0-8.4,3.8-8.4,8.4   C316,146.1,319.7,149.8,324.4,149.8z"/><path class="st0" d="M172.4,149.8c0,0,0.1,0,0.1,0l113.9-1.4c4.6-0.1,8.4-3.9,8.3-8.5c-0.1-4.6-3.8-8.3-8.4-8.3c0,0-0.1,0-0.1,0   L172.3,133c-4.6,0.1-8.4,3.9-8.3,8.5C164,146.1,167.8,149.8,172.4,149.8z"/><path class="st0" d="M341.8,241.2h-63c-4.6,0-8.4,3.8-8.4,8.4s3.8,8.4,8.4,8.4h63c4.6,0,8.4-3.8,8.4-8.4S346.5,241.2,341.8,241.2z"/><path class="st0" d="M245,249.6c0-4.6-3.8-8.4-8.4-8.4h-64.2c-4.6,0-8.4,3.8-8.4,8.4s3.8,8.4,8.4,8.4h64.2   C241.2,258,245,254.3,245,249.6z"/><path class="st0" d="M341.8,187.1H225.4c-4.6,0-8.4,3.8-8.4,8.4c0,4.6,3.8,8.4,8.4,8.4h116.5c4.6,0,8.4-3.8,8.4-8.4   C350.2,190.9,346.5,187.1,341.8,187.1z"/><path class="st0" d="M172.4,203.9h15.2c4.6,0,8.4-3.8,8.4-8.4c0-4.6-3.8-8.4-8.4-8.4h-15.2c-4.6,0-8.4,3.8-8.4,8.4   C164,200.2,167.7,203.9,172.4,203.9z"/></g></svg>