<?xml version="1.0" ?><svg data-name="1-SEO Research" height="64" id="_1-SEO_Research" viewBox="0 0 64 64" width="64" xmlns="http://www.w3.org/2000/svg"><defs><style>.cls-1{fill:none;stroke:#000;stroke-linejoin:round;stroke-width:2px;}</style></defs><title/><rect class="cls-1" height="62" rx="2" ry="2" width="62" x="1" y="1"/><line class="cls-1" x1="1" x2="63" y1="9" y2="9"/><line class="cls-1" x1="4" x2="6" y1="5" y2="5"/><line class="cls-1" x1="8" x2="10" y1="5" y2="5"/><line class="cls-1" x1="58" x2="60" y1="5" y2="5"/><polyline class="cls-1" points="48 29 48 38 57 38"/><polyline class="cls-1" points="57 63 57 38 48 29 28 29"/><circle class="cls-1" cx="19" cy="41" r="12"/><line class="cls-1" x1="19" x2="19" y1="53" y2="56"/><rect class="cls-1" height="7" width="6" x="16" y="56"/><path class="cls-1" d="M12,41a7,7,0,0,1,7-7"/><line class="cls-1" x1="12" x2="12" y1="43" y2="45"/><polyline class="cls-1" points="26 58 30 58 35 53 40 53 43 56 47 56 53 50"/><polyline class="cls-1" points="49 49 49 44 42 44"/><polyline class="cls-1" points="34 44 39 44 39 48 33 48"/><line class="cls-1" x1="34" x2="40" y1="40" y2="40"/><line class="cls-1" x1="34" x2="40" y1="36" y2="36"/><rect class="cls-1" height="10" width="50" x="7" y="14"/><line class="cls-1" x1="31" x2="33" y1="19" y2="19"/><line class="cls-1" x1="35" x2="37" y1="19" y2="19"/><line class="cls-1" x1="27" x2="29" y1="19" y2="19"/></svg>