<?xml version="1.0" ?><svg height="64" viewBox="0 0 64 64" width="64" xmlns="http://www.w3.org/2000/svg"><defs><style>.cls-1{fill:none;stroke:#000;stroke-linejoin:round;stroke-width:2px;}</style></defs><title/><g data-name="2-Global Communication" id="_2-Global_Communication"><path class="cls-1" d="M20,1H3A2,2,0,0,0,1,3V61a2,2,0,0,0,2,2H61a2,2,0,0,0,2-2V3a2,2,0,0,0-2-2H44"/><line class="cls-1" x1="1" x2="10" y1="9" y2="9"/><line class="cls-1" x1="4" x2="6" y1="5" y2="5"/><line class="cls-1" x1="8" x2="10" y1="5" y2="5"/><line class="cls-1" x1="58" x2="60" y1="5" y2="5"/><path class="cls-1" d="M12.916,27a20,20,0,1,1,38.168,0"/><line class="cls-1" x1="12" x2="52" y1="21" y2="21"/><line class="cls-1" x1="15" x2="49" y1="11" y2="11"/><line class="cls-1" x1="15" x2="49" y1="31" y2="31"/><path class="cls-1" d="M32,1S43,6,43,21"/><path class="cls-1" d="M42.373,27A27,27,0,0,0,43,21.09"/><path class="cls-1" d="M21.627,27A27,27,0,0,1,21,21.09"/><path class="cls-1" d="M32,1S21,6,21,21"/><line class="cls-1" x1="32" x2="32" y1="1" y2="27"/><line class="cls-1" x1="63" x2="54" y1="9" y2="9"/><rect class="cls-1" height="4" width="28" x="18" y="36"/><line class="cls-1" x1="17" x2="47" y1="44" y2="44"/><line class="cls-1" x1="17" x2="39" y1="48" y2="48"/><line class="cls-1" x1="47" x2="45" y1="48" y2="48"/><line class="cls-1" x1="43" x2="41" y1="48" y2="48"/><path class="cls-1" d="M51,34V33a2,2,0,0,0-2-2H15a2,2,0,0,0-2,2v9L9,46l4,4v1a2,2,0,0,0,2,2H27l5,5,5-5H49a2,2,0,0,0,2-2V42l4-4Z"/></g></svg>