<?xml version="1.0" ?><svg height="64" viewBox="0 0 64 64" width="64" xmlns="http://www.w3.org/2000/svg"><defs><style>.cls-1{fill:none;stroke:#000;stroke-linejoin:round;stroke-width:2px;}</style></defs><title/><g data-name="17-Report" id="_17-Report"><rect class="cls-1" height="4" width="17" x="41" y="15"/><line class="cls-1" x1="40" x2="51" y1="23" y2="23"/><line class="cls-1" x1="59" x2="57" y1="23" y2="23"/><line class="cls-1" x1="55" x2="53" y1="23" y2="23"/><path class="cls-1" d="M38,15H32a.979.979,0,0,0-1,1v2"/><rect class="cls-1" height="62" rx="2" ry="2" width="62" x="1" y="1"/><line class="cls-1" x1="1" x2="63" y1="9" y2="9"/><line class="cls-1" x1="4" x2="6" y1="5" y2="5"/><line class="cls-1" x1="8" x2="10" y1="5" y2="5"/><line class="cls-1" x1="58" x2="60" y1="5" y2="5"/><path class="cls-1" d="M5,17H9a1.959,1.959,0,0,1,2,2V51a1.959,1.959,0,0,0,2,2H49a1.959,1.959,0,0,1,2,2v3"/><rect class="cls-1" height="16" width="6" x="16" y="37"/><rect class="cls-1" height="22" width="6" x="22" y="31"/><rect class="cls-1" height="32" width="6" x="28" y="21"/><rect class="cls-1" height="11" width="6" x="34" y="42"/><rect class="cls-1" height="22" width="6" x="40" y="31"/></g></svg>