<?xml version="1.0" encoding="utf-8"?>
<svg version="1.1" xmlns="http://www.w3.org/2000/svg" xmlns:xlink="http://www.w3.org/1999/xlink" x="0px" y="0px"
    viewBox="0 0 436 436" style="enable-background:new 0 0 436 436;" xml:space="preserve">
   <path d="M412.5,280.5l-34.6-15.7l-9.9-16c38.6-24.4,62-66.8,62-112.5V70.6c-0.1-3.7-2.2-7.1-5.5-8.8l-88.9-47.3
      c-3-1.6-6.6-1.6-9.5,0.1L240,61.8c-3.2,1.8-5.1,5.1-5,8.8v67c-0.1,19,3.8,37.9,11.6,55.3h-72.1c-15.5,0-30.2,7.3-39.7,19.6L95.5,264
      l-66,18C12.1,286.7,0.1,302.5,0,320.5v25.2c0.1,22.1,18.1,40,40.2,40.2H45c7.4,26.8,35.2,42.5,62,35c17-4.7,30.3-18,35-35h147
      c7.4,26.8,35.2,42.5,62,35c17-4.7,30.3-18,35-35h9.8c22.1-0.1,40.1-18,40.2-40.2v-28.9C435.9,301.1,426.7,287,412.5,280.5z
       M255,76.5l76.3-41.9l78.7,42v59.7c-0.1,45.7-27.5,86.8-69.6,104.5c0,0-0.1,0-0.2,0l-9.6,4.1l-7.8-3.5
      c-41.2-18.1-67.8-58.8-67.8-103.9L255,76.5L255,76.5z M93.5,402.4c-16.8,0-30.3-13.6-30.3-30.3c0-16.8,13.6-30.3,30.3-30.3
      c16.8,0,30.3,13.6,30.3,30.3S110.2,402.3,93.5,402.4z M337.5,402.4c-16.8,0-30.3-13.6-30.3-30.3s13.6-30.3,30.3-30.3
      c16.8,0,30.3,13.6,30.3,30.3C367.9,388.8,354.3,402.3,337.5,402.4z M416.1,345.6H416c-0.1,11.1-9.1,20.1-20.2,20.2h-8.4
      c-3.6-27.6-28.8-47-56.4-43.4c-22.6,2.9-40.5,20.8-43.4,43.4H143.4c-3.6-27.6-28.8-47-56.4-43.4c-22.6,2.9-40.5,20.8-43.4,43.4h-3.4
      c-11.1-0.1-20.1-9.1-20.2-20.2v-25.2c0.1-9,6.1-16.8,14.8-19.2l69.2-18.9c2.1-0.6,4-1.8,5.4-3.6l41.4-54.2
      c5.7-7.4,14.5-11.7,23.8-11.7H258c14.2,20.6,33.9,36.9,56.8,47l12,5.2c2.5,1.1,5.4,1.1,8,0l13.5-5.8c0.7-0.3,1.4-0.6,2-0.9
      l12.3,19.7c1,1.7,2.5,3,4.3,3.8l37.4,16.9c7.1,3.2,11.7,10.3,11.8,18.1L416.1,345.6L416.1,345.6z"/>
   <path d="M380.6,114.3c-3.5-4.3-9.7-5-14.1-1.6l-0.1,0.1l-46.8,38.1l-17-19.9c-3.6-4.2-9.9-4.8-14.1-1.2s-4.8,9.9-1.2,14.1l0.1,0.1
      l23.3,27.3c0.1,0.2,0.2,0.3,0.3,0.4c0.1,0.1,0.2,0.3,0.4,0.4c0.1,0.1,0.3,0.3,0.4,0.4c0.1,0.1,0.3,0.2,0.4,0.3s0.3,0.2,0.5,0.3
      s0.3,0.2,0.4,0.3c0.2,0.1,0.3,0.2,0.5,0.3c0.1,0.1,0.3,0.2,0.4,0.2c0.2,0.1,0.4,0.2,0.6,0.2c0.1,0.1,0.3,0.1,0.4,0.2
      c0.2,0.1,0.4,0.1,0.6,0.2c0.1,0,0.3,0.1,0.4,0.1c0.2,0,0.4,0.1,0.6,0.1c0.1,0,0.3,0.1,0.4,0.1c0.3,0,0.5,0,0.8,0c0.1,0,0.2,0,0.3,0
      c0.3,0,0.6,0,0.9,0c0.1,0,0.1,0,0.2,0c0.2,0,0.5-0.1,0.7-0.1c0.1,0,0.2,0,0.3-0.1c0.2,0,0.4-0.1,0.6-0.1c0.1,0,0.2-0.1,0.3-0.1
      c0.2,0,0.3-0.1,0.5-0.2c0.1,0,0.2-0.1,0.4-0.1c0.1-0.1,0.3-0.1,0.4-0.2c0.1-0.1,0.3-0.1,0.4-0.2c0.1-0.1,0.3-0.1,0.4-0.2
      c0.1-0.1,0.3-0.2,0.4-0.2s0.2-0.2,0.4-0.2c0.1-0.1,0.2-0.2,0.4-0.3c0.1-0.1,0.2-0.1,0.3-0.2l54.3-44.2
      C383.3,124.9,384,118.7,380.6,114.3z"/>
</svg>