<?xml version="1.0" encoding="utf-8"?>
<svg version="1.1" xmlns="http://www.w3.org/2000/svg" xmlns:xlink="http://www.w3.org/1999/xlink" x="0px" y="0px"
	 viewBox="0 0 512 512" style="enable-background:new 0 0 512 512;" xml:space="preserve">
	<path d="M511.11,401.98c-0.2-0.56-20.32-56.61-32.43-101.83l-1.61-6l-130.64-75.43l-104.28,20.62l-46.21-26.68
		c-16.19-9.35-35.06-11.83-53.12-6.99c-18.06,4.84-33.15,16.42-42.5,32.61c-12.58,21.79-12.07,47.6-0.93,68.28
		c-3.06,16.2-17.31,28.5-34.38,28.5c-19.3,0-35-15.7-35-35s15.7-35,35-35h15v-94.3c20.26-6.39,35-25.35,35-47.7s-14.74-41.31-35-47.7
		V0.06H50v75.3c-20.26,6.39-35,25.35-35,47.7s14.74,41.31,35,47.7v66.05c-28.64,6.79-50,32.57-50,63.25c0,35.84,29.16,65,65,65
		c24.49,0,45.85-13.62,56.93-33.67c1.27,0.85,2.57,1.68,3.91,2.46c-2.86,10.23-2.95,21.07-0.13,31.6
		c4.15,15.48,14.08,28.42,27.96,36.43c9.24,5.34,19.51,8.06,29.9,8.06c5.21,0,10.46-0.68,15.63-2.07
		c10.53-2.82,19.87-8.32,27.3-15.91l76.02,43.89c-2.86,10.23-2.95,21.07-0.13,31.6c4.15,15.48,14.08,28.42,27.96,36.43
		c9.25,5.34,19.51,8.06,29.9,8.06c5.21,0,10.46-0.68,15.63-2.07c10.87-2.91,20.47-8.68,28.01-16.66c8.41,3.17,17.25,4.77,26.17,4.77
		c6.51,0,13.07-0.86,19.53-2.59c19.35-5.18,35.52-17.6,45.56-34.98L512,431.06v-26.61L511.11,401.98z M45,123.06
		c0-11.03,8.97-20,20-20s20,8.97,20,20s-8.97,20-20,20S45,134.09,45,123.06z M209.65,364.92c-4.01,6.94-10.48,11.9-18.22,13.98
		c-7.74,2.08-15.82,1.01-22.76-3c-6.94-4.01-11.9-10.48-13.98-18.22c-2.07-7.74-1.01-15.83,3-22.77
		c5.55-9.61,15.65-14.99,26.03-14.99c5.09,0,10.24,1.29,14.95,4.01C212.99,332.21,217.92,350.59,209.65,364.92z M386.32,466.92
		c-4.01,6.94-10.48,11.9-18.22,13.98c-7.74,2.08-15.82,1.01-22.76-3c-6.94-4.01-11.9-10.48-13.98-18.22s-1.01-15.83,3-22.77
		c5.55-9.61,15.66-14.99,26.03-14.99c5.09,0,10.24,1.29,14.95,4.01C389.66,434.21,394.59,452.59,386.32,466.92z M482,423.06
		L482,423.06l-12.86,22.39c-6.01,10.41-15.71,17.86-27.32,20.97c-7.75,2.08-15.73,2.05-23.28,0.01c6.3-25.31-4.52-52.8-28.2-66.48
		c-24.17-13.95-54.11-9.13-72.82,9.92l-76.04-43.9c7.14-25.73-3.65-54.07-27.82-68.02c-24.17-13.95-54.11-9.13-72.82,9.92
		c-19.03-11.05-25.57-35.52-14.56-54.59c5.34-9.25,13.97-15.87,24.29-18.64c10.32-2.77,21.1-1.35,30.35,4l55.98,32.32l104.28-20.62
		l110.15,63.59c11.08,40.05,26.74,84.71,30.66,95.72L482,423.06L482,423.06z"/>
</svg>
