<?xml version="1.0" encoding="utf-8"?>
<svg version="1.1" xmlns="http://www.w3.org/2000/svg" xmlns:xlink="http://www.w3.org/1999/xlink" x="0px" y="0px"
	 viewBox="0 0 480.4 480.4" style="enable-background:new 0 0 480.4 480.4;" xml:space="preserve">
	<path d="M379.1,67.3h-46.9V62c-0.1-17-13.9-30.8-30.9-30.7h-15.5c-10-25.4-38.7-37.9-64.1-27.9c-12.8,5-22.9,15.1-27.9,27.9h-15.2
		c-16.8,0-30.4,13.6-30.4,30.4c0,0.1,0,0.2,0,0.4v5.3h-46.9c-22.8,0-41.1,18.9-41.1,41.7v330.4c0,22.5,18.2,40.8,40.8,40.9
		c0.1,0,0.2,0,0.4,0h277.7c22.5,0.2,41-17.9,41.1-40.5c0-0.1,0-0.2,0-0.4V109C420.2,86.2,401.8,67.3,379.1,67.3z M168.2,62
		c-0.2-5.7,4.3-10.5,10-10.7c0.1,0,0.3,0,0.4,0H201c4.7,0,8.7-3.3,9.7-7.8c3.3-14.1,14.9-23.6,28.9-23.6c13.9,0,25.9,9.8,28.8,23.4
		c1,4.7,5,8,9.8,8h23c6-0.1,10.9,4.7,10.9,10.7v39.3H168.2L168.2,62L168.2,62z M400.2,439.4c0,11.5-9.3,20.8-20.7,20.9
		c-0.1,0-0.3,0-0.4,0H101.3c-11.5,0.2-21-9-21.1-20.5c0-0.1,0-0.3,0-0.4V109c0-11.8,9.4-21.7,21.1-21.7h46.9v24.3
		c-0.2,5.1,3.8,9.5,9,9.7c0.2,0,0.4,0,0.5,0h164.5c5.4,0.2,9.9-4.1,10-9.5c0-0.1,0-0.1,0-0.2V87.3h46.9c11.8,0,21.1,10,21.1,21.7
		V439.4z"/>
	<path d="M213.2,335.3h-86c-5.5,0-10,4.5-10,10v83c0,5.5,4.5,10,10,10h86c5.5,0,10-4.5,10-10v-83
		C223.2,339.8,218.7,335.3,213.2,335.3z M203.2,418.3h-66v-63h66V418.3z"/>
	<path d="M192,368.2c-4.1-3.5-10.3-3.1-13.9,0.9l-12.5,14.2l-4.3-3.4c-4.3-3.5-10.6-2.8-14.1,1.5c-3.3,4.4-2.6,10.7,1.8,14.2
		l11.8,9.4c4.2,3.3,10.2,2.8,13.8-1.2l18.6-21.5C196.8,378.1,196.2,371.8,192,368.2z"/>
	<path d="M311.3,355.3h-62.1c-5.5,0-10,4.5-10,10s4.4,10,10,10h62.1c5.5,0,10-4.5,10-10S316.8,355.3,311.3,355.3z"/>
	<path d="M353,397.3H249.2c-5.5,0-10,4.5-10,10s4.5,10,10,10h103.9c5.5,0,10-4.5,10-10S358.6,397.3,353,397.3z"/>
	<path d="M370.2,213.6l-23-10.4l-20.5-32.6c-6.9-10.9-18.9-17.5-31.8-17.3h-79.5c-11.7-0.1-22.7,5.3-29.8,14.5l-26.4,34.6l-44.4,12.1
		c-13.3,3.6-22.6,15.7-22.6,29.4v17.4c0,16.9,13.8,31,30.7,31h1c5.1,14,19.2,25.4,35.7,25.4s30.6-11.4,35.7-25.4h86.3
		c5.1,14,19.2,25.4,35.7,25.4s30.6-11.4,35.7-25.4h4.5c16.9,0,30.7-14.1,30.7-31v-19.8C388.2,229.5,381.1,218.6,370.2,213.6z
		 M159.6,297.3c-9.8,0-17.8-8-17.8-17.8s8-17.8,17.8-17.8s17.8,8,17.8,17.8C177.4,289.4,169.4,297.3,159.6,297.3z M317.4,297.3
		c-9.8,0-17.8-8-17.8-17.8s8-17.8,17.8-17.8s17.8,8,17.8,17.8C335.1,289.4,327.2,297.3,317.4,297.3z M357.5,272.3h-3.1
		c-3.5-18-18.8-30.2-37-30.2s-33.6,12.2-37.1,30.2h-83.7c-3.3-17.8-19-30.6-37-30.4c-17.9,0-33.4,12.5-37.1,30.1
		c-5.7-0.2-10.3-4.9-10.3-10.7v-17.4c0-4.8,3.2-9,7.8-10.2l47.7-13c2.1-0.6,4-1.8,5.3-3.6l28.5-37.2c3.3-4.3,8.5-6.7,13.9-6.6h79.5
		c6-0.1,11.6,2.9,14.8,8l22.1,35.2c1,1.6,2.6,2.9,4.3,3.7l25.7,11.6c3.8,1.7,6.2,5.5,6.2,9.6l0.1,19.9
		C368.1,267.2,363.5,272.1,357.5,272.3z"/>
</svg>