<?xml version="1.0" encoding="utf-8"?>
	<svg version="1.1" xmlns="http://www.w3.org/2000/svg" xmlns:xlink="http://www.w3.org/1999/xlink" x="0px" y="0px"
		 viewBox="0 0 469.3 469.3" style="enable-background:new 0 0 469.3 469.3;" xml:space="preserve">
		<path d="M400.2,211.8c-16.6-70.1-72.6-126.1-142.7-142.7c-5.8-1.4-11.5,2.2-12.8,7.9c-1.4,5.7,2.2,11.5,7.9,12.8
			c62.3,14.8,112.1,64.5,126.8,126.8c1.2,4.9,5.5,8.2,10.4,8.2c0.8,0,1.6-0.1,2.5-0.3C398,223.3,401.6,217.5,400.2,211.8z"/>
		<path d="M213.3,192c-35.3,0-64,28.7-64,64s28.7,64,64,64s64-28.7,64-64S248.6,192,213.3,192z M213.3,298.7
			c-23.5,0-42.7-19.1-42.7-42.7s19.1-42.7,42.7-42.7c23.5,0,42.7,19.1,42.7,42.7S236.9,298.7,213.3,298.7z"/>
		<path d="M117.3,128c-17.6,0-32,14.4-32,32s14.4,32,32,32s32-14.4,32-32S135,128,117.3,128z M117.3,170.7c-5.9,0-10.7-4.8-10.7-10.7
			c0-5.9,4.8-10.7,10.7-10.7S128,154.1,128,160C128,165.9,123.2,170.7,117.3,170.7z"/>
		<path d="M117.3,320c-17.6,0-32,14.4-32,32s14.4,32,32,32s32-14.4,32-32S135,320,117.3,320z M117.3,362.7c-5.9,0-10.7-4.8-10.7-10.7
			c0-5.9,4.8-10.7,10.7-10.7c5.9,0,10.7,4.8,10.7,10.7C128,357.9,123.2,362.7,117.3,362.7z"/>
		<path d="M309.3,320c-17.6,0-32,14.4-32,32s14.4,32,32,32s32-14.4,32-32S327,320,309.3,320z M309.3,362.7c-5.9,0-10.7-4.8-10.7-10.7
			c0-5.9,4.8-10.7,10.7-10.7c5.9,0,10.7,4.8,10.7,10.7C320,357.9,315.2,362.7,309.3,362.7z"/>
		<path d="M213.3,0c-5.9,0-10.7,4.8-10.7,10.7v32.5C90,48.8,0,142,0,256c0,117.6,95.7,213.3,213.3,213.3c114,0,207.2-90,212.8-202.7
			h32.5c5.9,0,10.7-4.8,10.7-10.7C469.3,114.8,354.5,0,213.3,0z M213.3,448c-105.9,0-192-86.1-192-192c0-102.3,80.4-185.9,181.3-191.5
			v23.8c0,20.6,14.2,38.2,33.7,41.7c52.1,9.5,93.5,50.8,102.9,102.9c3.5,19.5,21.1,33.7,41.7,33.7h23.8
			C399.2,367.6,315.6,448,213.3,448z M381,245.3c-10.2,0-19.1-6.9-20.7-16.2c-11.1-60.8-59.3-109.1-120.1-120.1
			c-9.2-1.7-16.2-10.6-16.2-20.7V21.6C344.9,27,442.3,124.4,447.8,245.3H381z"/>
</svg>