<svg version="1.1" xmlns="http://www.w3.org/2000/svg" xmlns:xlink="http://www.w3.org/1999/xlink" x="0px" y="0px" viewBox="0 0 1034.87 621.92">
    <path fill="none" stroke="#d8d8d8" stroke-width="2px" stroke-miterlimit="10" d="M1033.14,343.02c-15.35,3.35-35.43,6.53-59.06,7.15c-6.93,0.18-31.19,0.59-62.64-4.6
        c-17.43-2.87-66.48-11.4-119.49-41.36c-44.67-25.25-70.31-53.39-114.72-102.13c-41.11-45.11-36.16-48.69-77.11-91.57
        c-56.53-59.21-89.83-77.39-103.83-84.43C476.06,15.9,449.68,2.99,412.71,1.4c-12.99-0.56-43.99-1.53-77.96,14.64
        c-41.24,19.63-61.56,52.48-73.53,71.83c-23.33,37.71-29.81,74.12-34.04,97.87c-2.5,14.07-3.49,25.38-5.45,48
        c-3.15,36.29-2.4,50.69-3.91,84.09c-2.19,48.31-3.28,72.47-10.04,104c-5.37,25.04-10.9,49.9-27.06,79.15
        c-17.97,32.52-39.6,53.3-50.89,63.15c-11.85,10.34-37.13,30.25-74.72,43.74c-21.2,7.61-39.98,10.9-53.79,12.43"/>
    <path fill="none" stroke="#d8d8d8" stroke-width="2px" stroke-miterlimit="10" d="M1001.31,353.83c-9.83,1.88-23.04,3.96-38.72,5.11c-41.64,3.05-75.12-2.32-93.96-6.3
        c-40.95-8.65-70.03-22.85-78.38-27.06c-38.81-19.59-63.61-42.55-82.47-60.26c-12.26-11.52-28.17-30.13-59.49-66.89
        c-50.46-59.23-51.93-63.36-70.21-81.19c-23.99-23.4-43.89-42.81-76.85-59.49c-17.8-9.01-50.48-25.07-94.21-24.26
        c-11.84,0.22-31.62,0.78-54.64,10.47c-26.56,11.18-42.26,28.14-52.85,39.83c-31.65,34.94-42.46,72.73-48,92.94
        c-6.72,24.51-8.36,44.66-11.23,79.91c-1.08,13.31-1.74,28.45-3.06,58.72c-1.92,44.01-1.36,47.29-3.06,64.85
        c-1.74,17.94-3.56,36.73-9.7,60.77c-4.86,19.04-10.57,40.74-25.28,65.87c-4.44,7.59-16.44,27.02-37.53,47.23
        c-25.95,24.88-51.32,37.19-60.51,41.36c-20.86,9.47-39.57,13.88-52.85,16.09"/>
    <path fill="none" stroke="#d8d8d8" stroke-width="2px" stroke-miterlimit="10" d="M82.16,604.55c9.97-1.79,22.58-4.85,36.6-10.3c8.38-3.25,23.78-9.9,41.02-21.79
        c10.53-7.26,28.65-21.25,45.79-43.57c19.61-25.55,28.03-49.12,33.02-63.49c9.64-27.72,11.87-49.43,14.98-81.7
        c2.99-31.08,0.85-33.59,3.57-83.06c2.17-39.47,3.26-59.2,7.49-80c5.05-24.83,10.68-51.28,28.77-80.51
        c8.98-14.51,23.96-38.12,53.45-55.66c22.82-13.57,43.56-17.11,49.87-18.04c30.43-4.49,54,3.04,74.04,9.7
        c41.63,13.83,69.09,36.91,86.81,52.09c13.38,11.46,21.69,20.52,38.3,38.64c31.56,34.42,37.19,46.51,64.34,77.45
        c21.88,24.93,36.09,41.13,58.89,59.06c41.27,32.46,79.97,46.48,93.11,50.89c33.92,11.4,63.83,14.7,84.77,15.49
        c29.54,1.11,54.49-2.31,72.85-6.13"/>
    <path fill="none" stroke="#d8d8d8" stroke-width="2px" stroke-miterlimit="10" d="M937.57,374.34c-5.44,1.12-12.86,2.48-21.7,3.57c-10.07,1.24-33.34,3.55-62.81,0.51
        c-36.87-3.8-64.54-14-76.09-18.64c-41.03-16.48-67.58-38.6-81.7-50.55c-16.08-13.62-26.54-25.15-40.09-40.09
        c-29.01-31.98-30.63-40.34-54.38-67.91c-16.91-19.63-39.47-45.44-75.06-68.94c-20.46-13.5-41.03-26.78-71.74-32.68
        c-14.69-2.82-39.94-7.35-69.45,2.55c-30.17,10.13-47.82,29.65-57.7,40.85c-24.49,27.76-32.67,56.86-38.3,76.85
        c-6.19,21.99-7.61,39.17-10.47,73.53c-1.46,17.52-0.81,17.82-3.06,61.53c-1.88,36.55-2.86,55.09-4.85,67.91
        c-3.37,21.72-6.4,41.25-17.11,64.85c-12.8,28.2-30.14,48.07-42.89,60.26c-29.82,28.48-60.52,39.77-69.7,42.89
        c-10.72,3.65-20.03,5.69-26.81,6.89"/>
    <path fill="none" stroke="#d8d8d8" stroke-width="2px" stroke-miterlimit="10" d="M142.63,591.42c6.17-1.05,14.23-2.76,23.43-5.68c6.86-2.18,23.03-7.8,40.7-19.06
        c8.24-5.25,31.65-21.2,51.4-50.55c18.26-27.13,24.16-52,28.94-73.02c5.69-25.03,6.52-47.72,8.17-93.11
        c1.14-31.38,0.16-40.44,3.06-64.17c2.7-22.04,4.58-37.39,11.4-56.68c5.71-16.12,17.03-46.9,46.81-71.83
        c8.95-7.49,24.51-20.23,48.51-26.04c27.25-6.6,49.5-0.43,65.19,3.91c28.35,7.86,47.23,21.08,63.49,32.68
        c25.58,18.26,42.05,36.76,58.21,55.15c19.98,22.73,19.16,26.07,41.53,51.74c13.88,15.93,26.73,30.68,45.28,46.64
        c16.75,14.41,43.12,36.7,83.74,51.91c5.94,2.23,33.77,12.38,72.34,15.32c28.74,2.19,53.04-0.43,70.64-3.57"/>
</svg>
