<svg viewBox="0 0 512.007 512.007" xmlns="http://www.w3.org/2000/svg">
    <path d="m233.007 448.044c-4.184 0-8.004-2.707-9.415-6.636-1.392-3.876-.199-8.324 2.943-10.987 3.281-2.78 8.086-3.14 11.744-.873 3.495 2.165 5.339 6.417 4.527 10.446-.928 4.611-5.084 8.05-9.799 8.05z"/>
    <path d="m179.29 495.224c-2.29 0-4.576-.784-6.432-2.342-5.201-4.368-127.655-107.392-152.037-144.387-15.615-23.697-21.984-45.425-20.648-70.451 1.347-25.16 11.999-48.785 29.996-66.523 18.26-18 42.101-27.912 67.13-27.912 38.684 0 68.374 28.766 82.01 44.939 14.044-16.074 44.445-44.939 81.645-44.939 25.031 0 48.873 9.912 67.134 27.911 17.998 17.739 28.651 41.364 29.997 66.522 1.716 31.998-10.127 54.454-20.637 70.443-6.353 9.659-55.154 56.503-64.873 65.795-3.992 3.816-10.323 3.676-14.139-.316-3.817-3.992-3.675-10.322.316-14.139 27.803-26.583 58.589-57.165 61.983-62.327 13.29-20.22 18.487-37.682 17.378-58.387-2.229-41.633-36.842-75.503-77.16-75.503-40.19 0-73.309 46.405-73.638 46.874-1.901 2.7-5.01 4.292-8.314 4.244-3.303-.045-6.369-1.717-8.196-4.469-.304-.454-31.646-46.649-73.506-46.649-40.314 0-74.926 33.87-77.155 75.502-1.092 20.479 4.268 38.484 17.377 58.38 19.859 30.132 116.649 113.282 142.078 134.895l14.393-11.036c4.382-3.36 10.66-2.533 14.021 1.851 3.36 4.383 2.532 10.66-1.851 14.021l-20.787 15.939c-1.799 1.379-3.944 2.064-6.085 2.064z"/>
    <path d="m148.559 161.155c-2.286 0-4.571-.78-6.431-2.342-5.626-4.725-55.273-46.626-65.944-62.816-4.58-6.95-10.572-17.985-9.744-33.508 1.372-25.631 22.083-45.706 47.15-45.706 15.255 0 27.473 9.015 34.982 16.49 7.607-7.474 19.879-16.49 34.815-16.49 25.068 0 45.78 20.075 47.152 45.704.83 15.487-5.158 26.536-9.735 33.499-10.738 16.328-60.207 58.113-65.813 62.824-1.857 1.564-4.144 2.345-6.432 2.345zm-34.968-124.372c-14.196 0-26.389 12.011-27.18 26.772-.401 7.53 1.535 13.941 6.474 21.437 6.216 9.431 34.616 35.067 55.672 53.054 20.978-17.94 49.281-43.534 55.537-53.047 4.941-7.518 6.879-13.932 6.477-21.442-.791-14.763-12.984-26.773-27.182-26.773-11.724 0-23.512 13.002-26.716 17.557-1.9 2.699-4.971 4.308-8.314 4.244-3.303-.045-6.369-1.717-8.196-4.469-3.236-4.801-14.361-17.333-26.572-17.333z"/>
    <path d="m392.906 236.354c-2.286 0-4.571-.78-6.431-2.342-8.459-7.104-83.097-70.092-98.852-93.995-6.534-9.917-15.085-25.643-13.912-47.63.917-17.131 8.168-33.214 20.419-45.289 12.458-12.28 28.735-19.043 45.834-19.043 24.05 0 42.883 16.145 52.996 27.255 10.362-11.048 29.511-27.255 52.677-27.255 17.1 0 33.377 6.763 45.836 19.043 12.251 12.075 19.504 28.158 20.42 45.287 1.162 21.691-6.819 36.844-13.902 47.621-16.128 24.522-95.289 91.178-98.651 94.003-1.86 1.564-4.147 2.345-6.434 2.345zm-52.941-188.299c-24.18 0-44.941 20.366-46.282 45.398-.671 12.585 2.512 23.22 10.642 35.559 10.968 16.642 62.747 62.242 88.579 84.24 25.746-21.948 77.338-67.449 88.377-84.233 8.131-12.373 11.314-23.01 10.643-35.564-1.341-25.033-22.104-45.399-46.285-45.399-23.969 0-44.459 28.49-44.663 28.778-1.877 2.646-4.924 4.222-8.162 4.222-.051 0-.103-.001-.154-.001-3.296-.052-6.359-1.715-8.183-4.461-.18-.267-19.425-28.539-44.512-28.539z"/>
</svg>