<?xml version="1.0" ?><svg viewBox="0 0 512 512" xmlns="http://www.w3.org/2000/svg"><defs><style>.cls-1{fill:none;stroke:#000;stroke-linecap:round;stroke-linejoin:round;stroke-width:30px;}</style></defs><title/><g data-name="1" id="_1"><path class="cls-1" d="M223.13,295h-154V181.22A36.22,36.22,0,0,1,105.35,145H404.91a36.22,36.22,0,0,1,36.22,36.22V295h-154"/><path class="cls-1" d="M287.13,295H413.59V398.78A36.22,36.22,0,0,1,377.37,435H132.9a36.22,36.22,0,0,1-36.22-36.22V295H223.13"/><rect class="cls-1" height="78.33" width="64" x="223.13" y="256.84"/><path class="cls-1" d="M199.21,63H311.05a37.08,37.08,0,0,1,37.08,37.08V145a0,0,0,0,1,0,0h-186a0,0,0,0,1,0,0V100.08A37.08,37.08,0,0,1,199.21,63Z"/></g></svg>