<?xml version="1.0" ?>
<svg height="32" viewBox="0 0 32 32" width="32" xmlns="http://www.w3.org/2000/svg">
    <g data-name="3-Pay per Click" id="_3-Pay_per_Click">
        <path fill="none" stroke="#000" stroke-width="2" d="M12,19a9,9,0,1,1,9-9"/>
        <path fill="none" stroke="#000" stroke-width="2" d="M14,8h0a1,1,0,0,0-1-1H11a1,1,0,0,0-1,1V9a1,1,0,0,0,1,1h2"/>
        <path fill="none" stroke="#000" stroke-width="2" d="M10,12h0a1,1,0,0,0,1,1h2a1,1,0,0,0,1-1V11a1,1,0,0,0-1-1H11"/>
        <line fill="none" stroke="#000" stroke-width="2" x1="12" x2="12" y1="7" y2="5"/>
        <line fill="none" stroke="#000" stroke-width="2" x1="12" x2="12" y1="13" y2="15"/>
        <rect fill="none" stroke="#000" stroke-width="2" height="16" rx="3" ry="3" width="12" x="17" y="15"/>
        <line fill="none" stroke="#000" stroke-width="2" x1="17" x2="29" y1="22" y2="22"/>
        <line fill="none" stroke="#000" stroke-width="2" x1="23" x2="23" y1="15" y2="22"/>
    </g>
</svg>