<svg viewBox="0 0 512 512" xmlns="http://www.w3.org/2000/svg">
    <path d="m473.436 263.787h-38.641v-27.02c0-15.173-12.344-27.518-27.517-27.518h-134.419v-62.367c0-14.673-11.938-26.611-26.61-26.611h-29.569v-83.286c0-20.393-16.591-36.985-36.985-36.985h-84.015c-20.394 0-36.985 16.592-36.985 36.985v83.286h-29.57c-14.673 0-26.609 11.938-26.609 26.611v99.891c0 5.523 4.478 10 10 10s10-4.477 10-10v-99.891c0-3.583 3.026-6.611 6.609-6.611h217.124c3.583 0 6.61 3.027 6.61 6.611v241.287h-230.343v-51.567c0-5.523-4.478-10-10-10s-10 4.477-10 10v96.688c0 14.689 11.937 26.639 26.609 26.639h2.359v19.196c0 18.127 14.747 32.875 32.874 32.875 18.111 0 32.847-14.748 32.847-32.875v-19.196h80.965v19.196c0 18.127 14.735 32.875 32.847 32.875h262.419c19.877 0 36.049-16.185 36.049-36.078v-176.057c-.001-19.893-16.173-36.078-36.049-36.078zm-276.756-143.516h-117.985v-83.286c0-9.365 7.619-16.985 16.985-16.985h84.016c9.365 0 16.984 7.62 16.984 16.985zm76.179 108.979h134.419c4.145 0 7.517 3.373 7.517 7.518v27.02h-141.936zm-195.654 249.875c0 7.099-5.763 12.875-12.847 12.875-7.099 0-12.874-5.776-12.874-12.875v-19.196h25.721zm-48.08-39.196c-3.583 0-6.609-3.041-6.609-6.639v-25.121h230.344v25.121c0 3.599-3.027 6.639-6.61 6.639zm194.766 39.196c0 7.099-5.775 12.875-12.874 12.875-7.084 0-12.847-5.776-12.847-12.875v-19.196h25.721zm219.873 12.875h-202.502c1.69-3.956 2.629-8.308 2.629-12.875v-19.196h2.358c14.673 0 26.61-11.95 26.61-26.639v-149.503h170.904v208.213zm45.72-16.078c0 8.866-7.199 16.078-16.049 16.078h-9.672v-208.213h9.672c8.85 0 16.049 7.212 16.049 16.078z"/>
    <path d="m75.073 245.986c-5.522 0-10 4.477-10 10s4.478 10 10 10h125.257c5.522 0 10-4.477 10-10s-4.478-10-10-10z"/>
    <path d="m220.308 196.006c0-16.549-13.45-30.012-29.983-30.012h-105.274c-16.533 0-29.983 13.463-29.983 30.012 0 16.533 13.45 29.984 29.983 29.984h105.273c16.533 0 29.984-13.451 29.984-29.984zm-29.984 9.984h-105.273c-5.505 0-9.983-4.479-9.983-9.984 0-5.521 4.479-10.012 9.983-10.012h105.273c5.505 0 9.983 4.492 9.983 10.012.001 5.505-4.478 9.984-9.983 9.984z"/>
    <path d="m325.79 360.589 49.52 22.478c1.341.608 2.745.896 4.128.896 3.803 0 7.438-2.181 9.111-5.869l16.922-37.275c1.097-2.416 1.188-5.167.256-7.651-.933-2.483-2.814-4.494-5.229-5.59l-49.548-22.478c-2.416-1.095-5.169-1.187-7.651-.253-2.483.934-4.493 2.815-5.589 5.232l-16.894 37.275c-2.279 5.03-.052 10.953 4.974 13.235zm26.006-33.141 31.329 14.212-8.653 19.062-31.314-14.214z"/>
    <path d="m339.448 470.558c18.408 0 33.385-14.977 33.385-33.385 0-18.424-14.977-33.414-33.385-33.414-18.424 0-33.413 14.989-33.413 33.414 0 18.409 14.989 33.385 33.413 33.385zm0-46.799c7.381 0 13.385 6.017 13.385 13.414 0 7.381-6.004 13.385-13.385 13.385-7.396 0-13.413-6.004-13.413-13.385 0-7.397 6.018-13.414 13.413-13.414z"/>
    <path d="m12.516 301.702c5.522 0 10-4.505 10-10.028s-4.478-10-10-10-10 4.477-10 10v.057c0 5.522 4.477 9.971 10 9.971z"/>
</svg>