<svg xmlns="http://www.w3.org/2000/svg" viewBox="0 0 96.25 98.72"><title>Asset 2</title><g id="Layer_2" data-name="Layer 2"><g id="Layer_4" data-name="Layer 4"><path d="M41.11,22.27s0,0,0,0,.15-.09.1-.15h0C41.16,22.13,41.06,22.21,41.11,22.27Z" style="fill:none"/><path d="M89,56.43A35.59,35.59,0,1,0,32.56,60.7" style="fill:none;stroke:#484f59;stroke-miterlimit:10;stroke-width:3px"/><path d="M38.28,11.14c-.05,0-.14.08-.09.13h0s.14-.07.09-.13Z" style="fill:#484f59"/><path d="M42.06,22.38c-.05,0-.15.09-.1.15h0c.05,0,.15-.08.1-.14Z" style="fill:#484f59"/><polyline points="43.26 57.02 46.84 47.31 36.74 38.19 33.2 46.18 37.09 55.86" style="fill:none;stroke:#484f59;stroke-linecap:round;stroke-linejoin:round;stroke-width:3px"/><polyline points="38.93 7.86 36.27 13.94 32.91 20.1 35.28 23.88 37.64 19.97 42.46 25.81 34.17 33.23 29.59 33.67 28.65 36.37 32.94 41.83 26.1 38.68 24.26 36.44" style="fill:none;stroke:#484f59;stroke-linejoin:round;stroke-width:3px"/><path d="M40.08,11.58l4.36,9.09,5.89-4.77,1.83-8.27S47.72,7.59,40.08,11.58Z" style="fill:none;stroke:#484f59;stroke-miterlimit:10;stroke-width:3px"/><path d="M82.47,10.28C78.17,12.53,74,14.74,74,14.74l-8.28,2.58-5.27-1.84-5.38,4.88,2,3L52.5,26l.38,2.21,5.12.84,4.72,2.59-3.83.94-2.26-1.49-4.14,1-2.61,7.26L52,43.1l4.22.17,1.49,8.5,3,1.92,2.78,1.91,6-14.87L66,39.34,65.4,36l3.46,1.34,1.74.44L73,34.76l3,5.45,4.66-3.15,3.37,6.65,5.39-11,3.38-6.26" style="fill:none;stroke:#484f59;stroke-miterlimit:10;stroke-width:3px"/><path d="M23.59,86.7H35.72L70.28,73.88,92.42,58.65c-.07-.08-.12-.15-.19-.22l-1.59-1.58c-2.63-2.64-7-2-10.13.22L67.34,64.66l-5.18,3H40v-2l13.76,0c3.52-.1,6.3-4,6.2-7.55l-.09-.89H35.3l-9.49,8.34H23.59" style="fill:none;stroke:#484f59;stroke-miterlimit:10;stroke-width:3px"/><polyline points="7.34 62.3 23.6 62.3 23.6 93.27 18.09 93.27" style="fill:none;stroke:#484f59;stroke-miterlimit:10;stroke-width:3px"/><polyline points="0 62.3 18.26 62.3 18.26 97.22 0 97.22" style="fill:none"/><path d="M11.25,87.34a2.47,2.47,0,1,0,2.47,2.47,2.46,2.46,0,0,0-2.47-2.47Z" style="fill:#484f59"/><polyline points="0 62.3 18.26 62.3 18.26 97.22 0 97.22" style="fill:none;stroke:#484f59;stroke-miterlimit:10;stroke-width:3px"/></g></g></svg>