<svg xmlns="http://www.w3.org/2000/svg" viewBox="0 0 98.19 102.62"><title>Asset 2</title><g id="Layer_2" data-name="Layer 2"><g id="Layer_4" data-name="Layer 4"><polygon points="80.64 21.78 69.61 21.78 73.74 8.22 57.66 29.92 68.69 29.92 64.56 43.48 80.64 21.78" style="fill:none;stroke:#484f59;stroke-miterlimit:10;stroke-width:3px"/><polygon points="40.17 39.18 50.15 1.5 50.15 51.34 40.17 39.18" style="fill:none;stroke:#484f59;stroke-linecap:round;stroke-linejoin:round;stroke-width:3px"/><polygon points="41.19 68.59 3.56 78.78 46.73 53.86 41.19 68.59" style="fill:none;stroke:#484f59;stroke-linecap:round;stroke-linejoin:round;stroke-width:3px"/><polygon points="66.15 53 93.79 80.49 50.62 55.57 66.15 53" style="fill:none;stroke:#484f59;stroke-linecap:round;stroke-linejoin:round;stroke-width:3px"/><path d="M54.17,53.59a5.25,5.25,0,1,1-5.25-5.25A5.25,5.25,0,0,1,54.17,53.59Z" style="fill:none;stroke:#484f59;stroke-miterlimit:10;stroke-width:3px"/><line x1="49.17" y1="58.84" x2="49.17" y2="97.84" style="fill:none;stroke:#484f59;stroke-miterlimit:10;stroke-width:3px"/><path d="M1.5,53a47.51,47.51,0,0,1,42-47.19" style="fill:none;stroke:#484f59;stroke-miterlimit:10;stroke-width:3px"/><path d="M18.89,31.22A37.21,37.21,0,0,1,41.52,16.59" style="fill:none;stroke:#484f59;stroke-miterlimit:10;stroke-width:3px"/><path d="M72.07,94.75A47.52,47.52,0,0,1,10.2,82" style="fill:none;stroke:#484f59;stroke-miterlimit:10;stroke-width:3px"/><path d="M44.5,90.59a37.19,37.19,0,0,1-24-12.29" style="fill:none;stroke:#484f59;stroke-miterlimit:10;stroke-width:3px"/><path d="M86.27,24.2A47.57,47.57,0,0,1,92.8,72.73" style="fill:none;stroke:#484f59;stroke-miterlimit:10;stroke-width:3px"/><path d="M83.11,38.72a37.2,37.2,0,0,1,1.35,26.91" style="fill:none;stroke:#484f59;stroke-miterlimit:10;stroke-width:3px"/></g></g></svg>