<svg xmlns="http://www.w3.org/2000/svg" viewBox="0 0 99.9 82.45"><title>Asset 3</title><g id="Layer_2" data-name="Layer 2"><g id="Layer_4" data-name="Layer 4"><line x1="39.07" y1="80.95" x2="39.07" y2="71.62" style="fill:none;stroke:#484f59;stroke-miterlimit:10;stroke-width:3px"/><line x1="50.4" y1="71.62" x2="50.4" y2="80.95" style="fill:none;stroke:#484f59;stroke-miterlimit:10;stroke-width:3px"/><line x1="30.73" y1="80.95" x2="58.74" y2="80.95" style="fill:none;stroke:#484f59;stroke-miterlimit:10;stroke-width:3px"/><line x1="72.56" y1="0.32" x2="70.55" y2="9.6" style="fill:none;stroke:#484f59;stroke-width:3px"/><line x1="54.74" y1="1.45" x2="57.64" y2="10.49" style="fill:none;stroke:#484f59;stroke-width:3px"/><line x1="39.86" y1="11.34" x2="46.9" y2="17.72" style="fill:none;stroke:#484f59;stroke-width:3px"/><line x1="31.93" y1="27.34" x2="41.21" y2="29.35" style="fill:none;stroke:#484f59;stroke-width:3px"/><line x1="91.65" y1="56.95" x2="84.61" y2="50.57" style="fill:none;stroke:#484f59;stroke-width:3px"/><line x1="99.58" y1="40.95" x2="90.3" y2="38.94" style="fill:none;stroke:#484f59;stroke-width:3px"/><line x1="98.45" y1="23.12" x2="89.41" y2="26.03" style="fill:none;stroke:#484f59;stroke-width:3px"/><line x1="88.56" y1="8.25" x2="82.18" y2="15.29" style="fill:none;stroke:#484f59;stroke-width:3px"/><path d="M46,37.35A20,20,0,1,1,77.64,50.23" style="fill:none;stroke:#484f59;stroke-width:3px"/><path d="M87.15,71.78H2.32l15.33-34H71.82Z" style="fill:none;stroke:#484f59;stroke-miterlimit:10;stroke-width:3px"/><path d="M6.86,62.93h76.3" style="fill:none;stroke:#484f59;stroke-linejoin:round;stroke-width:3px"/><path d="M10.62,54.45H79.35" style="fill:none;stroke:#484f59;stroke-linejoin:round;stroke-width:3px"/><path d="M14.38,46H75.53" style="fill:none;stroke:#484f59;stroke-linejoin:round;stroke-width:3px"/><path d="M27.1,37.62q-4.94,16.83-9.89,33.67" style="fill:none;stroke:#484f59;stroke-linejoin:round;stroke-width:3px"/><path d="M36,37.62,31.12,71.29" style="fill:none;stroke:#484f59;stroke-linejoin:round;stroke-width:3px"/><path d="M44.93,37.62q0,16.83.11,33.67" style="fill:none;stroke:#484f59;stroke-linejoin:round;stroke-width:3px"/><path d="M53.84,37.62Q56.39,54.45,59,71.29" style="fill:none;stroke:#484f59;stroke-linejoin:round;stroke-width:3px"/><path d="M62.75,37.62,72.86,71.29" style="fill:none;stroke:#484f59;stroke-linejoin:round;stroke-width:3px"/></g></g></svg>